<?xml version="1.0" encoding="utf-8"?>
<!-- Generator: Adobe Illustrator 23.0.3, SVG Export Plug-In . SVG Version: 6.00 Build 0)  -->
<svg version="1.1" xmlns="http://www.w3.org/2000/svg" xmlns:xlink="http://www.w3.org/1999/xlink" x="0px" y="0px"
	 viewBox="0 0 500 500" style="enable-background:new 0 0 500 500;" xml:space="preserve">
<style type="text/css">
	.st0{display:none;}
	.st1{display:inline;fill:#E6E6E8;}
	.st2{fill:#FFFFFF;}
	.st3{fill:#8EC5D6;}
	.st4{fill:none;stroke:#42BFDD;stroke-width:1.8443;stroke-linecap:round;stroke-miterlimit:10;}
	.st5{fill:#138713;}
	.st6{clip-path:url(#SVGID_2_);}
	.st7{fill:none;stroke:#0A5E0A;stroke-linecap:round;stroke-miterlimit:10;}
	.st8{clip-path:url(#SVGID_4_);}
	.st9{fill:none;stroke:#0A5E0A;stroke-width:2;stroke-linecap:round;stroke-miterlimit:10;}
	.st10{fill:#0A5E0A;}
	.st11{clip-path:url(#SVGID_6_);}
	.st12{clip-path:url(#SVGID_8_);}
	.st13{clip-path:url(#SVGID_10_);}
	.st14{fill:#011264;}
	.st15{fill:none;stroke:#0B2584;stroke-width:0.75;stroke-linecap:round;stroke-linejoin:round;stroke-miterlimit:10;}
	.st16{fill:#EA9D9D;}
	.st17{opacity:0.5;fill:url(#SVGID_11_);}
	.st18{fill:#FFD639;}
	.st19{opacity:0.5;fill:url(#SVGID_12_);}
	.st20{fill:none;stroke:#303D66;stroke-width:15;stroke-linecap:round;stroke-miterlimit:10;}
	.st21{fill:#303D66;}
	.st22{fill:none;stroke:#1A284C;stroke-linecap:round;stroke-miterlimit:10;}
	.st23{fill:#FF66B3;}
	.st24{fill:none;stroke:#D15957;stroke-linecap:round;stroke-miterlimit:10;}
	.st25{fill:#011264;stroke:#011264;stroke-width:0.9076;stroke-linecap:round;stroke-linejoin:round;stroke-miterlimit:10;}
	.st26{fill:none;stroke:#011264;stroke-width:2;stroke-linecap:round;stroke-miterlimit:10;}
	.st27{opacity:0.5;fill:#FFFFFF;}
	.st28{fill:none;stroke:#5681A0;stroke-width:2;stroke-linecap:round;stroke-miterlimit:10;}
	.st29{fill:#891F2E;}
	.st30{fill:#DB4562;}
	.st31{fill:#FE0089;}
	.st32{fill:none;stroke:#101631;stroke-linecap:round;stroke-linejoin:round;stroke-miterlimit:10;}
	.st33{fill:#101631;}
	.st34{fill:none;stroke:#101631;stroke-miterlimit:10;}
	.st35{fill:none;stroke:#101631;stroke-width:2;stroke-linecap:round;stroke-linejoin:round;stroke-miterlimit:10;}
	.st36{fill:none;stroke:#F56D15;stroke-miterlimit:10;}
	.st37{display:inline;fill:#FF66B3;}
	.st38{font-family:'Montserrat-ExtraBold';}
	.st39{font-size:19.8403px;}
</style>
<g id="Background" class="st0">
	<rect class="st1" width="500" height="500"/>
</g>
<g id="Objects">
	<g>
		<ellipse class="st2" cx="230.68" cy="435.49" rx="143.55" ry="21.87"/>
		<path class="st3" d="M219.66,114.12C154.26,151.2,99.41,206.9,63.93,273.22c-12.34,23.06-18.4,57.87-9.91,83.35
			c4.36,13.09,13.4,24.16,23.58,33.47c13.11,12,29.01,21.82,46.64,24.08c35.54,4.55,68.87-21.88,104.67-20.41
			c33.32,1.37,62.69,26.7,96.02,25.54c10.37-0.36,20.48-3.32,30.13-7.15c25.03-9.93,47.92-26.17,63.45-48.16
			c11.81-16.73,19.14-36.88,19.89-57.4c0.84-22.94-9.67-43.54-7.4-66.39c4.44-44.63,21.92-86.52-9.7-125.93
			c-17.89-22.3-45.71-35.78-74.2-38.16c-28.63-2.39-57.16,5.77-83.72,16.72C248.37,98.98,233.77,106.12,219.66,114.12z"/>
		<g>
			<g>
				<ellipse class="st2" cx="158.38" cy="127.58" rx="81.13" ry="58.34"/>
			</g>
			<g>
				<line class="st4" x1="91.59" y1="145.81" x2="51.82" y2="155.83"/>
				<line class="st4" x1="68.65" y1="93.59" x2="56.85" y2="87.83"/>
				<line class="st4" x1="93.7" y1="105.82" x2="79.84" y2="99.05"/>
				<line class="st4" x1="82.99" y1="125.73" x2="67.56" y2="125.9"/>
			</g>
		</g>
		<g>
			<path class="st5" d="M155.39,420.02c-17.05-21.99-22.82-50.7-24.6-78.47c-2.49-38.76,8.27-97.55-26.41-125.05
				c-1.15-0.91-2.46-1.82-3.93-1.8c-3.33,0.06-4.56,4.4-4.54,7.72c0.04,11.13,3.09,22,4.94,32.98c2.87,17.03,1.35,33.66,1.23,50.69
				c-0.07,9.62-0.59,19.26,0.15,28.86c2.28,29.4,16.24,56.44,29.92,82.56C139.42,421.51,147.72,423.17,155.39,420.02z"/>
			<g>
				<defs>
					<path id="SVGID_1_" d="M155.39,420.02c-17.05-21.99-22.82-50.7-24.6-78.47c-2.49-38.76,8.27-97.55-26.41-125.05
						c-1.15-0.91-2.46-1.82-3.93-1.8c-3.33,0.06-4.56,4.4-4.54,7.72c0.04,11.13,3.09,22,4.94,32.98
						c2.87,17.03,1.35,33.66,1.23,50.69c-0.07,9.62-0.59,19.26,0.15,28.86c2.28,29.4,16.24,56.44,29.92,82.56
						C139.42,421.51,147.72,423.17,155.39,420.02z"/>
				</defs>
				<clipPath id="SVGID_2_">
					<use xlink:href="#SVGID_1_"  style="overflow:visible;"/>
				</clipPath>
				<g class="st6">
					<path class="st7" d="M103.44,224.33c11.05,24.74,8.11,53.09,9.42,80.16c1.98,40.79,14.29,81.03,35.47,115.94"/>
					<path class="st7" d="M88.44,245.5c9.11,7.61,17.11,16.53,23.67,26.42"/>
					<path class="st7" d="M112.61,300.14c5.3-15.65,12.05-30.8,20.14-45.21"/>
					<path class="st7" d="M94.44,298.86c5.72,9.11,12.47,17.57,20.08,25.16"/>
					<path class="st7" d="M120.68,353.3c5.51-14.55,9.5-29.68,11.87-45.06"/>
				</g>
			</g>
		</g>
		<g>
			<path class="st5" d="M391.98,387.57c-10.28-26.88-7.38-57.01-0.82-85.03c9.16-39.1,37.43-94.05,11.36-131.67
				c-0.87-1.25-1.88-2.54-3.35-2.96c-3.31-0.94-5.83,2.98-6.81,6.28c-3.3,11.03-3.54,22.7-5,34.12
				c-2.26,17.71-8.76,33.71-13.98,50.53c-2.95,9.5-6.36,18.88-8.5,28.6c-6.56,29.77-0.86,60.72,4.85,90.67
				C375.73,384.25,383.45,388.38,391.98,387.57z"/>
			<g>
				<defs>
					<path id="SVGID_3_" d="M391.98,387.57c-10.28-26.88-7.38-57.01-0.82-85.03c9.16-39.1,37.43-94.05,11.36-131.67
						c-0.87-1.25-1.88-2.54-3.35-2.96c-3.31-0.94-5.83,2.98-6.81,6.28c-3.3,11.03-3.54,22.7-5,34.12
						c-2.26,17.71-8.76,33.71-13.98,50.53c-2.95,9.5-6.36,18.88-8.5,28.6c-6.56,29.77-0.86,60.72,4.85,90.67
						C375.73,384.25,383.45,388.38,391.98,387.57z"/>
				</defs>
				<clipPath id="SVGID_4_">
					<use xlink:href="#SVGID_3_"  style="overflow:visible;"/>
				</clipPath>
				<g class="st8">
					<path class="st7" d="M399.25,178.34c3.51,27.8-7.89,54.97-14.71,82.15c-10.27,40.95-10.16,84.47,0.33,125.37"/>
					<path class="st7" d="M378.07,194.79c6.73,10.26,11.97,21.49,15.5,33.24"/>
					<path class="st7" d="M385.6,256.11c9.94-13.89,21.16-26.87,33.48-38.7"/>
					<path class="st7" d="M368,249.39c2.93,10.73,7.07,21.12,12.33,30.92"/>
					<path class="st7" d="M377.64,311.14c9.82-12.74,18.3-26.52,25.26-41.03"/>
				</g>
			</g>
		</g>
		<g>
			<path class="st9" d="M366.94,131.71c7.28,26.1,0.21,53.71-2.48,80.67c-4.05,40.63,2.2,82.25,18.01,119.9"/>
			<path class="st10" d="M368.78,122.41c0.46,2.09-1.32,12.01-1.32,12.01s-5.79-8.24-6.25-10.34s0.86-4.16,2.95-4.62
				S368.32,120.32,368.78,122.41z"/>
			<path class="st10" d="M379.15,136.84c-1.24,1.75-9.78,7.09-9.78,7.09s2.21-9.83,3.45-11.58c1.24-1.75,3.66-2.16,5.41-0.92
				S380.39,135.09,379.15,136.84z"/>
			<path class="st10" d="M381.12,152.49c-1.63,1.4-11.21,4.51-11.21,4.51s4.52-9,6.15-10.4c1.63-1.4,4.07-1.21,5.47,0.41
				C382.93,148.64,382.75,151.09,381.12,152.49z"/>
			<path class="st10" d="M380.99,168.36c-1.82,1.13-11.76,2.76-11.76,2.76s5.84-8.21,7.66-9.35s4.21-0.58,5.35,1.24
				S382.8,167.22,380.99,168.36z"/>
			<path class="st10" d="M358.04,139.87c1.73,1.27,11.52,3.65,11.52,3.65s-5.19-8.63-6.92-9.9c-1.73-1.27-4.15-0.9-5.42,0.83
				C355.95,136.17,356.32,138.6,358.04,139.87z"/>
			<path class="st10" d="M358.51,154.65c1.84,1.1,11.8,2.57,11.8,2.57s-5.97-8.12-7.81-9.22c-1.84-1.1-4.22-0.51-5.32,1.33
				C356.08,151.16,356.68,153.55,358.51,154.65z"/>
			<path class="st10" d="M357.5,168.54c1.84,1.1,11.8,2.57,11.8,2.57s-5.97-8.11-7.81-9.22c-1.84-1.1-4.22-0.51-5.32,1.33
				C355.06,165.06,355.66,167.44,357.5,168.54z"/>
			<path class="st10" d="M379.72,182.28c-1.82,1.13-11.76,2.76-11.76,2.76s5.84-8.21,7.66-9.35c1.82-1.13,4.21-0.58,5.35,1.24
				C382.1,178.75,381.54,181.15,379.72,182.28z"/>
			<path class="st10" d="M356.23,182.46c1.84,1.1,11.8,2.57,11.8,2.57s-5.97-8.12-7.81-9.22c-1.84-1.1-4.22-0.51-5.32,1.33
				C353.8,178.98,354.4,181.36,356.23,182.46z"/>
			<path class="st10" d="M377.79,197.8c-1.82,1.13-11.76,2.76-11.76,2.76s5.84-8.21,7.66-9.35s4.21-0.58,5.35,1.24
				C380.16,194.27,379.61,196.67,377.79,197.8z"/>
			<path class="st10" d="M354.3,197.98c1.84,1.1,11.8,2.57,11.8,2.57s-5.97-8.11-7.81-9.22c-1.84-1.1-4.22-0.51-5.32,1.33
				C351.87,194.5,352.46,196.88,354.3,197.98z"/>
			<path class="st10" d="M375.77,214.84c-1.82,1.13-11.76,2.76-11.76,2.76s5.84-8.21,7.66-9.35c1.82-1.13,4.21-0.58,5.35,1.24
				S377.59,213.71,375.77,214.84z"/>
			<path class="st10" d="M352.28,215.02c1.84,1.1,11.8,2.57,11.8,2.57s-5.97-8.12-7.81-9.22c-1.84-1.1-4.22-0.51-5.32,1.33
				C349.85,211.54,350.44,213.92,352.28,215.02z"/>
			<path class="st10" d="M374.74,233.28c-1.82,1.13-11.76,2.76-11.76,2.76s5.84-8.21,7.66-9.35s4.21-0.58,5.35,1.24
				C377.11,229.75,376.56,232.14,374.74,233.28z"/>
			<path class="st10" d="M351.25,233.46c1.84,1.1,11.8,2.57,11.8,2.57s-5.97-8.12-7.81-9.22c-1.84-1.1-4.22-0.51-5.32,1.33
				C348.82,229.97,349.41,232.36,351.25,233.46z"/>
			<path class="st10" d="M375.83,253.57c-1.78,1.19-11.67,3.13-11.67,3.13s5.57-8.39,7.35-9.59c1.78-1.19,4.19-0.71,5.38,1.07
				C378.09,249.97,377.61,252.37,375.83,253.57z"/>
			<path class="st10" d="M352.36,254.5c1.87,1.04,11.88,2.19,11.88,2.19s-6.23-7.92-8.1-8.96c-1.87-1.04-4.23-0.37-5.28,1.5
				C349.82,251.09,350.49,253.46,352.36,254.5z"/>
			<path class="st10" d="M377.95,273.13c-1.64,1.37-11.27,4.36-11.27,4.36s4.65-8.94,6.29-10.31c1.64-1.37,4.09-1.15,5.46,0.49
				C379.81,269.31,379.59,271.75,377.95,273.13z"/>
			<path class="st10" d="M354.71,276.55c1.97,0.84,12.05,0.92,12.05,0.92s-7.03-7.21-9-8.05c-1.97-0.84-4.25,0.08-5.09,2.05
				C351.82,273.43,352.74,275.71,354.71,276.55z"/>
			<path class="st10" d="M381.63,292.6c-1.59,1.44-11.09,4.79-11.09,4.79s4.3-9.11,5.89-10.55c1.59-1.44,4.04-1.31,5.48,0.28
				C383.35,288.71,383.22,291.16,381.63,292.6z"/>
			<path class="st10" d="M358.54,296.91c2,0.76,12.07,0.45,12.07,0.45s-7.31-6.94-9.31-7.7c-2-0.76-4.24,0.24-5.01,2.24
				C355.53,293.91,356.54,296.15,358.54,296.91z"/>
			<path class="st10" d="M386.9,311.02c-1.44,1.59-10.57,5.85-10.57,5.85s3.39-9.49,4.83-11.07c1.44-1.59,3.9-1.7,5.48-0.26
				C388.23,306.99,388.35,309.44,386.9,311.02z"/>
			<path class="st10" d="M364.35,317.59c2.07,0.56,12.06-0.74,12.06-0.74s-7.95-6.19-10.02-6.75c-2.07-0.56-4.2,0.66-4.76,2.72
				C361.06,314.89,362.28,317.02,364.35,317.59z"/>
		</g>
		<g>
			<path class="st9" d="M65.39,244.28c17.44,20.73,22.45,48.79,31.18,74.45c13.16,38.66,36.09,73.94,66.09,101.65"/>
			<path class="st10" d="M63.22,235.05c1.29,1.71,3.77,11.48,3.77,11.48s-8.69-5.1-9.97-6.82s-0.94-4.15,0.77-5.43
				C59.5,232.99,61.93,233.34,63.22,235.05z"/>
			<path class="st10" d="M78.63,243.89c-0.4,2.1-5.97,10.51-5.97,10.51s-2.06-9.86-1.66-11.97c0.4-2.1,2.44-3.48,4.54-3.08
				C77.65,239.75,79.03,241.78,78.63,243.89z"/>
			<path class="st10" d="M86.91,257.31c-0.9,1.94-8.33,8.75-8.33,8.75s0.39-10.07,1.29-12.01c0.9-1.94,3.21-2.79,5.15-1.89
				C86.96,253.06,87.81,255.36,86.91,257.31z"/>
			<path class="st10" d="M93.36,271.81c-1.18,1.79-9.56,7.39-9.56,7.39s1.91-9.89,3.09-11.68c1.19-1.79,3.59-2.27,5.38-1.09
				C94.06,267.62,94.55,270.02,93.36,271.81z"/>
			<path class="st10" d="M60.68,255.39c2.1,0.44,11.99-1.45,11.99-1.45s-8.3-5.71-10.4-6.15c-2.1-0.44-4.15,0.9-4.59,3
				C57.24,252.9,58.58,254.95,60.68,255.39z"/>
			<path class="st10" d="M67.23,268.65c2.13,0.24,11.81-2.56,11.81-2.56s-8.8-4.91-10.93-5.15c-2.13-0.24-4.05,1.29-4.3,3.41
				C63.57,266.48,65.1,268.4,67.23,268.65z"/>
			<path class="st10" d="M72.06,281.71c2.13,0.24,11.81-2.56,11.81-2.56s-8.8-4.91-10.93-5.15c-2.13-0.24-4.05,1.29-4.3,3.41
				C68.4,279.55,69.93,281.47,72.06,281.71z"/>
			<path class="st10" d="M97.98,285c-1.18,1.79-9.56,7.39-9.56,7.39s1.91-9.89,3.09-11.68c1.18-1.79,3.59-2.27,5.38-1.09
				C98.68,280.81,99.17,283.22,97.98,285z"/>
			<path class="st10" d="M76.68,294.9c2.13,0.24,11.81-2.56,11.81-2.56s-8.8-4.91-10.93-5.15c-2.13-0.24-4.05,1.29-4.3,3.41
				C73.02,292.74,74.55,294.66,76.68,294.9z"/>
			<path class="st10" d="M102.65,299.93c-1.19,1.79-9.56,7.39-9.56,7.39s1.91-9.89,3.09-11.68c1.18-1.79,3.59-2.27,5.38-1.09
				C103.35,295.74,103.84,298.14,102.65,299.93z"/>
			<path class="st10" d="M81.35,309.83c2.13,0.24,11.81-2.56,11.81-2.56s-8.8-4.91-10.93-5.15c-2.13-0.24-4.05,1.29-4.3,3.41
				C77.69,307.67,79.22,309.59,81.35,309.83z"/>
			<path class="st10" d="M107.88,316.27c-1.19,1.79-9.56,7.39-9.56,7.39s1.91-9.89,3.09-11.68c1.18-1.79,3.59-2.27,5.38-1.09
				C108.57,312.08,109.06,314.49,107.88,316.27z"/>
			<path class="st10" d="M86.58,326.18c2.13,0.24,11.81-2.56,11.81-2.56s-8.8-4.91-10.93-5.15c-2.13-0.24-4.05,1.29-4.3,3.41
				C82.92,324.01,84.45,325.93,86.58,326.18z"/>
			<path class="st10" d="M114.58,333.48c-1.18,1.79-9.56,7.39-9.56,7.39s1.91-9.89,3.09-11.68c1.18-1.79,3.59-2.27,5.38-1.09
				C115.28,329.29,115.77,331.69,114.58,333.48z"/>
			<path class="st10" d="M93.28,343.38c2.13,0.24,11.81-2.56,11.81-2.56s-8.8-4.91-10.93-5.15c-2.13-0.24-4.05,1.29-4.3,3.41
				C89.63,341.22,91.15,343.14,93.28,343.38z"/>
			<path class="st10" d="M123.99,351.49c-1.13,1.82-9.32,7.69-9.32,7.69s1.59-9.95,2.72-11.77c1.13-1.82,3.52-2.39,5.34-1.26
				C124.55,347.28,125.11,349.67,123.99,351.49z"/>
			<path class="st10" d="M103.01,362.07c2.14,0.18,11.72-2.93,11.72-2.93s-8.95-4.63-11.08-4.8c-2.14-0.18-4.01,1.41-4.18,3.55
				S100.88,361.89,103.01,362.07z"/>
			<path class="st10" d="M134.02,368.42c-0.93,1.93-8.45,8.63-8.45,8.63s0.53-10.06,1.45-11.99c0.93-1.93,3.25-2.75,5.18-1.82
				C134.13,364.17,134.94,366.48,134.02,368.42z"/>
			<path class="st10" d="M114.28,381.16c2.14-0.05,11.34-4.16,11.34-4.16s-9.39-3.65-11.53-3.6c-2.14,0.05-3.84,1.83-3.78,3.97
				C110.36,379.52,112.14,381.21,114.28,381.16z"/>
			<path class="st10" d="M145.44,384.61c-0.85,1.97-8.11,8.95-8.11,8.95s0.14-10.07,0.99-12.04c0.85-1.97,3.14-2.87,5.1-2.02
				C145.39,380.36,146.29,382.64,145.44,384.61z"/>
			<path class="st10" d="M126.21,398.11c2.14-0.14,11.17-4.59,11.17-4.59s-9.52-3.29-11.66-3.15c-2.14,0.14-3.76,1.98-3.63,4.12
				C122.23,396.62,124.08,398.24,126.21,398.11z"/>
			<path class="st10" d="M157.88,399.19c-0.66,2.04-7.19,9.71-7.19,9.71s-0.85-10.04-0.2-12.08c0.65-2.04,2.84-3.16,4.88-2.51
				C157.41,394.97,158.53,397.15,157.88,399.19z"/>
			<path class="st10" d="M140.07,414.52c2.11-0.34,10.67-5.67,10.67-5.67s-9.8-2.33-11.92-1.99c-2.12,0.34-3.55,2.34-3.21,4.45
				C135.96,413.42,137.95,414.86,140.07,414.52z"/>
		</g>
		<g>
			<path class="st9" d="M431.21,226.6c-2.25,27-18.49,50.43-30.39,74.77c-17.93,36.69-26.55,77.88-24.83,118.68"/>
			<path class="st10" d="M436.18,218.52c-0.3,2.12-5.42,10.8-5.42,10.8s-2.56-9.74-2.27-11.87c0.3-2.12,2.26-3.6,4.38-3.31
				C434.99,214.44,436.47,216.4,436.18,218.52z"/>
			<path class="st10" d="M440.87,235.66c-1.77,1.21-11.64,3.24-11.64,3.24s5.49-8.44,7.27-9.65s4.18-0.75,5.39,1.02
				C443.1,232.03,442.64,234.45,440.87,235.66z"/>
			<path class="st10" d="M437.28,251.01c-2.01,0.74-12.08,0.33-12.08,0.33s7.37-6.87,9.38-7.61s4.24,0.28,4.99,2.29
				C440.32,248.04,439.29,250.27,437.28,251.01z"/>
			<path class="st10" d="M431.63,265.84c-2.1,0.43-11.99-1.5-11.99-1.5s8.33-5.67,10.43-6.1c2.1-0.43,4.15,0.92,4.58,3.02
				C435.08,263.36,433.73,265.41,431.63,265.84z"/>
			<path class="st10" d="M420.03,231.15c1.18,1.79,9.53,7.43,9.53,7.43s-1.86-9.9-3.04-11.69c-1.18-1.79-3.58-2.29-5.37-1.11
				S418.86,229.36,420.03,231.15z"/>
			<path class="st10" d="M415.33,245.17c1.34,1.67,10.17,6.51,10.17,6.51s-2.77-9.69-4.11-11.36c-1.34-1.67-3.78-1.95-5.45-0.61
				C414.27,241.06,414,243.5,415.33,245.17z"/>
			<path class="st10" d="M409.54,257.84c1.34,1.67,10.17,6.51,10.17,6.51s-2.77-9.69-4.11-11.36c-1.34-1.67-3.78-1.95-5.45-0.61
				C408.48,253.73,408.21,256.17,409.54,257.84z"/>
			<path class="st10" d="M425.6,278.46c-2.1,0.43-11.99-1.5-11.99-1.5s8.33-5.67,10.43-6.1c2.1-0.43,4.15,0.92,4.58,3.02
				C429.06,275.97,427.7,278.03,425.6,278.46z"/>
			<path class="st10" d="M403.52,270.46c1.34,1.67,10.17,6.51,10.17,6.51s-2.77-9.69-4.11-11.36c-1.34-1.67-3.78-1.95-5.45-0.61
				C402.45,266.34,402.18,268.78,403.52,270.46z"/>
			<path class="st10" d="M418.39,292.33c-2.1,0.43-11.99-1.5-11.99-1.5s8.33-5.67,10.43-6.1c2.1-0.43,4.15,0.92,4.58,3.02
				C421.84,289.85,420.49,291.9,418.39,292.33z"/>
			<path class="st10" d="M396.3,284.33c1.34,1.67,10.17,6.51,10.17,6.51s-2.77-9.69-4.11-11.36c-1.34-1.67-3.78-1.95-5.45-0.61
				C395.24,280.22,394.96,282.66,396.3,284.33z"/>
			<path class="st10" d="M410.57,307.6c-2.1,0.43-11.99-1.5-11.99-1.5s8.33-5.67,10.43-6.1c2.1-0.43,4.15,0.92,4.58,3.02
				C414.02,305.12,412.67,307.17,410.57,307.6z"/>
			<path class="st10" d="M388.48,299.6c1.34,1.67,10.17,6.51,10.17,6.51s-2.77-9.69-4.11-11.36c-1.34-1.67-3.78-1.95-5.45-0.61
				C387.41,295.49,387.14,297.93,388.48,299.6z"/>
			<path class="st10" d="M403.19,324.53c-2.1,0.43-11.99-1.5-11.99-1.5s8.33-5.67,10.43-6.1c2.1-0.43,4.15,0.92,4.58,3.02
				C406.64,322.05,405.29,324.1,403.19,324.53z"/>
			<path class="st10" d="M381.1,316.53c1.34,1.67,10.17,6.51,10.17,6.51s-2.77-9.69-4.11-11.36c-1.34-1.67-3.78-1.95-5.45-0.61
				C380.04,312.42,379.77,314.86,381.1,316.53z"/>
			<path class="st10" d="M397.15,343.93c-2.08,0.5-12.03-1.12-12.03-1.12s8.14-5.93,10.23-6.43c2.08-0.5,4.18,0.79,4.67,2.87
				C400.52,341.34,399.24,343.44,397.15,343.93z"/>
			<path class="st10" d="M374.82,336.64c1.39,1.63,10.38,6.19,10.38,6.19s-3.08-9.59-4.47-11.22c-1.39-1.63-3.84-1.82-5.47-0.43
				C373.63,332.56,373.43,335.01,374.82,336.64z"/>
			<path class="st10" d="M392.33,363.01c-2.02,0.72-12.08,0.16-12.08,0.16s7.47-6.76,9.49-7.48c2.02-0.72,4.24,0.34,4.95,2.36
				C395.41,360.07,394.35,362.29,392.33,363.01z"/>
			<path class="st10" d="M369.35,358.13c1.56,1.47,10.97,5.05,10.97,5.05s-4.08-9.21-5.64-10.68c-1.56-1.47-4.01-1.41-5.48,0.15
				C367.73,354.2,367.8,356.66,369.35,358.13z"/>
			<path class="st10" d="M389.01,382.55c-1.99,0.79-12.06,0.63-12.06,0.63s7.2-7.05,9.19-7.84c1.99-0.79,4.25,0.18,5.04,2.17
				C391.97,379.5,391,381.75,389.01,382.55z"/>
			<path class="st10" d="M365.86,378.56c1.61,1.41,11.16,4.62,11.16,4.62s-4.44-9.05-6.05-10.46c-1.61-1.41-4.06-1.25-5.48,0.36
				S364.25,377.15,365.86,378.56z"/>
			<path class="st10" d="M387.54,401.66c-1.9,0.98-11.94,1.81-11.94,1.81s6.48-7.72,8.38-8.7c1.9-0.98,4.24-0.24,5.23,1.66
				C390.19,398.33,389.44,400.67,387.54,401.66z"/>
			<path class="st10" d="M364.11,399.96c1.74,1.25,11.56,3.5,11.56,3.5s-5.3-8.57-7.05-9.81c-1.74-1.25-4.17-0.85-5.41,0.9
				C361.97,396.29,362.37,398.71,364.11,399.96z"/>
		</g>
		<g>
			<path class="st5" d="M395.93,348.91c9.32-18.21,16.02-37.7,25.81-55.67c9.79-17.97,23.36-34.84,42.02-43.24
				c1.44-0.65,3.29-1.18,4.45-0.11c1.08,1,0.83,2.74,0.42,4.15c-2.89,9.87-9.8,17.49-13.89,26.74c-3.98,9.01-6.62,18.98-9.91,28.28
				c-5.9,16.65-11.87,33.43-21.15,48.46c-5.91,9.58-13.25,18.43-22.17,25.37c-5.61,4.37-18.94,15.82-25.85,9.1
				c-6.04-5.87,1.29-12.46,4.72-17.34C386.15,366.45,391.35,357.84,395.93,348.91z"/>
			<g>
				<defs>
					<path id="SVGID_5_" d="M395.93,348.91c9.32-18.21,16.02-37.7,25.81-55.67c9.79-17.97,23.36-34.84,42.02-43.24
						c1.44-0.65,3.29-1.18,4.45-0.11c1.08,1,0.83,2.74,0.42,4.15c-2.89,9.87-9.8,17.49-13.89,26.74
						c-3.98,9.01-6.62,18.98-9.91,28.28c-5.9,16.65-11.87,33.43-21.15,48.46c-5.91,9.58-13.25,18.43-22.17,25.37
						c-5.61,4.37-18.94,15.82-25.85,9.1c-6.04-5.87,1.29-12.46,4.72-17.34C386.15,366.45,391.35,357.84,395.93,348.91z"/>
				</defs>
				<clipPath id="SVGID_6_">
					<use xlink:href="#SVGID_5_"  style="overflow:visible;"/>
				</clipPath>
				<g class="st11">
					<path class="st7" d="M476.03,244.12c-16.49,12.76-28.75,30.34-37.9,49.08c-4.84,9.91-8.87,20.19-13.42,30.25
						c-7.73,17.1-16.94,33.52-27.51,49.03c-5.76,8.46-12.3,16.96-21.56,21.31"/>
					<path class="st7" d="M448.6,254.52c-1.15,8.79-2.57,17.55-4.24,26.25"/>
					<path class="st7" d="M434.76,302.16c10.83-6.6,20.74-14.7,29.38-23.98"/>
					<path class="st7" d="M414.44,289.89c2.41,18.04,2.31,36.41-0.31,54.41"/>
					<path class="st7" d="M406.49,358.31c15.66-14.67,30.22-30.5,43.53-47.33"/>
				</g>
			</g>
		</g>
		<g>
			<path class="st5" d="M151.55,361.2c-3.41-19.61-9.61-38.68-12.51-58.38c-2.9-19.69-2.23-40.75,7.36-58.2
				c0.74-1.34,1.87-2.85,3.39-2.69c1.42,0.14,2.25,1.64,2.75,2.98c3.53,9.37,2.61,19.33,4.85,28.91c2.18,9.33,5.96,18.63,8.84,27.78
				c5.15,16.39,10.34,32.94,11.92,50.05c1.01,10.91,0.49,22.08-2.39,32.69c-1.81,6.68-5.47,23.38-14.76,22.2
				c-8.13-1.03-6.29-10.44-6.48-16.24C154.22,380.55,153.22,370.82,151.55,361.2z"/>
			<g>
				<defs>
					<path id="SVGID_7_" d="M151.55,361.2c-3.41-19.61-9.61-38.68-12.51-58.38c-2.9-19.69-2.23-40.75,7.36-58.2
						c0.74-1.34,1.87-2.85,3.39-2.69c1.42,0.14,2.25,1.64,2.75,2.98c3.53,9.37,2.61,19.33,4.85,28.91
						c2.18,9.33,5.96,18.63,8.84,27.78c5.15,16.39,10.34,32.94,11.92,50.05c1.01,10.91,0.49,22.08-2.39,32.69
						c-1.81,6.68-5.47,23.38-14.76,22.2c-8.13-1.03-6.29-10.44-6.48-16.24C154.22,380.55,153.22,370.82,151.55,361.2z"/>
				</defs>
				<clipPath id="SVGID_8_">
					<use xlink:href="#SVGID_7_"  style="overflow:visible;"/>
				</clipPath>
				<g class="st12">
					<path class="st7" d="M152.5,232.88c-5.35,19.57-4.6,40.41-0.74,60.33c2.04,10.54,4.92,20.89,7.27,31.36
						c4,17.81,6.45,35.97,7.31,54.21c0.47,9.94,0.36,20.38-4.29,29.18"/>
					<path class="st7" d="M137.26,257c4.25,7.51,8.27,15.14,12.07,22.89"/>
					<path class="st7" d="M154.38,302.14c4.55-11.47,7.52-23.56,8.81-35.84"/>
					<path class="st7" d="M131.41,304.49c12.43,12.61,23.1,26.95,31.6,42.48"/>
					<path class="st7" d="M165.26,362.33c3.59-20.56,5.65-41.4,6.14-62.26"/>
				</g>
			</g>
		</g>
		<g>
			<path class="st5" d="M66.75,339.98c-1.05-4.58-1.9-9.25-1.84-13.95c0.03-1.94,0.48-4.27,2.29-4.97c1.62-0.62,3.37,0.46,4.66,1.62
				c4.86,4.37,7.75,10.45,10.95,16.15c7.29,12.99,16.76,24.76,27.88,34.68c8.65,7.71,42.93,37.91,17.18,46.66
				c-21.23,7.21-37.21-23.57-45.11-38.04C75.54,368.9,70.1,354.68,66.75,339.98z"/>
			<g>
				<defs>
					<path id="SVGID_9_" d="M66.75,339.98c-1.05-4.58-1.9-9.25-1.84-13.95c0.03-1.94,0.48-4.27,2.29-4.97
						c1.62-0.62,3.37,0.46,4.66,1.62c4.86,4.37,7.75,10.45,10.95,16.15c7.29,12.99,16.76,24.76,27.88,34.68
						c8.65,7.71,42.93,37.91,17.18,46.66c-21.23,7.21-37.21-23.57-45.11-38.04C75.54,368.9,70.1,354.68,66.75,339.98z"/>
				</defs>
				<clipPath id="SVGID_10_">
					<use xlink:href="#SVGID_9_"  style="overflow:visible;"/>
				</clipPath>
				<g class="st13">
					<path class="st7" d="M70.48,330.09c13.64,32.53,31.48,64.45,59.03,86.47"/>
					<path class="st7" d="M65.63,347.02c5.8,4.57,11.93,8.73,18.31,12.45"/>
					<path class="st7" d="M90.24,369.27c0.64-10.46-0.44-21.03-3.18-31.14"/>
					<path class="st7" d="M74.68,375.46c8.8,5.82,18.38,10.44,28.41,13.71"/>
				</g>
			</g>
		</g>
		<g>
			<path class="st14" d="M282.77,103.95c0,0-16.2-20.1-43.58-7.79c-27.37,12.32-46.2,41.26-45.05,77.47
				c0.45,13.97-0.64,28-7.31,40.71c-2.64,5.03-6.07,9.61-8.89,14.55c-7.29,12.79-10.24,28.42-6.14,42.56
				c3.09,10.65,10.49,20.21,20.32,25.45c11.3,6.02,27.05,4.94,39.59,5.76c25.45,1.66,50.95,1.88,76.45,1.55
				c7.03-0.09,14.07-0.24,21.1-0.24c22.97,0,46.54-17.17,50.71-33.5c4.17-16.33-4.45-33.19-27.92-50.29
				c-23.47-17.1-21.38-57.04-27.6-80.87C318.85,117.86,302.3,99.79,282.77,103.95z"/>
			<path class="st15" d="M320.96,190.8c2.08,11.48,9.11,21.46,17,30.04c7.89,8.59,16.84,16.22,24.06,25.38
				c7.22,9.16,12.74,20.35,12.18,32"/>
			<path class="st15" d="M278.2,112.49c0,0,19.8,0,32.86,26.5c11.98,24.31,4.73,54.83,17.01,78.99
				c4.44,8.73,11.16,16.07,18.05,23.04c8.19,8.29,17.28,17.33,18.22,28.95"/>
			<path class="st16" d="M302.62,194.04c0,0-2.13,38.92,11.82,53.08c13.95,14.15,46.25,29.09,46.25,29.09s-40.43,44.68-72.4,44.68
				c-31.97,0-57.6-37.02-57.6-37.02s34.63-14.73,33.79-34.43L302.62,194.04z"/>
			<linearGradient id="SVGID_11_" gradientUnits="userSpaceOnUse" x1="323.4334" y1="263.1927" x2="273.3158" y2="253.6197">
				<stop  offset="6.138390e-03" style="stop-color:#FFFFFF;stop-opacity:0"/>
				<stop  offset="1" style="stop-color:#71008D"/>
			</linearGradient>
			<path class="st17" d="M302.62,194.04c0,0-2.13,38.92,11.82,53.08c13.95,14.15,46.25,29.09,46.25,29.09s-40.43,44.68-72.4,44.68
				c-31.97,0-57.6-37.02-57.6-37.02s34.63-14.73,33.79-34.43L302.62,194.04z"/>
			<path class="st16" d="M221.11,136.84c-0.61,0.85-21.67,31.59-1.41,68.09c20.26,36.5,44.81,51.96,60.88,44.04
				c16.07-7.92,28.55-44.14,20.35-85.81C292.73,121.49,245.92,102.3,221.11,136.84z"/>
			<path class="st18" d="M326.2,255.59c0,0-2.96,21.64-30.51,36.75l-7.73,21.68l-9.99-20.89c0,0-20.19-9.3-28.81-20.01
				c0,0-31.46,16.72-41.86,24.55c-10.4,7.82-16.16,21.88-20.04,49.48l38.84,8.45c0,0-4.57,15.21-1.54,21.69
				c3.03,6.48,24.59,46.47,24.59,46.47h110.69l-6.98-77.34c0,0,41.11-4.03,54.67-6.7c0,0-3.85-40.12-15.78-56.82
				C385.22,273.73,326.2,255.59,326.2,255.59z"/>
			<linearGradient id="SVGID_12_" gradientUnits="userSpaceOnUse" x1="357.717" y1="334.8972" x2="207.3644" y2="369.2475">
				<stop  offset="6.138390e-03" style="stop-color:#FFFFFF;stop-opacity:0"/>
				<stop  offset="1" style="stop-color:#71008D"/>
			</linearGradient>
			<path class="st19" d="M359.85,423.74l-3.59-39.81c-4.12,4.83-18.01,10.1-31.91,10.1c-9.22,0-18.96-0.79-27.11-5.91
				c-9.27-5.82-21.03-5.4-29.92,1c-2.45,1.76-5.01,3.34-7.72,4.69l-0.07,0.03c-2.42,1.2-5-1.25-3.96-3.74
				c7.76-18.57,10.83-39.52,7.54-58.4c14.77-17.46,20.84-41.94,15.94-64.28c-10.06-2.74-22.3,0.29-31.19,5.73
				c-8.89,5.44-15.98,13.36-22.38,21.59c-8.89,11.41-16.86,23.93-20.35,37.97c-2.78,11.2-2.6,23.02-0.38,34.34
				c3.87,19.75,18.33,38.23,34.12,50.7c1.45-1.71,2.85-3.5,4.19-5.34c3.5,6.54,6.09,11.33,6.09,11.33H359.85z"/>
			<path class="st20" d="M102.47,298.79c6.81-3.02,15.37-4.04,21.26,0.51c4.14,3.2,6.13,8.63,6.16,13.86
				c0.04,5.24-1.64,10.33-3.7,15.15c-2.06,4.81-4.51,9.47-6.16,14.44c-2.83,8.54-3.16,17.88-0.94,26.6
				c1.51,5.92,4.23,11.63,8.49,16.01c4.26,4.38,10.16,7.33,16.28,7.35"/>
			<g>
				<path class="st21" d="M201.93,286.74c0,0-67.06,15.32-77.43,77.28c-8.12,48.48,19.65,69.57,32.11,76.45
					c3.28,1.81,6.97,2.73,10.71,2.73h26.82c1.58,0,2.88-1.29,2.84-2.86c-0.07-2.85-1.06-7.09-5.91-9.13c0,0,9.49,0,45.57-0.39
					c0,0,19.84-72.38,10.45-118.7L201.93,286.74z"/>
				<path class="st22" d="M160.46,354.2c0,0,31.68,4.6,24.9,45.09c-0.78,4.68-4.47,20.64-5.65,25.69c-0.23,1-0.09,2.04,0.41,2.95
					l0,0c0.78,1.42,2.3,2.26,3.92,2.15c2.05-0.13,5.46-0.34,9.04,2.21"/>
				<path class="st22" d="M238.76,326.94c2.29,8.24,2.55,17.03,0.74,25.39"/>
				<path class="st22" d="M235.36,342.05c3.4,5.95,4.5,13.16,3.04,19.85"/>
				<path class="st22" d="M238.72,363.38c-0.4-2.92-1.82-5.7-3.96-7.74c0.5,9.02-2.11,17.91-4.18,21.83"/>
				<path class="st22" d="M190.85,436.63c1.23,2.05,1.81,4.49,1.62,6.88"/>
				<path class="st22" d="M185.89,436.63c1.23,2.05,1.81,4.49,1.62,6.88"/>
			</g>
			<path class="st23" d="M248.03,317.17c0.55-1.3,1.57-3.42,1.23-5.07l-48.52-28.24c0,0,0,0-4.36,4.47
				c3.56,12.03,13.2,22.06,26.5,26.95C231.38,318.41,240.1,318.96,248.03,317.17z"/>
			<path class="st14" d="M264.88,132.98c0,0-2.76,31.55-16.37,42.9c-13.6,11.35-11.6-14.88-11.6-14.88s-8.46,22.08-21.28,33.87
				c-12.82,11.79-15.54-39.17,2.15-58.04c17.69-18.86,32.48-23.5,49.16-18.79c16.68,4.71,32.54,25.91,38,40.75s-3.12,9.39-3.12,9.39
				S282.46,159.54,264.88,132.98z"/>
			<path class="st15" d="M290.67,138.21c7.71,7.03,13.64,16.01,17.07,25.87c5.37,15.4,4.58,32.18,6.88,48.33
				c2.53,17.68,9.49,35.68,23.62,46.6"/>
			<path class="st15" d="M269.74,123.74c9.74,20.43,23.25,31.67,37.13,40.85"/>
			<path class="st24" d="M247.88,185.61c2.71,8.55,6.16,16.86,10.28,24.82c0.41,0.79,0.86,1.62,1.59,2.13
				c0.73,0.51,1.84,0.6,2.46-0.04c0.38-0.4,0.5-0.97,0.58-1.51c0.37-2.37,0.41-4.8,0.12-7.19"/>
			<path class="st25" d="M271.56,187.59c0,0-6.32-10.79-1.37-12.87c4.95-2.08,9.19,8.9,9.19,8.9l2.52-5.22l-2.15,0.9
				c0,0-4.77-8.39-9.73-6.31C265.07,175.07,267.9,183.17,271.56,187.59z"/>
			<path class="st25" d="M240.54,199.68c0,0-4.67-11.6-9.34-8.96c-4.67,2.64,1.42,12.72,1.42,12.72l-5.67-1.2l2.02-1.15
				c0,0-3.71-8.91,0.96-11.56C234.61,186.89,239.28,194.08,240.54,199.68z"/>
			<path class="st26" d="M260.41,161.21c0,0,8.87-13.46,27.23-6.67"/>
			<path class="st26" d="M208.78,183.71c0,0,6.88-14.58,26.01-10.45"/>
			<path class="st15" d="M216.51,173.95c-2.5,11.93-5.02,24.07-3.91,36.21c1.11,12.14,6.41,24.49,16.56,31.23"/>
			<path class="st23" d="M295.04,197.47c1.31,2.97-1.15,6.92-5.48,8.83s-8.9,1.04-10.21-1.93c-1.31-2.97,1.15-6.92,5.48-8.83
				C289.17,193.63,293.74,194.49,295.04,197.47z"/>
			
				<ellipse transform="matrix(0.9155 -0.4024 0.4024 0.9155 -68.0263 116.542)" class="st23" cx="243.37" cy="220.18" rx="8.57" ry="5.88"/>
			<g>
				<g>
					<path class="st27" d="M292.11,183.19c3.22,7.65,1.3,18.19-9.58,22.77c-10.54,4.43-19.76-1.42-22.98-9.07
						c-3.22-7.65,2.33-14.86,11.32-18.64C279.87,174.46,288.89,175.54,292.11,183.19z"/>
					<path class="st28" d="M292.11,183.19c3.22,7.65,1.3,18.19-9.58,22.77c-10.54,4.43-19.76-1.42-22.98-9.07
						c-3.22-7.65,2.33-14.86,11.32-18.64C279.87,174.46,288.89,175.54,292.11,183.19z"/>
				</g>
				<g>
					<path class="st27" d="M250.26,200.8c3.22,7.65,1.3,18.19-9.58,22.77c-10.54,4.43-19.76-1.42-22.98-9.07
						c-3.22-7.65,2.33-14.86,11.32-18.64C238.01,192.07,247.04,193.14,250.26,200.8z"/>
					<path class="st28" d="M250.26,200.8c3.22,7.65,1.3,18.19-9.58,22.77c-10.54,4.43-19.76-1.42-22.98-9.07
						c-3.22-7.65,2.33-14.86,11.32-18.64C238.01,192.07,247.04,193.14,250.26,200.8z"/>
				</g>
				<path class="st28" d="M250.26,200.8c0,0,2.32-6.75,9.29-3.91"/>
			</g>
			<line class="st28" x1="290.81" y1="180.85" x2="305.2" y2="166.32"/>
			<g>
				<path class="st16" d="M300.7,175.35c0,0-0.58-15.24,11.99-15.24c12.37,0,9,35.08-11.99,34.81L300.7,175.35z"/>
				<path class="st24" d="M313.51,166.32c0,0-12.3,4.06-4.9,19.17"/>
				<path class="st24" d="M306.67,173.51c0,0,6.88-0.76,5.03,7.66"/>
			</g>
			<g>
				<path class="st29" d="M274.96,236.95c-3.75,2-7.31,0.89-10.36-1.4c-5.77-4.35-9.74-12.94-9.74-12.94l20.5-10.4
					c0,0,1.78,3.24,3.1,7.44C280.35,225.63,281.32,233.56,274.96,236.95z"/>
				<path class="st2" d="M261,225.49c5.96-2.44,16.66-7.69,14.36-13.28l-20.51,10.4l0.48,0.87
					C256.44,225.49,258.88,226.36,261,225.49z"/>
				<path class="st30" d="M274.96,236.95c-3.75,2-7.31,0.89-10.36-1.4c1.6-6.71,6.4-12.67,12.74-15.45
					c0.37-0.16,0.74-0.32,1.12-0.45C280.35,225.63,281.32,233.56,274.96,236.95z"/>
			</g>
			<path class="st16" d="M402.12,340.63l4.84,73.77c1.7,26.3-20.01,48.14-46.32,46.58c-35.4-2.09-81.97-7.04-112.29-18.74
				c0,0-31.63,1.06-41.33-15.84c0,0-6.85-1.88-12.65-2.67c-5.81-0.79-9.58-0.87-9.01-5.64c0.29-2.39,15.9-1.09,15.9-1.09
				s-8.7-2.43-14.06-3.21c-5.35-0.77-7.85-3.14-7.85-6.4c0-2.4,19.39-0.17,23.19,1.04c3.8,1.21-19.35-2.47-21.07-7.33
				c-0.61-1.74,0.51-3.19,1.36-3.19c0.85,0,21.54,1.31,24.92,2.29c0,0-22.83-4.81-19.96-12.53c0.68-1.83,21.42,3.42,23.58,4.11
				c2.16,0.68,15.03,7.49,15.03,7.49s-16.95-11.6-9.53-16.66c1.44-0.99,10.55,4.66,14.23,6.34c3.68,1.68,24.06,21.67,26.68,26.46
				c0,0,65.34-6.17,100.92-5.27l-5.83-63.76L402.12,340.63z"/>
			<g>
				<g>
					<g>
						<path class="st21" d="M272.92,259.06l21.66-7.05c0,0,5.6,20.34-17.13,30.68L272.92,259.06z"/>
						<path class="st31" d="M275.9,278.45c7.51-3.53,12.55-10.59,13.67-18.81c-2.1,1.6-4.5,2.79-7.12,3.07
							c0.52,0.68,1.03,1.67,0.46,2.31c-0.51,0.57-1.44,0.32-2.11-0.05c-0.84-0.46-1.65-0.52-2.34-1.19
							c0.84,0.99,1.69,2.18,1.52,3.47c-0.06,0.44-0.26,0.89-0.66,1.09c-0.5,0.25-1.09,0.01-1.59-0.23
							c-1.38-0.65-2.76-1.31-4.14-1.96C273.9,270.33,275.7,274.26,275.9,278.45z"/>
					</g>
					<g>
						<path class="st21" d="M221.57,240.17l-11.93-19.41c0,0-17.45,11.86-6.84,34.47L221.57,240.17z"/>
						<path class="st31" d="M206.73,253.01c-3.43-7.55-2.7-16.2,1.78-23.19c0.56,2.58,1.61,5.04,3.43,6.95
							c-0.84,0.18-1.87,0.6-1.85,1.46c0.02,0.76,0.89,1.17,1.64,1.33c0.93,0.2,1.6,0.67,2.55,0.61c-1.28,0.21-2.7,0.56-3.41,1.65
							c-0.24,0.37-0.38,0.85-0.21,1.25c0.22,0.51,0.82,0.71,1.36,0.86c1.47,0.4,2.95,0.79,4.42,1.19
							C213.52,248.12,209.6,249.94,206.73,253.01z"/>
					</g>
				</g>
				<path class="st21" d="M277.17,288.57c-7.92,21.53-30.87,30.06-52.4,22.14c-21.53-7.92-33.48-29.29-25.56-50.82
					c7.92-21.53,29.54-26.45,51.07-18.53C271.81,249.28,285.08,267.04,277.17,288.57z"/>
				<g>
					<path class="st32" d="M234.1,285.34c0,0-3.77,9.06-13.22,5.58"/>
					<path class="st32" d="M234.1,285.34c0,0-3,9.34,6.45,12.82"/>
				</g>
				<path class="st33" d="M233.02,285.35l-1.29-4.16c-0.31-1.01,0.67-1.94,1.66-1.57l4.97,1.83c0.99,0.36,1.13,1.71,0.24,2.27
					l-3.68,2.33C234.21,286.49,233.27,286.15,233.02,285.35z"/>
				<g>
					<g>
						<g>
							<path class="st33" d="M222.86,280.6c-0.17,0.47-0.7,0.72-1.17,0.54c-0.47-0.17-0.72-0.7-0.54-1.17
								c0.17-0.47,0.7-0.72,1.17-0.54C222.79,279.6,223.03,280.12,222.86,280.6z"/>
							<path class="st34" d="M222,280.28c0,0-9.94-14.99-29.65-22.24"/>
						</g>
						<g>
							<path class="st33" d="M220.57,286.82c-0.17,0.47-0.7,0.72-1.17,0.54c-0.47-0.17-0.72-0.7-0.54-1.17
								c0.17-0.47,0.7-0.72,1.17-0.54C220.5,285.83,220.74,286.35,220.57,286.82z"/>
							<path class="st34" d="M219.92,286.68c0,0-15.01-9.91-35.98-8.88"/>
						</g>
						<g>
							<path class="st33" d="M225.43,286.14c-0.17,0.47-0.7,0.72-1.17,0.54c-0.47-0.17-0.72-0.7-0.54-1.17
								c0.17-0.47,0.7-0.72,1.17-0.54C225.36,285.14,225.6,285.67,225.43,286.14z"/>
							<path class="st34" d="M224.57,285.83c0,0-16.85-14.16-32.28-16.24"/>
						</g>
					</g>
					<g>
						<g>
							<path class="st33" d="M245.74,289.01c-0.17,0.47,0.07,1,0.54,1.17c0.47,0.17,1-0.07,1.17-0.54c0.17-0.47-0.07-1-0.54-1.17
								C246.44,288.3,245.91,288.54,245.74,289.01z"/>
							<path class="st34" d="M246.59,289.33c0,0,17.29-4.97,36.99,2.28"/>
						</g>
						<g>
							<path class="st33" d="M243.44,295.24c-0.17,0.47,0.07,1,0.54,1.17c0.47,0.17,1-0.07,1.17-0.54c0.17-0.47-0.07-1-0.54-1.17
								C244.14,294.53,243.62,294.77,243.44,295.24z"/>
							<path class="st34" d="M244.03,295.55c0,0,17.86,2.18,33.16,16.55"/>
						</g>
						<g>
							<path class="st33" d="M240.19,291.57c-0.17,0.47,0.07,1,0.54,1.17c0.47,0.17,1-0.07,1.17-0.54c0.17-0.47-0.07-1-0.54-1.17
								C240.88,290.86,240.36,291.1,240.19,291.57z"/>
							<path class="st34" d="M241.04,291.89c0,0,22.01,0.13,35.11,8.55"/>
						</g>
					</g>
				</g>
				<g>
					<path class="st35" d="M248.75,278.09c0,0,2.85-6.41,5.79-5.32c2.94,1.08,1.07,7.8,1.07,7.8"/>
					<g>
						<path class="st33" d="M229.51,267.29c-0.76,2.07-3.06,3.14-5.14,2.37s-3.14-3.06-2.37-5.14c0.76-2.07,3.06-3.14,5.14-2.37
							C229.21,262.92,230.28,265.22,229.51,267.29z"/>
						<path class="st2" d="M226.02,265.19c-0.25,0.69-1.02,1.05-1.71,0.79c-0.69-0.25-1.05-1.02-0.79-1.71
							c0.25-0.69,1.02-1.05,1.71-0.79C225.92,263.73,226.28,264.5,226.02,265.19z"/>
					</g>
				</g>
			</g>
			<g>
				<path class="st21" d="M187.77,319.14c0,0-12.32,33.7,4.41,49.88c17.93,17.35,33.5,29.43,42.02,24.07
					c4.99-3.14,2.04-11.85-5.81-17.31c-4.52-3.14-21.32-19.52-14.44-31.91"/>
				<path class="st22" d="M235.48,391.96c3.06-3.76,0.75-10.73-7.09-16.18c-4.52-3.14-21.32-19.52-14.44-31.91"/>
				<path class="st22" d="M187.77,319.14c0,0-12.32,33.7,4.41,49.88c8.77,8.49,16.98,15.71,24.07,20.25"/>
				<path class="st22" d="M227.42,387.15c1.23,2.05,1.81,4.49,1.62,6.88"/>
				<path class="st22" d="M231.92,385.42c2.1,1.47,3.32,4.13,3.06,6.68"/>
			</g>
			<path class="st33" d="M224.15,314.99c0,2.29-1.86,4.14-4.14,4.14c-2.29,0-4.14-1.86-4.14-4.14c0-2.29,1.86-4.14,4.14-4.14
				C222.29,310.85,224.15,312.7,224.15,314.99z"/>
			<path class="st16" d="M137.09,423.93c0,0-0.05-4.44-1.8-8.84c-1.74-4.4,10.14-15.97,7.73-23.13
				c-0.84-2.48-12.68,11.43-12.68,11.43s5.79-13.54,7.59-15.98c1.81-2.44,10.44-14.37,6.17-19.5c-1.73-2.08-13.01,13.5-13.01,13.5
				l-5.14,9.7c0,0,5.53-14.52,7.03-17.56c1.5-3.04,11.44-10.7,9.98-20.42c-0.41-2.7-13.77,11.15-15.16,13.42
				c-1.39,2.28-7.83,12.66-7.83,12.66s8.47-15.05,10.36-18.35c1.89-3.3,7.34-11.95,2.29-16.06c-1.96-1.59-17.58,27.31-18.68,30.65
				c-1.09,3.34-2.81,23.08,3.04,36.19C122.85,424.76,137.09,423.93,137.09,423.93z"/>
			<path class="st36" d="M369.98,279.15c-7.03,3.43-11.93,10.29-14.52,17.66c-2.59,7.38-3.11,15.31-3.27,23.13
				c-0.19,9.36,0.1,18.73,0.87,28.05"/>
			<path class="st24" d="M358.69,410.16c0,0,10.43,0.65,18.69,2.28"/>
			<line class="st24" x1="193.06" y1="406.79" x2="215.5" y2="410.36"/>
			<line class="st24" x1="205.43" y1="399.67" x2="217.45" y2="401.86"/>
			<line class="st24" x1="201.25" y1="417.01" x2="213.56" y2="418.76"/>
			<path class="st24" d="M221.67,400.84"/>
			<path class="st15" d="M273.76,117.93c4.47,0.2,8.79,1.7,12.81,3.67c15.23,7.46,26.77,22.06,30.5,38.6"/>
			<path class="st15" d="M273.44,117.91c-11.87-17.56-37.71-8.12-50.22,3.74c-10.33,9.8-16.47,23.44-19.09,37.44
				c-1.45,7.7-1.39,15.64-3.02,23.39c-1.84,8.68-4.53,17.18-8.05,25.32c-3.21,7.43-7.1,14.6-9.61,22.29
				c-3.59,10.99-4.21,23.16-0.39,34.07c3.82,10.91,12.39,20.36,23.36,23.99"/>
			<path class="st15" d="M261.49,128.37c-0.15,18.25-6.96,36.38-18.87,50.21"/>
			<path class="st15" d="M269.72,106.28c-6.27-6.47-15.65-9.39-24.65-8.97c-3.89,0.18-7.71,0.94-11.42,2.12"/>
			<path class="st15" d="M236.91,112.49c-13.7,9.16-17.19,16.44-21.4,25.12c-8.32,17.17-5.24,37.54-9.25,56.19
				c-2.45,11.39-7.53,22-11.71,32.87c-4.18,10.87-7.54,22.44-6.31,34.03c1.24,11.58,7.96,23.19,18.85,27.31"/>
			<path class="st15" d="M235.16,138.23c-2.59,21.4-10.36,42.16-22.45,60"/>
		</g>
		<text transform="matrix(1 0 0 1 120.782 114.3212)" class="st0"><tspan x="0" y="0" class="st37 st38 st39">ADOPT,</tspan><tspan x="5.32" y="23.81" class="st37 st38 st39">DON’T</tspan><tspan x="9.29" y="47.62" class="st37 st38 st39">SHOP</tspan></text>
		<circle class="st2" cx="380.33" cy="86.81" r="13.23"/>
		
			<ellipse transform="matrix(0.9251 -0.3796 0.3796 0.9251 -110.0264 41.4402)" class="st2" cx="50.07" cy="299.71" rx="13.23" ry="13.23"/>
		<path class="st2" d="M54.05,268.12c0,2.79-2.26,5.05-5.05,5.05c-2.79,0-5.05-2.26-5.05-5.05c0-2.79,2.26-5.05,5.05-5.05
			C51.79,263.07,54.05,265.33,54.05,268.12z"/>
		<path class="st2" d="M145.04,225.1c0,2.79-2.26,5.05-5.05,5.05c-2.79,0-5.05-2.26-5.05-5.05c0-2.79,2.26-5.05,5.05-5.05
			C142.78,220.05,145.04,222.31,145.04,225.1z"/>
		<path class="st2" d="M429.53,178.11c0,2.79-2.26,5.05-5.05,5.05c-2.79,0-5.05-2.26-5.05-5.05c0-2.79,2.26-5.05,5.05-5.05
			C427.26,173.06,429.53,175.32,429.53,178.11z"/>
		<path class="st2" d="M343.3,148.15c0,2.79-2.26,5.05-5.05,5.05c-2.79,0-5.05-2.26-5.05-5.05c0-2.79,2.26-5.05,5.05-5.05
			C341.04,143.1,343.3,145.36,343.3,148.15z"/>
		<path class="st2" d="M409.66,157.22c0,1.76-1.43,3.19-3.19,3.19s-3.19-1.43-3.19-3.19s1.43-3.19,3.19-3.19
			S409.66,155.46,409.66,157.22z"/>
		<path class="st2" d="M423.18,128.37c0,1.76-1.43,3.19-3.19,3.19s-3.19-1.43-3.19-3.19c0-1.76,1.43-3.19,3.19-3.19
			S423.18,126.61,423.18,128.37z"/>
		<path class="st2" d="M173.13,207.49c0,1.76-1.43,3.19-3.19,3.19c-1.76,0-3.19-1.43-3.19-3.19c0-1.76,1.43-3.19,3.19-3.19
			C171.71,204.3,173.13,205.73,173.13,207.49z"/>
	</g>
</g>
</svg>
