<?xml version="1.0" encoding="utf-8"?>
<!-- Generator: Adobe Illustrator 23.0.3, SVG Export Plug-In . SVG Version: 6.00 Build 0)  -->
<svg version="1.1" xmlns="http://www.w3.org/2000/svg" xmlns:xlink="http://www.w3.org/1999/xlink" x="0px" y="0px"
	 viewBox="0 0 750 500" style="enable-background:new 0 0 750 500;" xml:space="preserve">
<style type="text/css">
	.st0{opacity:0.3;fill:#92FFFF;}
	.st1{fill:#FFFFFF;}
	.st2{fill:#CCE561;}
	.st3{opacity:0.5;}
	.st4{fill:#5ABA47;}
	.st5{opacity:0.5;fill:#5ABA47;}
	.st6{fill:#E65455;}
	.st7{fill:#F4CA42;}
	.st8{fill:#FFB6C4;}
	.st9{fill:#F9920B;}
	.st10{opacity:0.7;}
	.st11{fill:#DD6514;}
	.st12{fill:#AF3D04;}
	.st13{opacity:0.4;}
	.st14{fill:#FF761A;}
	.st15{fill:#FEB89E;}
	.st16{fill:#FC9E81;}
	.st17{fill:#AA5276;}
	.st18{fill:#7B324F;}
	.st19{fill:#FFB81A;}
	.st20{fill:#F9A435;}
	.st21{fill:#29710B;}
	.st22{fill:#1E4C08;}
	.st23{fill:#8C6D3B;}
	.st24{fill:#F97369;}
	.st25{fill:#FF928D;}
	.st26{fill:#E58B73;}
	.st27{fill:#FFC931;}
	.st28{fill:#EEA030;}
	.st29{opacity:0.5;fill:#EEA030;}
	.st30{opacity:0.5;fill:#AA5276;}
	.st31{opacity:0.5;fill:#420914;}
	.st32{fill:#4D0B14;}
	.st33{opacity:0.5;fill:#4D0B14;}
	.st34{opacity:0.4;fill:#5A2C41;}
	.st35{opacity:0.2;fill:#FFFFFF;}
	.st36{fill:#F1CF33;}
	.st37{opacity:0.6;fill:#7B324F;}
	.st38{opacity:0.6;}
	.st39{fill:#1AAD9D;}
	.st40{fill:#0C8E85;}
	.st41{fill:#F65769;}
	.st42{fill:#5A452A;}
	.st43{fill:#AA8953;}
	.st44{opacity:0.5;fill:#5A452A;}
	.st45{fill:#AAECEA;}
	.st46{fill:#71D1CF;}
	.st47{fill:#420914;}
	.st48{fill:#84A6D4;}
	.st49{fill:#628FB7;}
	.st50{fill:#406AA4;}
	.st51{fill:#92BBE8;}
	.st52{fill:#FC9081;}
	.st53{fill:#EBE9DC;}
	.st54{fill:#D8D5CB;}
	.st55{fill:#FFCEB6;}
	.st56{fill:#2D060D;}
	.st57{fill:#84142D;}
	.st58{display:none;}
	.st59{display:inline;fill:#F5566B;}
	.st60{font-family:'LuckiestGuy-Regular';}
	.st61{font-size:50px;}
	.st62{font-size:22.5928px;}
</style>
<g id="BACKGROUND">
	<g>
		<g>
			<path class="st0" d="M678.84,309.82c0-161.6-131.01-292.61-292.61-292.61c-161.6,0-292.61,131.01-292.61,292.61
				c0,41.34,8.59,80.67,24.06,116.32h537.11C670.25,390.48,678.84,351.16,678.84,309.82z"/>
		</g>
		<path class="st1" d="M569.58,190.03c-3.89-9.53-15.48-13.06-26.21-14.01c-14.5-1.28-28.35,4.7-36.05,16.26
			c-4.78-1.2-10.02-1.45-13.49-1.59c-11.95-0.49-29.68,0.23-38.76,9.29c-1.8,1.8-2.19,5.5,0,7.23c13.22,10.47,30.65,7.84,46.46,4.81
			c0.11,8.32,9.18,12.16,19.42,12.17c15.27,0.03,30.78-4.33,41.42-15.28c14.29,11.98,45.69,19.22,48.17-5.86
			C613.05,177.79,585.26,179.17,569.58,190.03z"/>
		<path class="st1" d="M232.63,84.71c-4.16-10.07-13.39-17.11-25.4-16.67c-11.27,0.42-17.7,7.83-20,17.04
			C176.39,74,160.77,67.17,146.01,74.73c-7.99,4.09-11.58,14.21-9.85,22.64c-9.44,0.69-19.9,7.74-12.52,15.17
			c6.61,6.65,18.42,4.56,26.67,3.25c6.07-0.96,13.2-2.28,19.51-4.71c1.24,10.24,19.63,13.81,29.43,13.39
			c11.5-0.5,25.18-5.93,27.59-15.71c8.51,5.12,17.95,7.64,28.6,5.7c12.75-2.33,22.56-10.7,19.65-24.31
			C271.02,70.96,246.03,74.5,232.63,84.71z"/>
	</g>
	<g>
		<g>
			<path class="st2" d="M692.92,406L692.92,406L692.92,406c-17.12-23.83-136.22-56.86-304.24-56.86
				c-168.02,0-270.56,23.97-304.24,56.85l0,0h0h0c0,0,0,0,0,0c33.68,32.88,136.22,56.85,304.24,56.85
				C556.7,462.85,675.79,429.83,692.92,406L692.92,406L692.92,406z"/>
		</g>
		<g>
			<g class="st3">
				<path class="st4" d="M201.68,400.54c3.09-0.25,6.12-0.81,9.13-1.77c2.03-0.69,4.6-1.54,6.08-3.24c2.51-3-2.37-4.47-4.58-4.71
					c-1.86-0.27-3.61-0.16-5.29,0.35c0.75-0.57,1.4-1.29,1.95-2.04c1.25-1.6,3.72-5.19,2.7-7.35c-1.71-3.51-8.52,2.6-9.88,4.25
					c1.02-1.5,3.17-6.87,1.24-8.26c-1.36-0.96-3.45,1.38-4.91,3.41c1.36-2.23,2.72-5.21,1.22-6.79c-2.23-2.28-5.14,5.37-5.54,6.55
					c-1.43,3.64-2.25,7.45-3.4,11.11c-0.52,1.71-1.16,3.47-1.52,5.25c-0.31,0.06-0.08-0.03-0.31,0.06
					C192.41,399.17,197.44,400.99,201.68,400.54z"/>
			</g>
			<path class="st5" d="M580,392.1c0.86,1.11,1.81,2.16,2.74,3.21c-0.16-0.02-0.3-0.03-0.44-0.04c-1.98-0.16-3.97-0.29-5.96-0.31
				c-2.09-0.03-7.1-0.44-8.07,1.98c-1.29,3.21,5.34,4.97,7.69,5.25c4.02,0.47,9.53,0.19,11.89-3.37c0.09-0.02,0.18-0.04,0.27-0.07
				c1.49,0.52,3.08,0.88,4.1,1.16c2.47,0.67,6.85,2.04,9.2,0.11c3.66-3.01-2.72-4.67-4.99-4.95c-1.58-0.19-3.14-0.25-4.65-0.13
				c0.62-0.97,1.11-1.88,1.42-2.34c1.42-2.15,2.86-4.3,4.13-6.52c1.05-1.85,2.32-3.96,2.58-6.02c0.17-1.4-0.34-3.42-2.4-3.19
				c-1.98,0.22-3.43,2.31-4.42,3.67c-0.3,0.42-0.6,0.84-0.89,1.26c-0.02-2.6-0.3-5.17-0.53-7.43c-0.15-1.42-1.31-10.22-5.54-6.24
				c-1.25,1.18-1.3,7.91-1.09,10.63c0.22,2.85,0.52,5.7,0.87,8.54c0.08,0.65,0.14,1.3,0.22,1.94c-0.62-1.6-1.47-3.11-2.28-4.34
				c-1.39-2.11-3.69-6.86-6.98-6.97c-1.57-0.06-2.6,1.51-2.65,2.76c-0.08,2.05,0.79,3.94,1.82,5.69
				C577.24,388.38,578.58,390.26,580,392.1z"/>
			<g>
				<path class="st2" d="M228.58,350.53c6.12-0.87,11.58,1.75,16.61,4.59c-2.19-2.4-19.01-17.26-16.39-19.23
					c2.4-1.96,12.02,5.46,13.77,6.99c2.37,1.82,5.03,4.25,5.48,7.42c-0.11-4.03-1.01-8.29-1.76-12.22
					c-0.88-3.71-1.31-7.43-1.97-11.36c-0.66-2.84-1.75-5.9-1.53-8.96c9.18,8.52,9.61,33.43,9.83,44.79c-3.93,0-7.65,0-11.58-0.44
					c-5.24-0.22-14.64-0.44-18.35-4.59C218.96,353.59,225.3,350.96,228.58,350.53z"/>
			</g>
			<g class="st3">
				<path class="st4" d="M364.3,424.25c6.99-6.56,15.51,1.53,17.92,8.3c-1.09-4.59-1.31-9.18,0.87-13.55
					c1.53-3.06,5.68-8.96,10.05-7.65c6.99,2.19,2.4,15.08-1.09,18.57c2.76-2.45,5.39-1.03,6.13,1.53c0.93-0.27,1.86-0.51,2.83-0.66
					c2.62-0.44,9.61-1.09,10.27,2.84c1.31,7.21-16.38,10.49-20.97,10.7c-6.55,0.44-14.86,0.88-20.98-1.09
					C361.89,440.85,357.96,430.37,364.3,424.25z"/>
			</g>
			<g>
				<path class="st2" d="M480.52,359.54c2.85-3.64,8.06-3.64,12.01-3c-2.21-0.95-9.96-4.42-9.17-7.43
					c1.11-4.11,12.01-1.11,14.38,0.16c-2.37-1.58-11.22-8.22-8.53-11.54c1.74-2.21,6.8,0,8.69,0.95c2.21,1.11,4.27,2.53,5.22,5.06
					c-2.21-5.69-4.58-12.01-3.63-18.17c0.95-5.53,5.06-8.69,10.43-6.48c7.43,3,12.01,11.7,14.06,18.96
					c2.53,8.38-0.47,18.01-2.37,26.39c-10.9,0.79-22.44,2.37-33.34,1.58C485.1,365.7,476.57,364.28,480.52,359.54z"/>
			</g>
			<g>
				<path class="st2" d="M544.07,352.79c-6.12-0.87-11.58,1.75-16.6,4.59c2.18-2.4,19.01-17.26,16.39-19.23
					c-2.4-1.97-12.02,5.46-13.77,6.99c-2.37,1.82-5.03,4.25-5.47,7.42c0.11-4.03,1.01-8.29,1.76-12.22
					c0.87-3.72,1.31-7.43,1.96-11.36c0.66-2.84,1.75-5.9,1.53-8.96c-9.18,8.52-17.42,33.06-15.4,45c3.93,0,13.22-0.21,17.15-0.65
					c5.24-0.22,14.64-0.44,18.35-4.59C553.68,355.86,547.34,353.23,544.07,352.79z"/>
			</g>
			<g>
				<g>
					<g>
						<path class="st2" d="M280.03,447.15c13.28,4.99,31.7,15.1,32.59,25.09c0.03,3.12-2.79,4.55-7.85,2.37
							c-5.36-2.28-8.65-6.82-11.24-10.36c2.54,5.85,5.8,17.96-1.49,20.7c-8.49,3.33-12.89-10.49-13.28-13.53
							c0.14,4.9-1.21,9.14-6.18,12.03c-3.77,2.3-12.4,5.01-19.26,1.08c-10.88-6.17-3.79-17.91,1.77-21.58
							c-3.13,1.34-8.88,4.57-14.18,2.11c-5.86-2.83-4.49-8.22-2.73-10.58c4.02-6.3,16.62-8.72,27.87-9.04
							c4.44-0.15,9.27,0.6,14.35,1.63"/>
					</g>
				</g>
			</g>
			<g>
				<g>
					<g>
						<path class="st5" d="M413.71,349.16c2.76-7.28,8.18-12.91,13.61-18.31c2.93-2.92,5.99-5.76,9.27-8.29
							c1.33-1.03,2.74-1.96,4.24-2.76c0.88-0.47,2.32-0.55,2.95-1.36c0.19-0.24,0.28-0.64,0-0.86c-1.69-1.37-5.08,1.24-6.47,2.15
							c-3.69,2.45-6.99,5.54-10.09,8.69c-5.39,5.45-12.83,12.6-13.97,20.61C413.2,349.34,413.6,349.46,413.71,349.16L413.71,349.16z
							"/>
					</g>
					<g>
						<path class="st6" d="M436.63,309.73c-4,1.89-6.35,5.82-3.86,9.18c-3.08,3.47-0.66,8.77,3.09,10.76
							c3.44,1.83,9.23-0.21,10.57-4.02c3.07-0.29,6.14-1.41,6.22-5.1c0.05-2.13-0.59-4.4-2.05-6.01c-1.52-1.67-3.26-2.22-5.26-2.14
							c0.02-1.45-0.42-2.71-2.01-3.55C441.34,307.81,438.46,308.87,436.63,309.73z"/>
						<path class="st7" d="M441.55,316.37c-2.04,0.48-2.98,3.29-1.41,4.77c0,0,0,0,0,0c0.39,0.43,0.96,0.75,1.66,0.92
							c1.83,0.43,3.54-0.95,3.22-2.82C444.76,317.72,443.27,315.97,441.55,316.37z"/>
					</g>
				</g>
				<g>
					<g>
						<path class="st2" d="M397.85,356.29c0.23-8.34,5.56-15.76,11.58-21.08c1.62-1.62,5.79-5.56,8.34-3.24
							c2.32,1.85,0.82,7.75,0.36,10.3c3.24-3.01,19.33-16.56,20.03-4.04c0.69,11.12-14.36,16.68-22.94,18.3
							c-5.56,0.93-11.35,1.16-16.91,1.16"/>
					</g>
				</g>
			</g>
			<g class="st3">
				<g>
					<path class="st4" d="M272.16,412.33c3.35-1.86,5.84,8.49,6.62,11.3c1.07-4.48,5-13.3,9-13.16c4.11,0.2,2.3,9.33,1.32,12.74
						c2.82-3.05,7.32-8.42,10.98-6.03c3.15,1.95,2.82,7.73,0.96,11.44c-4.49,8.54-11.04,9.89-16.84,8.1
						c-2.91-1.08-6.87-3.64-10.21-8.88C272.54,425.6,268.04,414.55,272.16,412.33z"/>
				</g>
			</g>
			<g>
				<g>
					<g>
						<path class="st5" d="M223.93,433.57c1.6-7.9,4.72-15.69,7.45-23.25c1.39-3.86,6.67-15.34,8.09-19.18
							c0.43-1.15,0.86-2.31,1.29-3.46c0.1-0.27,0.33-1.74,0.13-1.21c0.29-0.77-0.86-1.35-1.15-0.57
							c-1.48,3.91-8.11,18.14-9.76,23.02c-2.66,7.87-6.04,16.17-6.77,24.52C223.18,433.89,223.84,434.04,223.93,433.57
							L223.93,433.57z"/>
					</g>
					<g>
						<g>
							<path class="st8" d="M247.26,392.48c1.99,0.96,4.09,1.78,6.24,1.11c2.36-0.74,4.45-2.65,4.98-5.13
								c0.73-3.59-1.97-6.54-4.69-8.4c2.1-0.52,4.71-2.56,3.57-5.02c-1.2-2.57-4.45-1.16-6.01,0.04c1.39-1.37,3.28-4.51,1.51-6.34
								c-1.66-1.76-4.01,1.26-4.9,2.46c0.55-2.21,1.65-5.21-1.4-5.94c-3.34-0.75-10.01,0.76-9.82,5.13
								c0.91-2.63-2.53-4.46-4.72-3.75c-3.1,0.98-3.43,4.81-1.3,6.81c-2.19-0.96-6.41-1.06-6.57,2.25c-0.13,2.7,2.99,5.66,5.71,4.84
								c-2.55,0.11-6.94,2.2-6.51,5.37c0.23,1.61,2.07,2.45,3.55,2.57c1.45,0.07,2.65-0.5,3.72-1.41c-1.71,0.96-3.29,2.03-4.27,3.75
								c-0.89,1.54-1.39,3.85,0.42,4.98c2.88,1.77,8.57-0.36,9.11-3.84c-0.59,2.04-1.21,6.29,2.19,6.14c2.6-0.14,4.04-3.02,3.81-5.3
								c0.18,2.1,1.39,6.82,4.6,5.24C248.48,396.99,248.72,394.03,247.26,392.48z"/>
						</g>
						<g>
							<path class="st1" d="M238.92,384.39c-0.24-0.31-0.89,1.08-0.93,1.19c-0.63,1.42-1.13,2.87-1.81,4.27
								c-0.23-0.02-0.48,0.03-0.7,0.16c-0.56,0.34-0.74,1.07-0.4,1.63c0.34,0.57,1.06,0.76,1.63,0.42c0.56-0.34,0.74-1.07,0.4-1.63
								c-0.11-0.19-0.27-0.33-0.46-0.43c0.54-1.1,0.99-2.22,1.46-3.37c0.17-0.42,0.37-0.83,0.51-1.26c0.05-0.16,0.22-0.85,0.28-0.9
								C238.93,384.44,238.94,384.41,238.92,384.39z"/>
							<path class="st1" d="M240.75,374.77c0.33-0.73,0.42-1.64,0.67-2.4c0.28-0.86,0.71-1.67,1.15-2.46
								c0.35,0.13,0.74,0.13,1.06-0.07c0.59-0.35,0.76-1.15,0.38-1.78c-0.38-0.63-1.16-0.85-1.74-0.5
								c-0.58,0.35-0.76,1.14-0.38,1.77c0.08,0.14,0.19,0.25,0.3,0.35c-0.41,0.73-0.82,1.47-1.12,2.25
								c-0.27,0.71-0.98,2.05-0.67,2.8C240.45,374.86,240.67,374.94,240.75,374.77z"/>
							<path class="st1" d="M242.81,377.32c-0.29,0.39,0.4,0.79,0.67,0.37c1-1.58,2.53-2.73,3.93-3.96
								c0.03,0.06,0.05,0.12,0.09,0.18c0.34,0.58,0.99,0.83,1.45,0.56c0.46-0.27,0.54-0.96,0.2-1.54c-0.34-0.58-1-0.83-1.45-0.55
								c-0.3,0.18-0.44,0.55-0.39,0.94C245.72,374.57,244.01,375.68,242.81,377.32z"/>
							<path class="st1" d="M248.14,384.7c0.65,0.26,1.53,0.46,2.24,0.83c-0.3,0.51-0.32,1.2,0.03,1.79
								c0.49,0.82,1.49,1.12,2.23,0.67c0.74-0.44,0.95-1.47,0.46-2.28c-0.49-0.82-1.49-1.12-2.24-0.68
								c-0.04,0.02-0.07,0.06-0.11,0.09c-0.37-0.26-0.79-0.46-1.18-0.64c-0.7-0.3-1.41-0.46-2.06-0.86
								c-0.78-0.47-1.37-1.07-2.26-1.34c-0.42-0.12-0.58,0.52-0.16,0.65C246.24,383.27,247.03,384.27,248.14,384.7z"/>
							<path class="st1" d="M229.56,386.6c0.46-0.28,0.6-0.93,0.35-1.54c2.58-0.72,4.79-2.35,7.33-3.16
								c0.29-0.09,0.17-0.53-0.12-0.46c-1.18,0.31-2.25,0.8-3.36,1.3c-1.4,0.64-2.9,1.01-4.29,1.64c-0.42-0.39-0.98-0.53-1.4-0.28
								c-0.53,0.32-0.63,1.13-0.22,1.82C228.26,386.62,229.03,386.92,229.56,386.6z"/>
							<path class="st1" d="M229.85,378.07c0.29-0.18,0.49-0.47,0.57-0.78c0.47,0.11,0.94,0.23,1.42,0.38
								c1.39,0.43,2.87,0.7,4.04,1.63c0.19,0.14,0.45-0.12,0.26-0.28c-1.11-0.93-2.5-1.32-3.85-1.75c-0.58-0.18-1.24-0.5-1.91-0.7
								c-0.03-0.1-0.07-0.2-0.13-0.28c-0.37-0.63-1.17-0.84-1.78-0.48c-0.61,0.36-0.8,1.17-0.42,1.8
								C228.44,378.22,229.24,378.44,229.85,378.07z"/>
							<path class="st1" d="M234.1,372.01c0.57,1.6,1.44,3.1,2.37,4.52c0.16,0.23,0.5,0.02,0.37-0.23c-0.8-1.5-1.71-2.96-2.34-4.54
								c0.41-0.39,0.49-1.06,0.16-1.61c-0.37-0.62-1.15-0.86-1.72-0.52c-0.58,0.35-0.73,1.13-0.36,1.76
								C232.92,371.96,233.56,372.2,234.1,372.01z"/>
							<path class="st1" d="M250.61,378.08c-0.79,0.43-1.52,0.98-2.3,1.46c-0.64,0.39-1.27,0.79-1.9,1.19
								c-0.29,0.18-0.94,0.38-1.07,0.74c-0.1,0.26,0.08,0.55,0.38,0.48c0.04-0.01,0.06-0.01,0.1-0.02c0.17-0.04,0.24-0.17,0.23-0.31
								c0.27-0.2,1.01-0.58,1.14-0.67c0.46-0.32,0.93-0.64,1.4-0.94c0.76-0.49,1.43-1.06,2.19-1.52c0.31,0.44,0.97,0.55,1.5,0.23
								c0.56-0.34,0.78-1,0.48-1.5c-0.29-0.49-0.99-0.62-1.55-0.28C250.78,377.19,250.55,377.65,250.61,378.08z"/>
							<path class="st1" d="M243.22,392.68c0.28,0.47,0.88,0.62,1.34,0.34c0.46-0.28,0.61-0.87,0.33-1.34
								c-0.2-0.34-0.59-0.51-0.97-0.46c-0.19-1.07-0.22-2.17-0.35-3.24c-0.16-1.33-0.52-2.72-0.96-3.98
								c-0.12-0.32-0.62-0.18-0.51,0.14c0.57,1.56,0.94,3.21,1.13,4.86c0.09,0.8,0.22,1.55,0.46,2.28c-0.04,0.01-0.1,0.04-0.14,0.06
								C243.1,391.62,242.95,392.22,243.22,392.68z"/>
						</g>
						<g>
							<path class="st9" d="M241.66,386.91c3.28-0.68,5.91-4.13,4.48-7.77c-1.17-3.06-5.04-5.85-8.4-5.51
								C231.52,374.32,233.27,387.03,241.66,386.91z"/>
						</g>
					</g>
				</g>
				<g>
					<path class="st2" d="M223.42,435.01c3.11,0.7,5.22-1.6,7.18-3.62c0.34-0.35,0.12-0.82-0.22-0.96c0.36-2.23,0.68-6.5-1.92-6.7
						c-1.76-0.13-3.07,1.68-3.49,3.19c-0.21,0.76-0.41,1.74-0.5,2.74c-1.24-1.62-2.96-2.83-5.11-2.58c-1.86,0.22-3.77,1.7-2.53,3.76
						C218.16,433.04,220.99,434.46,223.42,435.01z"/>
					<path class="st5" d="M216.79,428.79c1.84-3.24,5.6-1.41,7.57,0.78c0.24-2.44,1.48-5.89,3.96-5.8c0.04,0,0.08,0.05,0.05,0.09
						c-0.69,0.91-1.5,1.54-2.07,2.59c-0.73,1.36-0.77,2.93-0.93,4.42c-0.07,0.67-0.99,0.68-1.05,0c-0.02-0.2-0.02-0.43-0.01-0.67
						c-0.82-0.65-1.68-1.27-2.6-1.71c-1.79-0.86-2.89-0.06-4.39,0.85C216.98,429.54,216.6,429.12,216.79,428.79z"/>
				</g>
			</g>
		</g>
		<g class="st10">
			<path class="st4" d="M679.6,404.42c-7.4-0.65-8.76,7.72-16.23,8.2c-8.27,0.52-16.55,0.46-24.83,0.25
				c-5.17-0.13-28.39,0.55-27.58-7.32c0.21-2.08-2.06-3.23-3.8-2.9c-3.5,0.69-24.16,0.19-24.73,1.05
				c-4.52,6.93,15.05,6.5,22.81,5.31c2.36,8.71,17.16,10.07,24.75,10.56c8.46,0.55,17.05,0.42,25.5-0.06
				c4.9-0.28,10.09-0.32,14.76-1.93c3.87-1.33,5.66-8.33,9.35-8.41C682.7,409.1,682.61,404.69,679.6,404.42z"/>
			<path class="st4" d="M516.1,425.03c-3.48-0.71-5.88-3.33-9.49-3.06c-2.07,0.16-4.13,2.09-3.38,4.34
				c-0.68-0.17-1.36-0.37-2.01-0.65c-1.46-0.53-3.3-1.08-4.87-0.57c-5.67,1.83-10.02,2.85-16.16,2.44c-2.96-0.2-5.92-0.51-8.88-0.71
				c-4.37-0.28-6.2-2.61-9.22-5.15c-3.2-2.68-6.84-2.82-10.94-2.3c-0.64,0.08-0.8,0.9-0.15,1.14c1.3,0.57,2.65,0.96,4.05,1.18
				c6.35,1.45,3.38,2.8,5.28,5.66c1.49,2.23,3.34,4.47,6.09,5.21c7.49,1.99,15.59,2.62,23.29,1.85c2.53-0.25,4.73-0.9,6.8-2.36
				c2.29-1.61,5.51,1.1,8.08,1.07c2.9-0.04,4.63-1.22,5.39-3.04c1.5,0.74,3.06,1.6,4.22,1.86
				C518.71,432.93,520.61,425.96,516.1,425.03z"/>
			<path class="st4" d="M369.39,386.81c-5.69-3.05-11.65-1.14-17.7-0.1c-9.65,1.66-20.15,0.49-29.97,0.19
				c-1.01-0.32-2.15-0.32-3.33,0.21c-0.85,0.38-1.58,1.12-1.96,1.96c-0.28,0.62-0.41,1.26-0.45,1.89
				c-9.54-0.2-19.06-1.68-21.3-11.15c-0.11-0.48-0.94-0.53-1.02,0c-1.87,12.42,7.06,16.41,18.02,17.82
				c8.57,1.11,17.5,1.13,26.13,1.75c8.29,0.6,16.7,2.93,24.98,2.38c4-0.27,5.18-6.18,0.98-7.22c-0.85-0.21-1.7-0.42-2.55-0.63
				c0.54-0.04,1.08-0.08,1.62-0.1c1.59-0.09,3.17-0.14,4.75-0.31C370.85,393.15,372.82,388.65,369.39,386.81z"/>
			<path class="st4" d="M210.41,399.33c-6.84,0.75-14.47-1.07-21.38-1.45c-8.83-0.49-17.61-0.42-26.45-0.58
				c-1.52-0.03-2.37,0.92-2.57,2.06c-5.32-0.27-10.65-0.87-15.82-1.61c-4.22-0.61-8.41-1.45-12.62-2.11
				c-2.86-0.45-7.65-0.38-8.89-3.73c-0.13-0.35-0.67-0.52-0.87-0.11c-3.71,7.8,7.83,9.5,13.01,11.29c9.49,3.29,19.73,4.16,29.68,3
				c9.99,2.92,21.21,1.06,31.98-0.09c4.97,0.37,9.96,0.47,14.73-0.74C214.46,404.44,213.85,399.05,210.41,399.33z"/>
		</g>
	</g>
</g>
<g id="OBJECTS">
	<g>
		<g>
			<g>
				<g>
					<path class="st11" d="M195.2,212.22c0,0,4.77,11.14,5.97,18.96c1.19,7.82-4.22,21.14-27.58,20.68
						c-26.78-0.53-37.92-13.39-32.61-27.35c2.81-7.38,9.73-5.33,8.35-20.51c-1.46-16.04,1.46-41.76,19.49-48.53
						c18.03-6.76,31.82,5.83,31.82,5.83s10.34-0.53,15.91,11.87c5.57,12.4-3.32,22.21-9.95,24.73
						C199.97,200.42,195.2,212.22,195.2,212.22z"/>
					<path class="st12" d="M157.49,223.09c1.92-4.6,3.07-8.94,2.94-13.92c0-2.3-0.51-5.11,1.92-6.39c2.56-1.41,6.39-0.9,9.2-0.9
						c3.32,0,6.52,0.13,9.71-1.02c7.54-2.81,14.56-10.48,17.89-17.63c2.55-5.49,2.61-11.32,2.13-17.12
						c2.07,0.65,4.51,1.92,6.29,3.32c6.62,5.24,7.05,14.6,6.43,22.94c-2.22,2.67-4.96,4.59-7.4,5.52
						c-6.63,2.52-11.4,14.32-11.4,14.32s4.77,11.14,5.97,18.96c1.19,7.82-4.22,21.14-27.58,20.68c-9.22-0.18-16.58-1.82-22.06-4.47
						c-0.6-1.35-0.99-2.79-1.07-4.37C149.95,235.87,154.81,229.23,157.49,223.09z"/>
					<g>
						<path class="st12" d="M176.09,185.87c5.25-1.71,9.68-2.71,13.94-6.55c4.27-3.85,6.29-9.11,5.9-14.79
							c-0.01-0.16,0.23-0.18,0.27-0.04c2.06,7.09-2,13.34-7.38,17.72c-2.86,2.33-6.06,3.34-9.58,4.27
							c-3.56,0.93-6.88,2.74-9.66,5.17c-2.08,1.82-2.24,5.49-2.77,8.01c-0.12,0.59-1,0.43-1.02-0.14
							C165.64,192.64,169.43,188.04,176.09,185.87z"/>
						<path class="st12" d="M168.56,180.08c3.32-3.1,7.44-4.82,11.53-6.61c5.17-2.26,9.02-6.22,11.9-10.99
							c0.12-0.19,0.4-0.02,0.3,0.18c-3.63,7.2-8.63,10.25-15.76,13.55c-4.57,2.11-8.01,5.45-11.29,9.17
							c-2.91,3.3-4.63,6.37-4.98,10.84c-0.22,2.9,0.39,5.97,0.64,8.86c0.03,0.35-0.53,0.42-0.61,0.08c-1.17-4.7-1.84-9.4-0.34-14.11
							C161.29,186.82,165.44,182.99,168.56,180.08z"/>
						<path class="st12" d="M149.88,222.99c4.15-5.32,5.58-9.66,5.28-16.44c-0.24-5.51-1.3-10.89-1.15-16.43
							c0.23-8.35,3.03-16.42,9.14-22.24c5.9-5.62,14.72-7.2,22.46-8.23c0.15-0.02,0.19,0.24,0.04,0.27
							c-7.73,1.74-15.61,3.38-21.82,8.63c-7.04,5.95-8.79,15.88-8.71,24.58c0.07,7.83,2.67,15.61,0.43,23.37
							c-0.68,2.37-2.38,4.39-3.88,6.29c-2.42,3.08-4.96,5.81-4.29,10.29c0.38,2.58,2.44,4.99,3.66,7.22
							c0.25,0.46-0.39,1.02-0.76,0.58C144.99,234.59,144.93,229.34,149.88,222.99z"/>
					</g>
					<g class="st13">
						<path class="st14" d="M167.66,159.1c-2.88,0.93-11.48,4.1-8.12,9.25c1.54,2.36,3.44,3.45,6.02,4.28
							c2.63,0.84,2.25-1.16,1,1.21c-0.75,1.43-1.27,3.62-0.82,5.23c1.98,7.06,8.21,6.16,13.39,3.82c1.23-0.56,2.43-1.07,3.7-1.48
							c0.48-0.16,2.56,2.5,3.1,2.84c2.64,1.64,5.73-0.35,7.79-2.02c1-0.81,0.48-2.73-0.91-2.3c-2.58,0.8-4.78,1.96-6.23-1.5
							c-0.47-1.13-1.71-2.23-2.86-2.51c-1.72-0.42-3.39-0.4-5.15-0.33c-0.86,0.05-1.71,0.08-2.57,0.1c-0.42,0-0.83-0.01-1.24-0.01
							c-1.44-0.14-1.39-0.13,0.14,0.03c0.84-3.76,0.46-7.45-3.17-9.17c-1.66-0.78-3.51-0.74-5.3-0.8c-4.67-0.16,0.43-4.33,1.84-5.5
							C168.79,159.81,168.23,158.92,167.66,159.1L167.66,159.1z"/>
					</g>
				</g>
				<g>
					<g>
						<path class="st15" d="M124.76,385.74c0,0,13.46-46.44,19.84-81.09l21.29,1.19c0,0-13.08,50.15-33.02,82.24L124.76,385.74z"/>
						<path class="st16" d="M144.59,304.65c-1.78,9.68-4.12,20.28-6.56,30.54c1.12,0.52,2.25,0.99,3.42,1.36
							c4.32,1.57,8.92,2.68,13.54,3.6c6.91-19.06,10.89-34.31,10.89-34.31L144.59,304.65z"/>
					</g>
					<g>
						<path class="st15" d="M181.76,391.07c0,0-6.32-47.94-14.38-82.23l19.98-7.46c0,0,8.15,51.19,2.77,88.58L181.76,391.07z"/>
						<path class="st16" d="M191.5,343.25c-1.16-23.1-4.15-41.87-4.15-41.87l-19.98,7.46c2.52,10.72,4.87,22.78,6.91,34.29
							C180.02,343.58,185.76,343.58,191.5,343.25z"/>
					</g>
					<g>
						<g>
							<g>
								<path class="st17" d="M244.08,275.93c6.22-3.3,12.45-6.81,19.47-3.24c6.74,3.43,8.04,12.85,9.75,19.38
									c3.08,11.72,7.4,21.7,16.68,29.8c8.42,7.35,19.43,11.36,30.17,13.76c11.81,2.64,26.94,3.1,38.55-0.54
									c0.88-0.28,0.67-1.48-0.21-1.55c-7.15-0.59-14.52,0.66-21.73,0.57c-8.7-0.1-17.17-1.55-25.45-4.17
									c-15.77-4.99-27.78-15.65-33.12-31.4c-3.36-9.89-3.9-22.1-12.94-28.77c-6.88-5.08-17.52-0.72-21.96,5.36
									C242.92,275.64,243.61,276.18,244.08,275.93L244.08,275.93z"/>
							</g>
							<path class="st15" d="M228.51,273.42c0,0,6.26-0.21,7.05-0.39c0.79-0.18,2.56-5.17,5.72-5.17c3.16,0,3.75,4.4,3.85,4.76
								c0,0,4.11,1.69,2.65,7.35c-1.46,5.66-7.06,7.9-11.56,3.22l-9.29-2.85L228.51,273.42z"/>
							<g>
								<g>
									<path class="st17" d="M244.16,274.85c-7.35,6.68-29.08,31.59-13.67,40.71c5.26,3.11,10-6.05,11.66-9.34
										c4.49-8.92,4.45-21.32,2.54-30.85c-0.16-0.81-1.29-0.54-1.35,0.18c-0.56,6.82,0.48,13.49-0.46,20.35
										c-0.34,2.47-1.06,4.83-1.82,7.19c-0.74,2.43-1.95,4.58-3.65,6.44c-2.16,3.18-4.59,2.88-7.3-0.93
										c-0.5-4.75,3.08-11.11,4.89-15.24c2.75-6.28,6.6-12,9.64-18.14C244.82,274.91,244.43,274.61,244.16,274.85L244.16,274.85z"
										/>
								</g>
								<path class="st18" d="M244.69,275.37c-0.01-0.04-0.03-0.07-0.04-0.11c-0.46,0.93-0.95,1.85-1.44,2.77
									c-0.2,5.96,0.51,11.85-0.32,17.88c-0.34,2.47-1.06,4.83-1.82,7.19c-0.74,2.43-1.95,4.58-3.65,6.44
									c-2.15,3.18-4.58,2.88-7.29-0.92c-0.32,2.12-0.34,4.18-0.29,6.5c0.22,0.15,0.42,0.3,0.65,0.44c5.26,3.11,10-6.05,11.66-9.34
									C246.64,297.31,246.6,284.9,244.69,275.37z"/>
							</g>
							<g>
								<path class="st15" d="M247.27,272.57c-1.73,0-6.61,1.34-6.2,4.07c0.29,1.98,8.5,2.1,9.79,0.66
									C252.38,275.61,251.89,272.56,247.27,272.57z"/>
								<path class="st16" d="M241.5,277.28c1.75,1.35,8.22,1.29,9.36,0.02c0.06-0.07,0.11-0.14,0.17-0.22
									C247.87,276.79,244.64,276.9,241.5,277.28z"/>
								<path class="st15" d="M247.28,277.75c-1.64-0.56-6.68-0.9-7.2,1.82c-0.37,1.97,7.34,4.77,9.04,3.83
									C251.11,282.3,251.65,279.25,247.28,277.75z"/>
								<path class="st16" d="M240.12,279.99c0.64,1.92,7.42,4.28,8.99,3.41c0.15-0.08,0.29-0.18,0.43-0.29
									c-1.07-0.6-2.26-1.05-3.26-1.38C244.26,281.06,242.17,280.64,240.12,279.99z"/>
								<path class="st15" d="M244.69,281.78c-1.46-0.93-6.28-2.45-7.42,0.08c-0.82,1.82,6.02,6.36,7.88,5.85
									C247.35,287.1,248.59,284.27,244.69,281.78z"/>
								<path class="st16" d="M242.02,284.83c-1.37-1.28-3.11-2.09-4.64-3.15c-0.04,0.06-0.08,0.11-0.11,0.18
									c-0.79,1.75,5.44,5.96,7.61,5.87C243.79,286.89,242.98,285.79,242.02,284.83z"/>
							</g>
						</g>
						<g>
							<path class="st19" d="M230.08,272.54c0,0,1.18,5.59-0.55,9.91c0,0-18,11.72-42.01-9.91c0,0,0.28,13.8,0,13.8
								c-0.28,0-42.93-1.3-42.93-1.3l8.21-54.03c0,0,8.39-5.16,15.22-6.59c6.83-1.42,16.94,2.71,21.92,7.97
								c4.98,5.27,13.38,25.19,19.78,32.31S230.08,272.54,230.08,272.54z"/>
							<path class="st20" d="M185.49,242.76c1.49,2.97,2.73,6.19,3.96,9.16c3.22,8.17,6.19,16.1,12.88,21.8
								c6.79,5.58,15.24,8.4,23.88,10.26c-6.25,2.27-20.8,4.67-38.69-11.45c0,0,0.28,13.8,0,13.8c-0.03,0-0.63-0.02-1.65-0.05
								c-0.49-4.2-0.81-8.39-1.12-12.33C183.76,263.82,184.75,253.16,185.49,242.76z"/>
						</g>
						<path class="st20" d="M160.3,238.8c0-3.51,0.93-9.25,0.68-12.75c-0.09-1.2,2.35-0.2,2.35-0.2c0.72,4.2,2.55,13.68,3.33,18.04
							c0.41,2.3,7.13,2.57,12.26,2.71c1.05,0.03,2.85-17.37,3.77-19.38c0.05-0.11,1.65,20.88,1.62,21
							c-1.02,5.04-16.39,3.53-19.42,2.5c-0.83-0.28-9.75-0.6-9.28-1.39C157.15,246.69,160.3,245.88,160.3,238.8z"/>
					</g>
					<g>
						<g>
							<path class="st21" d="M188.38,247.63h-31.6c0,0-2.56,21.78-4.84,26.33c-2.28,4.56-8.83,4.93-8.83,4.93
								s-4.22,24.54-9.88,48.78c10.04,3.97,21.75,5.37,31.52,5.37c9.83-0.15,20-2.13,29.04-6.2c-1.67-21.73-3.34-44.9-3.57-53.17
								C189.76,256.58,188.38,247.63,188.38,247.63z"/>
							<g>
								<path class="st22" d="M163.98,264.54c0.96,4.85,6.1,23.61,14.03,17.86c2.95-2.14,3.77-7.2,4.39-10.48
									c0.42-2.23,0.41-5.31,1.19-7.61c-6.04,1.03-12.18,0.69-18.25,1.43c-0.43,0.05-0.52-0.61-0.09-0.66
									c6.12-0.78,12.31-0.71,18.46-1.07c0.1-0.26,0.2-0.51,0.33-0.74c0.05-0.1,0.18-0.08,0.21,0.03c0.95,3.52-0.43,8.99-1.37,12.4
									c-0.86,3.12-2.36,7.88-6.02,8.78c-8.97,2.2-12.51-13.87-13.68-19.84C163.07,264.14,163.87,264.03,163.98,264.54z"/>
								<path class="st22" d="M181.31,265.64c0.3,0.01,0.59,0.16,0.9,0.16c0.24,0.01,0.23,0.33,0.06,0.42
									c-0.49,0.26-1,0.35-1.55,0.3c-0.38-0.04-0.5-0.66-0.11-0.78C180.86,265.68,181.06,265.64,181.31,265.64z"/>
								<path class="st22" d="M179.36,266.22c0.13,0.02,0.12,0.19,0,0.22c-0.57,0.13-1.18,0.45-1.78,0.36
									c-0.29-0.04-0.35-0.45-0.08-0.57C178.07,265.98,178.78,266.14,179.36,266.22z"/>
								<path class="st22" d="M174.88,266.37c0.46,0.06,0.92,0.15,1.38,0.22c0.04,0.01,0.04,0.06,0,0.07
									c-0.39,0.08-0.79,0.17-1.18,0.26c-0.42,0.1-0.85,0.28-1.29,0.18c-0.34-0.08-0.46-0.55-0.1-0.71
									C174.09,266.23,174.47,266.31,174.88,266.37z"/>
								<path class="st22" d="M171.06,266.5c0.37,0.07,0.75,0.11,1.12,0.17c0.13,0.02,0.12,0.19,0,0.22
									c-0.37,0.09-0.75,0.19-1.12,0.27c-0.44,0.1-0.68,0.03-1.08-0.17c-0.2-0.1-0.17-0.38,0.05-0.42
									C170.43,266.47,170.66,266.43,171.06,266.5z"/>
								<path class="st22" d="M167.94,266.49c0.36,0.05,0.81-0.06,1.1,0.17c0.07,0.06,0.09,0.14,0.06,0.22
									c-0.12,0.35-0.53,0.43-0.86,0.53c-0.55,0.18-0.94,0.18-1.51,0.07c-0.52-0.1-0.48-0.76,0-0.88
									C167.17,266.49,167.5,266.43,167.94,266.49z"/>
							</g>
						</g>
						<g class="st3">
							<path class="st22" d="M187.74,256.47c-1.07,1.46-3.35,3.29-5.09,1.63c-0.97-0.93-1.41-2.23-1.57-3.54
								c-0.23-1.91-0.3-4.17,0.22-6.03c0.13-0.49,0.87-0.5,1,0c0.56,2.23-0.18,4.58,0.38,6.86c0.68,2.75,3.04,2.37,4.78,0.87
								C187.6,256.11,187.87,256.29,187.74,256.47L187.74,256.47z"/>
						</g>
						<g>
							<g class="st3">
								<path class="st22" d="M168.8,255.09c-0.47,2.25-2.42,7.62-4.98,6.02c-4.14-2.59-4.04-8.95-2.74-13.04
									c0.24-0.76,1.56-0.67,1.46,0.2c-0.37,3.11-0.17,6.32,1.29,9.15c0.28,0.54,0.69,1,1.1,1.45c0.84,0.92,1.7-0.56,2.06-1.08
									c0.69-0.97,0.45-2.18,1.11-3.17C168.26,254.36,168.8,255.09,168.8,255.09z"/>
							</g>
							<path class="st21" d="M186.41,228.37c0.11,0.76,2.49,24.8,1.88,27.23c-0.61,2.43-5.41,3.34-6.26-1.03
								c-0.85-4.38,0.55-27.78,0.73-28.02C182.94,226.3,186.3,227.64,186.41,228.37z"/>
							<path class="st21" d="M167.11,224.22c0.32,0.33,2.02,27.55,1.63,30.34c-0.39,2.8-1.97,5.53-4.4,5.11
								c-2.43-0.43-2.42-6.44-2.45-9.54c-0.04-3.1-0.73-22.82-0.91-24.09C160.79,224.77,166.77,223.88,167.11,224.22z"/>
							<g>
								<path class="st22" d="M163.26,250.19c0.2-0.76,1.09-1.09,1.75-0.71c0.01,0,0.02,0.01,0.03,0.02
									c0.33,0.12,0.6,0.31,0.76,0.59c1.57,1.31,2.45,3.96,0.13,4.89c-1.31,0.53-2.31-0.84-2.55-1.93
									c-0.08-0.37-0.14-0.77-0.16-1.17C163.13,251.23,163.14,250.62,163.26,250.19z"/>
								<path class="st22" d="M184.06,250.23c0.01-0.02,0.02-0.05,0.04-0.08c0.38-0.63,1.18-0.67,1.7-0.22
									c0.96,0.84,1.21,2.59,0.74,3.89c-0.09,0.54-0.35,0.98-0.86,1.21c-0.04,0.03-0.07,0.07-0.11,0.1c-0.34,0.21-0.92,0.25-1.26,0
									c-0.06-0.04-0.1-0.1-0.15-0.14c-0.63-0.34-0.98-1.1-0.93-1.92c0-0.01,0-0.02,0-0.03c-0.01-0.13-0.03-0.26-0.02-0.4
									C183.22,251.84,183.46,250.83,184.06,250.23z"/>
							</g>
						</g>
						<path class="st22" d="M160.11,247.56l-3.34,0.08c0,0-2.56,21.78-4.84,26.33c-2.28,4.56-8.83,4.93-8.83,4.93
							s-4.22,24.54-9.88,48.78c6.5,2.57,13.68,4.05,20.59,4.79C147.51,317.33,155.51,293.86,160.11,247.56z"/>
					</g>
					<g>
						<path class="st23" d="M135.66,385.86l0.39,7.75c0,0,15.57,2.29,16.55,8.26c0,0-23.17-0.99-31.69-7.23l3.85-11.51
							L135.66,385.86z"/>
						<g>
							<path class="st1" d="M140.5,402.47c6.94,1.15,12.22,1.22,12.63,1.22c0.88,0.01,1.59-0.7,1.6-1.58
								c0.01-0.88-0.7-1.6-1.57-1.61c-0.18,0-18.27-0.25-31.51-7.28c-0.78-0.41-1.74-0.12-2.15,0.66c-0.41,0.77-0.12,1.74,0.66,2.15
								C126.74,399.54,134.29,401.44,140.5,402.47z"/>
						</g>
						<g>
							<g>
								<path class="st1" d="M137.67,389.87c-1.08,0.21-2.2-0.05-3.29,0.05c-1.2,0.11-2.55,0.76-3.66,0.11
									c-0.7-0.41-0.87-1.15-0.41-1.82c1.41-2.08,6.39-0.75,7.68,0.97C138.19,389.46,137.98,389.81,137.67,389.87L137.67,389.87z"
									/>
							</g>
							<g>
								<path class="st1" d="M137.67,392.63c-1.56,0.48-3.15,0.97-4.38,2.08c-1.15,1.03-2.74-1.07-1.42-1.98
									c0.86-0.59,1.77-1.03,2.79-1.25c0.99-0.22,1.91-0.08,2.9,0.12C138.06,391.7,138.21,392.47,137.67,392.63L137.67,392.63z"/>
							</g>
						</g>
					</g>
					<g>
						<path class="st23" d="M191.2,388.82l2.23,8.04c0,0,15.64-1.47,18.01,4.08c0,0-22.71,4.54-32.44,0.51l1.32-12.63H191.2z"/>
						<g>
							<path class="st1" d="M199.86,404.39c7-0.53,12.14-1.71,12.53-1.81c0.85-0.2,1.38-1.05,1.18-1.91
								c-0.2-0.85-1.05-1.38-1.91-1.18c-0.18,0.04-17.77,4.09-32.27,0.41c-0.85-0.21-1.71,0.3-1.93,1.15
								c-0.22,0.85,0.3,1.71,1.15,1.93C185.82,404.82,193.59,404.87,199.86,404.39z"/>
						</g>
						<g>
							<g>
								<path class="st1" d="M194.12,392.85c-1,0.46-2.14,0.47-3.18,0.84c-1.13,0.39-2.3,1.35-3.53,0.97
									c-0.77-0.23-1.11-0.91-0.83-1.66c0.88-2.35,6.02-2.24,7.68-0.88C194.53,392.33,194.4,392.72,194.12,392.85L194.12,392.85z"
									/>
							</g>
							<g>
								<path class="st1" d="M194.77,395.53c-1.4,0.83-2.82,1.69-3.75,3.05c-0.87,1.27-2.91-0.39-1.84-1.58
									c0.69-0.78,1.48-1.42,2.41-1.88c0.91-0.45,1.83-0.53,2.84-0.57C194.93,394.53,195.26,395.24,194.77,395.53L194.77,395.53z"
									/>
							</g>
						</g>
					</g>
					<g>
						<g>
							<path class="st15" d="M145.84,304.42c0,0-2.4,7.57-2.11,8.4c0.3,0.83,5.3,9.2,4.31,9.87c-3.11,2.14-5.5-4.4-6.12-3.54
								c-0.62,0.85-0.51,7.41-0.06,9.66c0.44,2.25-2.54,1.63-3.66-0.92c-1.12-2.54-1.18-5.82-1.18-5.82s-4.26,5.34-5.02,6.91
								c-0.75,1.57-3.56,0.24-2.52-2.39c1.04-2.63,3.17-6.62,3.17-6.62s-4.67,1.59-5.53,2.01c-0.86,0.41-1.92-1.36,1.16-4.61
								c3.08-3.25,8.52-6.91,9.26-7.86c0.74-0.95,2.46-7.3,2.46-7.3L145.84,304.42z"/>
							<path class="st16" d="M140.35,312.47c1.01,1.52,1.43,3.28,2.59,4.68c1.12,1.44,2.79,2.37,4.57,3.03
								c-1.19-2.75-3.57-6.8-3.77-7.36c-0.29-0.83,2.11-8.4,2.11-8.4l-5.85-2.22c0,0-1.72,6.35-2.46,7.3
								c-0.21,0.27-0.83,0.78-1.65,1.43c0.44,0.1,0.88,0.18,1.29,0.25C139,311.49,139.32,311.09,140.35,312.47z"/>
						</g>
						<g>
							<path class="st19" d="M153.38,230.33c-13.31,5.14-15.88,37.43-18.62,77.83c0,0,6.06,3.77,12.71,1.13
								c0,0,6.67-40.14,9.64-52.88C160.07,243.68,163.41,226.46,153.38,230.33z"/>
							<path class="st20" d="M146.77,261.8c0.73-8.21,1.52-17.05,4.6-24.8c1.25-3.05,2.94-5.33,5.13-7.17
								c-0.86-0.11-1.88,0.04-3.12,0.52c-13.31,5.14-15.88,37.43-18.62,77.83c0,0,6.06,3.77,12.71,1.13c0,0,0.27-1.64,0.72-4.32
								c-0.9-4.73-1.62-9.48-2-14.26C145.42,281.12,145.91,271.38,146.77,261.8z"/>
						</g>
					</g>
				</g>
				<g>
					<g>
						<path class="st15" d="M181.01,215.13c0,0-3.58,12.86-4.11,14.32c-0.53,1.46-7.29,0-7.16-2.92c0.13-2.92,0-18.03,0-18.03
							L181.01,215.13z"/>
						<path class="st16" d="M169.74,208.5l11.27,6.63c0,0-0.59,2.12-1.33,4.74c-3.37-0.98-6.66-2.12-9.89-3.41
							C169.77,212.3,169.74,208.5,169.74,208.5z"/>
					</g>
					<g>
						<g>
							<path class="st15" d="M201.48,168.78c0,0,10.85,5.5,11.77,21.71c0.92,16.2-16.66,38.52-44.78,20.02
								c0,0,4.59-16.81,8.26-19.72c3.67-2.91,10.55,0,18.04-7.34C202.24,176.12,201.48,168.78,201.48,168.78z"/>
							<path class="st16" d="M176.71,190.79c3.67-2.91,10.55,0,18.04-7.34c7.49-7.34,6.72-14.67,6.72-14.67s1.16,0.59,2.74,1.94
								c0.37,3.15,0.27,6.31-0.8,9.33c-1.96,5.23-6.54,8.5-11.44,10.46c-4.09,1.47-8.5,2.13-12.26,4.41c-2.79,1.68-5,4.18-8.03,5.49
								C173.21,196.26,175.05,192.1,176.71,190.79z"/>
						</g>
						<g>
							<g>
								<path class="st18" d="M193.88,206.64c-0.55,1.16-1.04,2.37-1.19,3.65c-0.25,2.11,2.04,2.84,3.6,2.24
									c0.38-0.15,0.64,0.44,0.26,0.56c-1.68,0.54-3.39,0.6-4.47-1c-1.34-1.98,0.23-4.11,1.49-5.61
									C193.7,206.35,193.97,206.46,193.88,206.64L193.88,206.64z"/>
							</g>
							<g>
								<g>
									<path class="st18" d="M193.88,201.36c-0.15-1.32-0.24-3.31-1.43-4.13c-0.97-0.67-2.09,0.01-2.66,0.82
										c-0.53,0.75-0.78,1.74-0.97,2.62c-0.1,0.47-0.86,0.4-0.76-0.08c0.44-2.01,1.45-4.69,3.99-4.27
										c2.29,0.38,2.3,3.29,2.04,5.02C194.06,201.46,193.89,201.48,193.88,201.36L193.88,201.36z"/>
								</g>
								<g>
									<path class="st18" d="M209.6,200.67c0.1-1.09,0.36-2.67-0.38-3.59c-0.64-0.81-1.85-0.04-2.3,0.54
										c-0.46,0.59-0.71,1.4-0.97,2.09c-0.13,0.36-0.75,0.24-0.67-0.15c0.37-1.74,1.76-4.3,3.95-3.3c1.61,0.73,0.83,3.19,0.5,4.44
										C209.71,200.77,209.59,200.74,209.6,200.67L209.6,200.67z"/>
								</g>
							</g>
							<g>
								<path class="st24" d="M202.32,195.54c0.44,0.19-0.65,5.2,0.67,6.74c1.32,1.53,2.87,2.58,1.98,4.67
									c-0.89,2.09-3.88,1.94-5.61,0.25C196.43,204.34,200.89,194.93,202.32,195.54z"/>
								<g>
									<path class="st25" d="M203.37,205.96c-0.04-0.19-0.26-0.28-0.33-0.47c-0.08-0.23-0.2-0.45-0.33-0.67
										c-0.25-0.41-0.55-0.72-0.67-1.2c-0.05-0.19,0.16-0.32,0.32-0.27c1,0.33,2.57,1.47,1.94,2.68
										C204.08,206.46,203.47,206.47,203.37,205.96L203.37,205.96z"/>
								</g>
								<g>
									<path class="st25" d="M201.87,202.68c-0.13-0.18-0.26-0.36-0.4-0.53c-0.11-0.13-0.16-0.33-0.09-0.49
										c0.02-0.05,0.04-0.09,0.06-0.14c0.09-0.23,0.37-0.32,0.57-0.18c0.04,0.03,0.08,0.06,0.12,0.09
										c0.14,0.1,0.23,0.28,0.21,0.45c-0.03,0.23-0.06,0.46-0.11,0.69C202.2,202.72,201.98,202.85,201.87,202.68L201.87,202.68z"
										/>
								</g>
							</g>
						</g>
					</g>
					<g>
						
							<ellipse transform="matrix(0.0132 -0.9999 0.9999 0.0132 -38.9653 364.7229)" class="st15" cx="165.29" cy="202.1" rx="9.78" ry="9.78"/>
						<path class="st26" d="M161.82,198.03c2.33,0.18,4.32,0.94,5.87,2.74c1.66,1.92,2.18,4.64,0.95,6.89
							c-0.24,0.43-0.88,0.05-0.66-0.38c0.11-0.21,0.19-0.43,0.27-0.64c-0.01-0.02-0.02-0.03-0.02-0.05
							c0.05-1.76-0.93-2.72-2.68-2.64c-1.85,0.08-2.27,1.33-2.55,2.92c-0.01,0.03-0.05,0.03-0.06,0.01
							c-0.44-0.87-0.5-1.52-0.07-2.42c0.41-0.85,1.48-1.34,2.38-1.39c1.76-0.08,2.9,0.73,3.3,2.12c0.16-3.41-3.49-6.25-6.73-6.68
							C161.52,198.47,161.5,198,161.82,198.03z"/>
					</g>
				</g>
			</g>
			<g>
				<g>
					<path class="st19" d="M293.77,378.12c0,0-9.77-5.41-9.47-21.73c0.3-16.32,7.98-24.48,8.87-25.29
						c0.89-0.81-5.74-2.64-10.98,1.68c-5.24,4.33-8.55,12.76-8.1,18.52c0,0-2.15-3.98-3.65-3.84c-1.5,0.14-4.91,6.27,2.32,15.18
						c0,0-4.62-3.54-5.52-0.71c-0.89,2.84,9.49,23.44,26.29,20.67L293.77,378.12z"/>
					<path class="st20" d="M280.23,375.13c-4.44-3.64,2.51-3,2.51-3c-5.16-1.83-8.98-13.24-7.92-14.61
						c1.06-1.37,4.88,4.51,4.88,4.51s-2.83-11.37,1.05-20.68c2.57-6.18,8.54-9.31,12.26-10.72c0.24,0.16,0.31,0.33,0.15,0.46
						c-0.89,0.81-8.57,8.96-8.87,25.29c-0.3,16.33,9.47,21.73,9.47,21.73l-0.1,2.04C288.42,380.82,284.09,378.28,280.23,375.13z"/>
					<path class="st27" d="M267.25,361.93c0.35-1.1,1.25-1.24,2.22-1c-0.49,0.1-0.89,0.42-1.09,1.06
						c-0.81,2.57,7.61,19.67,21.66,20.86C275.32,382.52,266.42,364.56,267.25,361.93z"/>
					<path class="st27" d="M272.77,362.63c0,0-0.55-0.69-0.91-1.19c-6.02-8.26-2.85-13.86-1.42-13.99c0.24-0.02,0.49,0.06,0.74,0.21
						C269.6,348.65,267.94,353.91,272.77,362.63z"/>
				</g>
				<g>
					<path class="st28" d="M365.15,356.44c0,0-3.01,23.45-1.49,29.29c0,0,8.47,1.5,8.29,2.88c-0.18,1.38-9.82,2.06-12.73,0.42
						c0,0-5.25-18.64-5.89-29.14C352.69,349.4,365.15,356.44,365.15,356.44z"/>
					<path class="st28" d="M358.54,384.18c0,0-0.8,2.96-1.11,1.96c-0.31-1,0.14-2.67,0.14-2.67s-0.66,0.04-0.79-0.74
						c-0.14-0.78,0.46-0.89,0.46-0.89s-0.77-1.02-0.97-1.8c-0.2-0.78,1.26-0.29,1.26-0.29L358.54,384.18z"/>
					<path class="st29" d="M365.15,356.44c0,0-0.48,3.76-0.96,8.64c-0.63,1.17-1.4,2.25-2.32,3.13c-3.48,3.35-4.19-1.5-4.19-1.5
						c-0.68,1.22-1.61,2.71-2.73,4.37c-0.78-3.98-1.41-7.97-1.61-11.19C352.69,349.4,365.15,356.44,365.15,356.44z"/>
					<path class="st29" d="M354.41,355.39c0,0.09,0.36,10.2,1.78,21.6c-1.29-5.68-2.57-12.25-2.86-17.1
						C353.19,357.7,353.63,356.27,354.41,355.39z"/>
				</g>
				<g>
					<path class="st19" d="M344.78,286.41c-7.28-3.31-24.93-3.19-26.6,6.44c-1.66,9.63,7.4,20.85-3.3,29.2
						c-7.45,5.82,8.09,15.15,16.11,15.02c0,0-4.67,11.08-20.44,16.15c-15.77,5.07-24.37,28.32-12.91,36.94
						c4.11,3.09,26.81,6.17,36.96-0.26c10.15-6.43,19.78-19.39,23.19-25.52c0,0,0.71,4.84,4.2,1.49c3.48-3.35,4.86-9.47,4.28-12.81
						c0,0,1,5.5,2.47,3.97c1.47-1.53,4.31-7.04,3.99-17.53C372.41,329.04,361.17,293.87,344.78,286.41z"/>
					<path class="st20" d="M331.35,336.57l0.85-4.71c0,0,17.44-0.65,36.96-8.58c1.66,5.12,2.78,9.78,3.28,13.22
						C367.36,338.61,347.7,345.65,331.35,336.57z"/>
					<g>
						<path class="st27" d="M360.44,332.54c0.22,2.47,0.37,4.96,0.08,7.43c-0.13,1.11-0.32,2.55-1.19,3.36
							c-2.11,1.96-4.24-3.76-4.54-4.87c-0.07-0.25,0.3-0.42,0.43-0.18c0.41,0.73,2.66,6.11,3.96,4.16c0.66-1,0.79-2.43,0.92-3.58
							c0.23-2.09,0.23-4.22,0.16-6.32C360.25,332.42,360.43,332.43,360.44,332.54L360.44,332.54z"/>
					</g>
					<path class="st20" d="M344.41,374.84c1.65-0.9,3.08,0.84,4.02,2.55c-1.99,2.31-5.7,6.19-7.82,7.96
						C340.61,382.54,342.25,376.02,344.41,374.84z"/>
					<path class="st20" d="M370.74,339.21c-0.79-17.06-11.41-36.58-14.68-42.76c10.06,13.53,16.43,35.23,16.67,43.08
						c0.32,10.48-2.52,16-3.99,17.53C369.45,354.72,371.14,347.62,370.74,339.21z"/>
					<path class="st27" d="M310.55,353.23c13.48-4.33,18.84-13.05,20.12-15.5c1.83,0.44,3.59,0.64,5.07,0.54
						c0,0-4.03,11.33-19.49,17.28c-15.06,5.8-22.34,28.44-11.68,36.96c-3.28-0.65-5.8-1.49-6.92-2.34
						C286.18,381.56,294.78,358.31,310.55,353.23z"/>
					<path class="st20" d="M321.06,323.89l39.16-4.97c0,0-2.33,15.24-17.13,21.48c-5.87,2.47-11.4,3.01-16.02,2.43
						c2.85-3.21,3.92-5.75,3.92-5.75c-4.65,0.07-11.82-3.03-15.58-6.79C317.35,326.78,321.06,323.89,321.06,323.89z"/>
					<g>
						<path class="st18" d="M369.98,322.85c0,0,3.46,7.14,3.54,13.01c0,0-23.95,9.86-42.31-1.64l1.1-4.66
							C332.31,329.56,349.94,329.84,369.98,322.85z"/>
						<path class="st30" d="M369.98,322.85c0,0,0.22,0.46,0.55,1.24c-3.3,1.61-11.86,4.98-25.02,4.5
							C352.21,327.71,360.84,326.03,369.98,322.85z"/>
						<path class="st31" d="M332.31,329.56c0,0,10.93,0.17,25.36-3.17c-2.1,4.29-5.82,9.48-12.28,12.91
							c-4.77-0.7-9.65-2.24-14.18-5.08L332.31,329.56z"/>
					</g>
					<g>
						<path class="st27" d="M357.76,349.48c0.21,1.67,0.24,4.43-0.93,5.79c-2,2.33-3.9-3.29-4.3-4.31c0.56-0.05,1.13-0.09,1.69-0.14
							c-0.33,1.56-2.04,2.35-3.52,2.37c-1.75,0.02-2.96-0.75-3.92-2.18c-2.03-3.02-1.3-7.82-0.46-11.1
							c0.15-0.58,0.91-0.32,0.95,0.18c0.2,2.63-0.19,5.27,0.3,7.88c0.22,1.18,0.73,2.4,1.76,3.09c0.89,0.58,2.82,0.26,3.13-0.82
							c0.26-0.92,1.55-0.75,1.78,0.09c0.33,1.22,0.58,2.46,1.14,3.6c0.49,0.98,0.82,0.43,1.13-0.29c0.53-1.25,0.81-2.76,0.81-4.12
							C357.35,349.28,357.73,349.24,357.76,349.48L357.76,349.48z"/>
					</g>
					<g>
						<path class="st27" d="M363.71,346.19c0.29,1.05,0.91,2.09,1.78,2.75c1.41,1.07,1.77-1.74,1.86-2.48
							c0.13-1.08,0.17-2.19,0.2-3.28c0.02-0.78-0.08-1.61,0.23-2.34c0.31-0.73,1.35-0.42,1.56,0.2c0.39,1.2-0.07,3.09-0.23,4.32
							c-0.15,1.21-0.33,2.89-1.22,3.82c-2.14,2.25-4.06-0.94-4.33-2.98C363.54,346.13,363.68,346.11,363.71,346.19L363.71,346.19z"
							/>
					</g>
					<g>
						<path class="st19" d="M324.23,287.39c0,0-0.83-4.64-5.12-4.32c-4.29,0.32-13.07,9.27-10.65,12.06c2.42,2.79,3.96-4.39,10.57,0
							L324.23,287.39z"/>
						<path class="st27" d="M319.11,283.08c4.29-0.32,5.12,4.32,5.12,4.32s-1.81-4.35-5.93-3.12c-3.2,0.95-7.94,7.57-8.5,11.52
							c-0.44,0.05-0.88-0.12-1.35-0.66C306.03,292.34,314.82,283.39,319.11,283.08z"/>
						<path class="st27" d="M320.45,294.84c-1.12,9.71,8.57,20.4-1.64,29.34c-4.88,4.27,1.14,9.58,7.99,12.31
							c-8.12-2.12-18.2-9.53-11.91-14.44c10.7-8.35,1.64-19.57,3.3-29.2c1.63-9.41,18.51-9.74,26.08-6.67
							C335.98,284.3,321.46,286.05,320.45,294.84z"/>
						<path class="st19" d="M360.22,318.91c0,0-5.33,14.47-21.08,17.62c-15.75,3.15-26.97-5.32-27.12-10.72
							c-0.15-5.4,8.83-9.86,8.83-9.86"/>
						<path class="st27" d="M315.15,319.93c-1.52,1.56-2.72,3.43-2.66,5.43c0.15,5.4,11.36,13.87,27.11,10.73
							c6.18-1.24,10.76-4.22,14.04-7.38c-3.31,3.33-8.02,6.54-14.5,7.84c-15.75,3.15-26.97-5.32-27.12-10.72
							C311.96,323.61,313.41,321.57,315.15,319.93z"/>
						<path class="st19" d="M344.96,289.2c0,0,1.06-8.17,7.05-8.4c7.28-0.27,20.93,10.83,18.43,13.54
							c-1.7,1.84-11.14-1.53-15.02-0.76c-3.88,0.76-3.97,2.47-3.97,2.47"/>
						<path class="st32" d="M344.23,313.33c0,0,0.34,0.15,0.92,0.45c0.29,0.15,0.63,0.35,1.02,0.58c0.39,0.23,0.81,0.51,1.26,0.83
							c0.45,0.31,0.9,0.7,1.37,1.1c0.46,0.42,0.91,0.89,1.33,1.41c0.41,0.52,0.8,1.08,1.1,1.7c0.3,0.62,0.57,1.26,0.69,1.95
							c0.1,0.33,0.1,0.69,0.17,1.03c0.02,0.17,0.02,0.35,0.03,0.52c0,0.17,0.03,0.34,0.01,0.52c-0.02,0.34-0.01,0.69-0.07,1.02
							c-0.05,0.34-0.07,0.68-0.16,1c-0.12,0.66-0.33,1.28-0.51,1.88c-0.11,0.29-0.22,0.58-0.32,0.86c-0.1,0.28-0.23,0.54-0.33,0.79
							c-0.21,0.51-0.44,0.96-0.64,1.37c-0.1,0.2-0.19,0.39-0.28,0.57c-0.1,0.17-0.18,0.33-0.26,0.48c-0.31,0.58-0.48,0.92-0.48,0.92
							l0,0c-0.04,0.07-0.01,0.16,0.06,0.19c0.06,0.03,0.13,0.02,0.17-0.03c0,0,0.25-0.28,0.68-0.8c0.11-0.13,0.22-0.27,0.35-0.43
							c0.12-0.17,0.24-0.34,0.38-0.53c0.13-0.19,0.28-0.39,0.43-0.61c0.15-0.21,0.28-0.46,0.43-0.71c0.14-0.25,0.31-0.5,0.44-0.79
							c0.13-0.28,0.28-0.58,0.42-0.88c0.26-0.62,0.51-1.28,0.69-2c0.2-0.71,0.31-1.48,0.34-2.27c0.02-0.2,0-0.4,0-0.59
							c-0.01-0.2-0.01-0.4-0.03-0.6l-0.08-0.6c-0.02-0.1-0.03-0.2-0.05-0.3l-0.07-0.3c-0.17-0.8-0.48-1.55-0.85-2.25
							c-0.38-0.7-0.85-1.32-1.34-1.88c-0.5-0.55-1.04-1.02-1.57-1.43c-0.54-0.41-1.07-0.75-1.58-1.03
							c-0.51-0.29-0.99-0.51-1.42-0.69c-0.43-0.19-0.82-0.32-1.13-0.42c-0.64-0.2-1.02-0.28-1.02-0.28h0
							c-0.08-0.02-0.15,0.04-0.17,0.11C344.14,313.23,344.17,313.3,344.23,313.33z"/>
						<path class="st27" d="M350.62,282.71c-1.23,1.46-1.47,7.67-1.5,10.87l-4.15-4.38c0,0,1.06-8.17,7.05-8.4
							c2.18-0.08,4.94,0.86,7.67,2.3C355.7,282.28,351.47,281.71,350.62,282.71z"/>
						<path class="st20" d="M362.38,292.53c2.66,1.02,5.43,1.77,7.29,2.22c-2.84,0.77-10.77-1.86-14.25-1.18
							c-2.69,0.53-3.56,1.51-3.84,2.06C350.85,288.06,358.04,290.87,362.38,292.53z"/>
						<g>
							<path class="st32" d="M331.85,320.14c2.34,3.94-0.09,10.17-8.91,11.42c-8.82,1.24-13.9-6.07-13.8-10.01
								c0.09-3.95,6.64-6.6,11.55-6.57C325.6,315.02,330.08,317.17,331.85,320.14z"/>
							<path class="st18" d="M320.69,314.98c4.23,0.03,8.15,1.64,10.28,3.98c-6.3-1.69-11.15,0.51-11.61,4.24
								c-0.36,2.95,1.19,6.45,3.23,8.4c-8.6,1-13.54-6.15-13.45-10.05C309.24,317.6,315.78,314.95,320.69,314.98z"/>
							<g>
								<path class="st17" d="M319.82,323.03c-1.16,0.73-2.54,0.76-3.86,0.7c-1.44-0.06-3.69-0.23-4.72-1.35
									c-0.36-0.39-0.11-1.01,0.43-1.03c1.16-0.04,2.45,0.68,3.56,1c1.36,0.4,3.02,0.73,4.39,0.21
									C319.9,322.46,320.05,322.88,319.82,323.03L319.82,323.03z"/>
							</g>
							<path class="st33" d="M332.38,325.2c-0.93,2.88-3.95,5.59-9.43,6.36c-6.81,0.96-11.38-3.17-13.07-6.92
								C321.02,329.22,328.88,326.86,332.38,325.2z"/>
							<path class="st30" d="M320.69,314.98c0.41,0,0.82,0.02,1.22,0.06c-0.08,0-0.17-0.01-0.25-0.01
								c-4.91-0.04-11.45,2.62-11.55,6.57c-0.08,3.45,3.8,9.48,10.7,10.09c-7.5-0.1-11.75-6.52-11.67-10.14
								C309.24,317.6,315.78,314.95,320.69,314.98z"/>
						</g>
						<g>
							<g>
								<path class="st34" d="M337.05,311.76c0.61,2.51-2.7,2.75-3.78,0.88c-1.08-1.87-1.05-4.43-0.08-4.6
									C334.15,307.87,336.47,309.39,337.05,311.76z"/>
								<path class="st1" d="M336.65,311.73c0.61,2.51-2.7,2.75-3.78,0.88c-1.08-1.87-1.05-4.43-0.08-4.6
									C333.76,307.85,336.08,309.37,336.65,311.73z"/>
								<path class="st32" d="M333.78,310.27c0.42-0.49,0.58-1.08,0.6-1.7c-0.61-0.41-1.2-0.61-1.59-0.55
									c-0.69,0.12-0.89,1.43-0.58,2.84C332.77,310.96,333.33,310.81,333.78,310.27z"/>
								<path class="st35" d="M334.5,309.32c-0.38-0.43-0.93-0.55-1.25-0.27c-0.31,0.28-0.26,0.85,0.12,1.27
									c0.38,0.43,0.94,0.55,1.25,0.27C334.93,310.31,334.88,309.74,334.5,309.32z"/>
							</g>
							<g>
								<path class="st34" d="M326.53,308.34c0.85,0.49,2.17,3.32,1.23,4.79c-0.95,1.47-2.83,0.59-3.1-0.76
									C324.37,311,325.39,307.69,326.53,308.34z"/>
								<path class="st1" d="M326.56,308.37c0.79,0.57,1.81,3.53,0.72,4.89c-1.1,1.36-2.87,0.29-3.01-1.08
									C324.14,310.79,325.5,307.6,326.56,308.37z"/>
								<path class="st32" d="M326.72,310.25c0.26-0.2,0.45-0.43,0.6-0.68c-0.23-0.56-0.5-1.02-0.76-1.2
									c-0.66-0.48-1.44,0.59-1.9,1.79C325.24,310.68,325.94,310.85,326.72,310.25z"/>
								<path class="st35" d="M325.83,310.66c0.26,0.51,0.76,0.77,1.14,0.59c0.37-0.18,0.47-0.75,0.22-1.26
									c-0.25-0.51-0.76-0.78-1.13-0.59C325.67,309.59,325.58,310.15,325.83,310.66z"/>
							</g>
						</g>
					</g>
				</g>
				<path class="st27" d="M274.09,351.3c0,0-0.06-1.03-0.02-1.78c0.24-5.61,3.4-12.84,8.12-16.74c3.05-2.52,6.57-2.95,8.81-2.71
					c-2.19,0.01-5.1,0.64-7.68,2.77C278.09,337.16,275.42,343.03,274.09,351.3z"/>
				<g>
					<path class="st20" d="M354.41,355.38c0,0,0.46,5.12,1.47,12.16c-2.24,3.44-5.51,7.8-9.33,11.97c-2.61-5.44-4.7-9.99-4.7-9.99
						L354.41,355.38z"/>
					<path class="st19" d="M340.31,367.99l14.1-12.61c0,0-0.57,23.76,2.67,39.84c0,0,8.16,0.83,8.05,3.51
						c-0.05,1.17-11.64,1.22-13.79-1.24c-0.73-0.83-2.22-4.48-3.88-8.94c-0.23,0.47-0.49,0.9-0.76,1.12
						c-0.9,0.76-0.49-4.53-0.49-4.54l0,0c0,0-0.68,1.38-1.39,1.29c-0.46-0.06-0.1-2.7,0.21-4.61
						C342.53,374.75,340.31,367.99,340.31,367.99z"/>
					<path class="st36" d="M346.2,385.14c0,0-0.02,0.07-0.04,0.21c-0.02,0.13-0.06,0.32-0.08,0.55c-0.06,0.46-0.11,1.08-0.1,1.7
						c0,0.62,0.05,1.24,0.19,1.7c0.04,0.12,0.07,0.22,0.13,0.31c0.05,0.08,0.13,0.16,0.21,0.17c0.04,0.01,0.07-0.01,0.1-0.02
						c0.03-0.01,0.04-0.03,0.06-0.04c0.03-0.02,0.04-0.04,0.04-0.04s-0.02,0.01-0.05,0.03c-0.03,0.01-0.09,0.04-0.14,0.01
						c-0.11-0.04-0.16-0.24-0.19-0.45c-0.06-0.44-0.06-1.06-0.06-1.67c0-0.61,0-1.23-0.02-1.69c0-0.23-0.02-0.42-0.02-0.56
						C346.21,385.22,346.2,385.14,346.2,385.14z"/>
					<path class="st36" d="M345.37,379.87c0,0-0.03,0.1-0.08,0.28c-0.05,0.18-0.12,0.43-0.19,0.74c-0.14,0.61-0.31,1.43-0.42,2.27
						c-0.11,0.83-0.18,1.67-0.16,2.3c0.01,0.32,0.05,0.58,0.11,0.76c0.03,0.09,0.07,0.16,0.12,0.19c0.04,0.03,0.07,0.02,0.07,0.03
						c0,0-0.03,0-0.06-0.04c-0.03-0.03-0.06-0.1-0.07-0.19c-0.03-0.18-0.02-0.44,0-0.75c0.05-0.62,0.16-1.44,0.28-2.27
						c0.11-0.83,0.23-1.65,0.3-2.28c0.04-0.31,0.06-0.57,0.08-0.75C345.36,379.97,345.37,379.87,345.37,379.87z"/>
				</g>
				<g>
					<path class="st20" d="M324.95,359.31c0,0,15.01-4.47,19.08,10.12c2.12,7.61-0.42,12.72-3.33,15.86
						c-1.37,1.2-2.77,2.33-4.19,3.35c-0.34,0.29-0.81,0.57-1.05,0.72c-0.28,0.19-0.57,0.38-0.85,0.56
						c-8.08,5.12-24.12,4.21-32.4,2.07c0.7-0.61,1.6-1.01,1.6-1.01L324.95,359.31z"/>
					<path class="st19" d="M324.95,359.31c0,0,15.57-1.68,16.94,13.4c1.37,15.08-12.45,18.01-12.45,18.01s18.5,1.58,18.4,5.63
						c-0.1,4.05-44.58-2.36-49.93-5.32c-5.39-2.97,0.53-4.4,0.53-4.4c0.71-0.3,3.38,0.17,3.38,0.17"/>
					<path class="st27" d="M347.84,396.35c0,0,0-0.03,0.01-0.08c0-0.05,0-0.13-0.01-0.23c-0.02-0.2-0.11-0.51-0.35-0.83
						c-0.23-0.32-0.58-0.65-1.03-0.96c-0.44-0.31-0.98-0.61-1.58-0.88c-0.6-0.28-1.26-0.54-1.98-0.77
						c-0.71-0.24-1.47-0.47-2.26-0.67c-0.79-0.2-1.61-0.4-2.45-0.56c-0.84-0.16-1.69-0.31-2.55-0.45c-0.86-0.13-1.72-0.24-2.56-0.34
						c-0.85-0.11-1.68-0.17-2.49-0.24c-0.4-0.03-0.82-0.07-1.18-0.08c-0.39-0.03-0.77-0.06-1.14-0.09c-0.74-0.06-1.44-0.1-2.08-0.15
						c-0.65-0.04-1.24-0.07-1.76-0.1c-0.52-0.03-0.98-0.05-1.36-0.08c-0.75-0.04-1.19-0.04-1.19-0.04s0.42,0.1,1.16,0.27
						c0.37,0.08,0.82,0.19,1.34,0.28c0.52,0.09,1.1,0.21,1.74,0.31c0.64,0.11,1.33,0.23,2.06,0.34c0.37,0.06,0.74,0.12,1.13,0.17
						c0.39,0.05,0.78,0.1,1.19,0.15c0.8,0.11,1.62,0.22,2.45,0.34c0.84,0.12,1.68,0.24,2.53,0.38c0.85,0.13,1.69,0.26,2.52,0.41
						c0.83,0.15,1.64,0.29,2.43,0.45c0.78,0.17,1.54,0.33,2.25,0.5c0.71,0.18,1.37,0.37,1.97,0.57c1.2,0.4,2.16,0.87,2.68,1.38
						c0.26,0.25,0.4,0.51,0.46,0.7c0.03,0.09,0.05,0.17,0.05,0.22C347.84,396.33,347.84,396.35,347.84,396.35z"/>
					<path class="st27" d="M345.02,397.52c0,0,0-0.16-0.06-0.42c-0.02-0.07-0.04-0.14-0.07-0.22c-0.03-0.08-0.06-0.16-0.1-0.25
						c-0.08-0.17-0.18-0.37-0.32-0.56c-0.07-0.1-0.14-0.2-0.22-0.3c-0.09-0.09-0.18-0.19-0.27-0.29c-0.09-0.1-0.2-0.19-0.31-0.28
						c-0.11-0.09-0.22-0.19-0.34-0.27c-0.25-0.16-0.5-0.34-0.78-0.46c-0.14-0.06-0.28-0.13-0.42-0.2l-0.44-0.15
						c-0.15-0.05-0.3-0.1-0.45-0.14c-0.15-0.04-0.3-0.06-0.45-0.09c-0.15-0.03-0.3-0.06-0.44-0.08c-0.15-0.01-0.29-0.03-0.43-0.04
						c-0.28-0.02-0.56-0.05-0.82-0.03c-0.26,0.01-0.51,0.03-0.73,0.05c-0.23,0.01-0.43,0.06-0.61,0.09
						c-0.18,0.03-0.34,0.07-0.47,0.1c-0.25,0.06-0.4,0.11-0.4,0.11s0.15,0.05,0.4,0.12c0.13,0.03,0.28,0.07,0.46,0.11
						c0.18,0.04,0.37,0.07,0.58,0.13c0.21,0.05,0.44,0.1,0.68,0.15c0.24,0.04,0.49,0.12,0.75,0.17c0.13,0.03,0.26,0.06,0.39,0.09
						c0.13,0.04,0.26,0.08,0.39,0.11c0.13,0.04,0.26,0.07,0.4,0.11c0.13,0.03,0.26,0.09,0.39,0.13l0.39,0.12
						c0.12,0.05,0.25,0.1,0.37,0.15c0.26,0.09,0.48,0.21,0.72,0.31c0.12,0.05,0.22,0.12,0.33,0.17c0.11,0.06,0.22,0.11,0.31,0.18
						c0.1,0.06,0.2,0.13,0.29,0.18c0.09,0.06,0.18,0.13,0.26,0.19c0.09,0.06,0.16,0.13,0.23,0.19c0.07,0.06,0.15,0.12,0.21,0.18
						c0.13,0.12,0.24,0.22,0.32,0.32c0.08,0.09,0.16,0.17,0.19,0.23C345,397.49,345.02,397.52,345.02,397.52z"/>
				</g>
			</g>
		</g>
		<g>
			<g>
				<g>
					<g>
						<path class="st15" d="M628.07,291.68c0,0,4.23,7.67,5.91,13.27l8.14-3.47l-1.44-20.31L628.07,291.68z"/>
						<path class="st16" d="M628.07,291.68l12.61-10.51l0.96,13.53c-3.71,0.61-7.45,1.13-11.19,1.64
							C629.16,293.66,628.07,291.68,628.07,291.68z"/>
					</g>
					<g>
						<g>
							<path class="st15" d="M638.97,289.05c0,0-8.01,8.14-22.86,5.78c-14.84-2.37-22.33-21.28-21.8-33.63l31.65-6.96
								C625.97,254.24,645.41,265.02,638.97,289.05z"/>
							<path class="st16" d="M632.3,271.43c-6.52,1.84-13.04,1.67-19.73,1.67c-4.79,0-11.06,0.49-16.75-0.18
								c-1.15-4.08-1.67-8.17-1.52-11.71l31.65-6.96c0,0,17.92,9.94,13.63,32.03c-0.79-1.7-1.65-3.35-2.45-4.81
								C635.48,278.12,633.98,274.77,632.3,271.43z"/>
						</g>
						<g>
							<path class="st18" d="M605.64,279.5c1.22,1.21,3.13,2.07,4.21,0.2c0.59-1.02,0.5-2.64,0.37-3.78
								c-0.03-0.21,0.28-0.22,0.35-0.05c0.66,1.71,0.83,3.52-0.42,5c-1.57,1.86-3.6,0.24-4.81-1.07
								C605.15,279.6,605.44,279.31,605.64,279.5z"/>
							<path class="st18" d="M619.05,289.05c0.08,0.76,0.05,1.66-0.5,2.26c-0.5,0.56-1.3,0.98-1.99,0.53
								c-0.23-0.15-0.22-0.46,0-0.61c0.46-0.32,0.98-0.22,1.34-0.73c0.38-0.53,0.24-1.37,0.09-1.94c-0.3-1.14-1.6-2.14-2.51-2.79
								c-0.03-0.02-0.01-0.08,0.03-0.06C617.2,286.21,618.85,287.09,619.05,289.05z"/>
							<g>
								<path class="st24" d="M601.76,283.44c0.55-0.42,5.35,2.94,6.31,6.3c0.96,3.37-4.13,5.58-6.07,4.48
									c-1.94-1.09-1.2-3.61,0.71-4.57C605.54,288.24,600.67,284.27,601.76,283.44z"/>
								<g>
									<path class="st25" d="M601.99,290.64c0.29-0.16,0.62-0.26,0.91-0.45c0.33-0.23,0.6-0.55,0.89-0.84
										c0.38-0.38,0.94-0.04,0.79,0.47c-0.16,0.53-0.27,1.07-0.55,1.56c-0.35,0.62-1.07,1.16-1.83,0.95
										C601.32,292.09,601.21,291.08,601.99,290.64z"/>
									<path class="st25" d="M604.2,287.8c-0.19-0.41,0.41-0.73,0.68-0.39c0.09,0.12,0.15,0.22,0.22,0.36
										c0.25,0.54-0.69,0.85-0.82,0.21C604.24,287.92,604.22,287.86,604.2,287.8z"/>
								</g>
							</g>
						</g>
					</g>
					<g>
						<g>
							<path class="st18" d="M636.74,275.17c0,0-2.45,4.06-4.93,3.51c-2.49-0.55,0-6.22,0-6.22l-2.21-3.73
								c0,0-36.88,2.07-41.65-6.28c-4.77-8.36,6.15-15.4,14.3-16.72c0,0,5.18-9.19,17.13-12.02c11.95-2.83,21.17,1.85,30.17,14.78
								c9,12.93,15.47,29.66,15.47,29.66s-4.12,15.73-28.05,19.65c0,0-2.63-4.76,1.61-11.34L636.74,275.17z"/>
							<path class="st17" d="M645.48,260.56c1.48,6.4,3.44,12.55,5.9,18.45c1.84,4.11,4.02,7.18,6.73,9.34
								c-4.21,3.88-10.84,7.77-21.16,9.46c0,0-2.63-4.76,1.61-11.34l-1.83-11.3c0,0-2.45,4.06-4.93,3.51c-2.49-0.55,0-6.22,0-6.22
								l-2.21-3.73c0,0-36.88,2.07-41.65-6.28c-2.13-3.73-1.13-7.2,1.36-10.02c0.36,0.25,0.7,0.5,1.08,0.74
								C604.89,262.28,629.24,269.17,645.48,260.56z"/>
							<g>
								<path class="st37" d="M637.25,273.03c-5-5.09-10.08-9.88-15.89-14.11c-6.4-4.66-21.47-13.05-20.03-12.73
									c15.5,3.47,29.67,11.45,36.7,26.24C638.26,272.91,637.67,273.45,637.25,273.03L637.25,273.03z"/>
							</g>
							<g class="st38">
								<path class="st18" d="M612.85,239.58c-0.07,0.02-0.04,0.12,0.03,0.1c25.72-5.4,37.85,20.53,46.34,39.5
									c0.1,0.22,0.48,0.06,0.38-0.16C651.6,259.81,638.85,232.43,612.85,239.58z"/>
								<path class="st18" d="M611.59,241.49c-0.53-0.1-0.76,0.71-0.23,0.81c21.31,4.14,36.38,24.78,44.37,43.6
									c0.19,0.44,0.93,0.12,0.77-0.33C649.57,266.22,632.8,245.43,611.59,241.49z"/>
								<path class="st18" d="M630.77,261.81c0.29-0.05,0.22-0.53-0.07-0.52c-8.13,0.29-19.63-5.75-22.27-13.9
									c-0.11-0.32-0.6-0.19-0.51,0.14C610.18,256.09,622.12,263.39,630.77,261.81z"/>
								<path class="st18" d="M631.09,259.84c0.46,0.62,0.92,1.25,1.37,1.89c-0.05-0.01-0.11-0.01-0.16,0.03
									c-5.28,3.97-11.06,4.25-17.33,2.81c-8.03-1.84-17.98-8.14-12.45-18.22c0.13-0.24-0.22-0.45-0.36-0.21
									c-10.4,16.84,19.54,24.71,30.46,16.04c0.04-0.03,0.05-0.08,0.06-0.12c6.3,9.04,11.38,20.5,11.08,31.42
									c-0.01,0.55,0.79,0.53,0.84,0c1.11-11.52-6.5-24.96-13.43-33.7C631.13,259.73,631.05,259.79,631.09,259.84z"/>
							</g>
						</g>
						<g>
							<path class="st39" d="M639.67,273.54c0,0-5.28-27.92-36.49-29.21c0,0-2.3,0.72-2.63,1.74c0,0,17.55,4.82,29.85,18.39
								c12.3,13.56,7.65,14.61,7.65,14.61L639.67,273.54z"/>
							<g>
								<path class="st40" d="M601.03,244.69c13.42,0.53,25.47,8.51,32.56,19.62c0.24,0.38-0.31,0.8-0.62,0.48
									c-4.35-4.65-7.54-9.22-13.08-12.72c-5.78-3.65-12.33-5.55-18.9-7.16C600.88,244.87,600.9,244.69,601.03,244.69
									L601.03,244.69z"/>
							</g>
							<path class="st39" d="M601.88,243.16c-0.04-0.14-1.65-7.73-8.7-7.64c-7.04,0.09,3.32,9.3,6.95,9.39
								C603.76,245,601.88,243.16,601.88,243.16z"/>
							<path class="st40" d="M605.47,244.34c0.64-1.32-0.41-2.79-2.58-2.88c-2.16-0.09-6.73,3.11-2.34,4.62
								C604.94,247.59,605.47,244.34,605.47,244.34z"/>
							<path class="st39" d="M601.83,244.91c-1.12-0.1,4.88-10.63,9.25-10.96C615.45,233.63,611.58,245.79,601.83,244.91z"/>
							<g>
								<path class="st40" d="M602.61,244.08c0.78-0.92,1.61-1.79,2.42-2.67c0.4-0.44,0.84-0.84,1.24-1.28
									c0.48-0.51,0.85-1.11,1.35-1.6c0.31-0.3,0.96,0,0.78,0.45c-0.97,2.33-3.72,3.78-5.58,5.3
									C602.67,244.39,602.49,244.22,602.61,244.08L602.61,244.08z"/>
							</g>
							<g>
								<path class="st40" d="M601.14,244.15c-2.75-1.09-5.37-2.78-7.43-4.91c-0.35-0.36,0.09-0.89,0.52-0.67
									c2.6,1.33,4.58,3.65,7.1,5.13C601.57,243.83,601.41,244.26,601.14,244.15L601.14,244.15z"/>
							</g>
						</g>
					</g>
					<g>
						<path class="st15" d="M633.48,279.08c0,4.38,3.55,7.92,7.92,7.92c4.38,0,7.92-3.54,7.92-7.92c0-4.37-3.54-7.92-7.92-7.92
							C637.02,271.16,633.48,274.71,633.48,279.08z"/>
						<path class="st26" d="M642.41,275.3c0.16,0.05,0.12,0.27-0.04,0.28c-1.54,0.1-2.7,1.43-3.27,3.02
							c0.57-0.4,1.43-0.45,2.17-0.21c1.5,0.48,2.14,1.95,1.5,3.36c-0.25,0.54-1.05,0.07-0.8-0.47c0.45-0.95-0.12-1.77-1.05-2.08
							c-0.85-0.28-1.74,0.08-2.16,0.87c0,0.01-0.01,0.01-0.01,0.01c-0.13,1.09,0.02,2.16,0.52,2.94c0.4,0.62-0.62,1.21-0.98,0.58
							C636.82,281.06,638.56,274.16,642.41,275.3z"/>
					</g>
				</g>
				<g>
					<g>
						<g>
							<g>
								<path class="st41" d="M603.7,391.33l-1.65,7.57c0,0-15.72-0.29-17.66,5.43c0,0,23,2.82,32.41-1.94l-2.33-11.06H603.7z"/>
								<g>
									<path class="st1" d="M596.21,406.91c-7.03,0-12.24-0.79-12.64-0.86c-0.87-0.13-1.46-0.95-1.32-1.81
										c0.13-0.87,0.95-1.46,1.81-1.32c0.18,0.03,18.04,2.75,32.24-2.02c0.83-0.28,1.73,0.17,2.01,1c0.28,0.83-0.17,1.73-1,2.01
										C610.25,406.27,602.5,406.91,596.21,406.91z"/>
								</g>
								<g>
									<g>
										<path class="st1" d="M601.06,394.95c1.03,0.38,2.17,0.31,3.24,0.59c1.16,0.3,2.39,1.17,3.6,0.7
											c0.75-0.29,1.04-0.99,0.7-1.72c-1.05-2.28-6.17-1.78-7.72-0.3C600.62,394.47,600.77,394.85,601.06,394.95L601.06,394.95z"
											/>
									</g>
									<g>
										<path class="st1" d="M600.61,397.68c1.45,0.72,2.94,1.47,3.97,2.76c0.97,1.2,2.87-0.61,1.72-1.72
											c-0.75-0.72-1.58-1.3-2.55-1.69c-0.94-0.38-1.87-0.39-2.88-0.35C600.38,396.69,600.11,397.43,600.61,397.68L600.61,397.68
											z"/>
									</g>
								</g>
							</g>
							<g>
								<path class="st23" d="M639.76,353.94c0,0-32.55-9.72-37.81-7.49c-5.27,2.23-7.63,4.2-7.63,6.96s6.57,37.96,6.57,37.96
									l18.92,3.81c0,0-1.84-21.28-1.44-21.81c0.39-0.53,15.1,5.12,15.1,5.12L639.76,353.94z"/>
								<path class="st42" d="M614.88,372c0.69,0.11,1.36,0.28,2.07,0.31c0.81,0.04,0.45-0.38,0.07-0.95
									c-0.78-1.16-1.97-2.04-2.98-2.98c-0.29-0.27,0.1-0.8,0.43-0.56c1.46,1.03,3.74,2.13,4.37,3.93
									c0.29,0.84-0.04,1.85-0.95,2.13c-0.45,0.14-0.91,0.14-1.36,0.07c0.17,0.39-0.24,0.94-0.68,0.76
									c-0.8-0.32-1.34-0.9-1.81-1.62C613.63,372.49,614.28,371.9,614.88,372z"/>
								<path class="st42" d="M595.13,359.26c-0.5-3.05-0.82-5.24-0.82-5.85c0-2.76,2.37-4.73,7.63-6.96c1.84-0.78,7-0.1,12.94,1.11
									c-2.15,2.05-4.56,3.9-7.08,5.52C603.77,355.8,599.59,357.84,595.13,359.26z"/>
							</g>
						</g>
						<g>
							<g>
								<path class="st41" d="M672.8,408.93l5.94-3.34c0,0,8.99,10.51,13.89,8.44c0,0-11.58-16.77-20.21-20.19l-7.9,5.65
									L672.8,408.93z"/>
								<g>
									<path class="st1" d="M687.42,404.76c4.11,4.62,6.63,8.51,6.82,8.82c0.42,0.65,0.23,1.51-0.42,1.93
										c-0.65,0.42-1.51,0.23-1.93-0.42c-0.09-0.13-8.73-13.47-20.16-20.03c-0.67-0.38-0.9-1.24-0.52-1.91
										c0.38-0.67,1.24-0.9,1.91-0.52C678.8,395.9,683.74,400.62,687.42,404.76z"/>
								</g>
								<g>
									<g>
										<path class="st1" d="M676.72,408.55c-0.35-0.9-1.06-1.61-1.5-2.47c-0.48-0.94-0.63-2.25-1.64-2.77
											c-0.63-0.32-1.26-0.11-1.54,0.54c-0.88,2.02,2.43,5.1,4.32,5.26C676.66,409.13,676.82,408.81,676.72,408.55L676.72,408.55
											z"/>
									</g>
									<g>
										<path class="st1" d="M678.78,407.25c-0.37-1.38-0.75-2.79-0.5-4.23c0.23-1.34-2.08-1.53-2.14-0.13
											c-0.04,0.91,0.07,1.8,0.38,2.66c0.3,0.84,0.84,1.46,1.45,2.1C678.26,407.98,678.91,407.73,678.78,407.25L678.78,407.25z"
											/>
									</g>
								</g>
							</g>
							<g>
								<path class="st43" d="M664.63,355.48c-8.91,1.73-16.3,1.14-25.42-1.7c-1.44,6.43-6.27,13.12-6.27,13.12
									c-19.01,15.84-27.76,34.35-27,39.17c0.76,4.82,5.07,7.23,22.06,8.87c16.98,1.65,45.89,0,45.89,0
									c-0.13-13.44-8.24-18.89-8.24-18.89c-11.91-1.14-27.51-1.52-27.51-1.52s36.76-16.48,39.93-28.52
									c1.16-4.42,1.02-9.6,0.37-14.4C674.03,353.23,669.45,354.54,664.63,355.48z"/>
								<path class="st44" d="M629.34,395.32c8.22-6.58,20.28-10.42,29.6-15.35c5.71-3.11,11.41-6.48,17.06-10.02
									c-8.48,11.4-37.87,24.58-37.87,24.58s15.6,0.38,27.51,1.52c0,0,2.97,2.01,5.34,6.58c-3.97,0.41-7.98,0.73-12.05,0.92
									C653.45,404.09,615.63,406.28,629.34,395.32z"/>
								<g class="st3">
									<path class="st42" d="M627.41,371.79c5.83-7.86,17.02-11.7,26.04-14.43c0.89-0.27,1.23,1.07,0.38,1.38
										c-9.62,3.42-18.05,7.16-26.37,13.1C627.43,371.86,627.39,371.82,627.41,371.79L627.41,371.79z"/>
								</g>
							</g>
							<g>
								<g>
									<g>
										<path class="st45" d="M635.62,325.88c0,0,5.02,17.2,3.43,28.5c0,0,17.18,9.13,39.37-2.78c0,0-14.21-47.53-36.52-54.63
											C626.36,292.03,634.02,321.54,635.62,325.88z"/>
									</g>
								</g>
								<path class="st46" d="M645.9,352.39c-0.58-6.9-1.73-13.8-3.26-20.69c-1.92-7.09-3.83-14.18-5.36-21.46
									c-0.95-4.22-2.09-8.63-1.71-12.89c-6.61,4.59-1.25,24.98,0.06,28.53c0,0,5.02,17.2,3.43,28.5c0,0,2.58,1.36,7.01,2.35
									C646.09,355.34,646.05,353.9,645.9,352.39z"/>
							</g>
						</g>
					</g>
					<g>
						<g>
							<path class="st18" d="M545.43,353.22c5.42-3.54,13.94-5.61,18.77-6.71c4.84-1.1,13.41-2.92,19.83-2.07
								c4.94,7.43,5.12,13.58,5.12,13.58s-7.97,4.25-20.71,7.15c-12.74,2.9-21.76,2.52-21.76,2.52S544.19,362.06,545.43,353.22z"/>
							<path class="st31" d="M578.14,350.1c1.94-1.4,2.45-3.58,2.38-5.88c1.21,0,2.39,0.07,3.5,0.21
								c4.94,7.43,5.12,13.58,5.12,13.58s-7.97,4.25-20.71,7.15c-7.7,1.75-14.04,2.3-17.85,2.47
								C558.96,361.26,574.86,352.34,578.14,350.1z"/>
							<g>
								<path class="st31" d="M582.61,345.37c0.19,0.85-7.83,3.41-17.91,5.7c-10.08,2.29-18.42,3.47-18.61,2.61
									c-0.19-0.85,7.83-3.4,17.91-5.7C574.08,345.69,582.42,344.52,582.61,345.37z"/>
								<path class="st47" d="M582.07,345.14c-1.64,0.24-3.28,0.5-4.91,0.83c-5.06,1.04-10.02,2.53-14.82,4.39
									c-1.88,0.73-3.78,1.5-5.64,2.36c2.43-0.45,5.14-1.01,7.99-1.66c10.09-2.29,18.11-4.85,17.91-5.7
									C582.58,345.25,582.39,345.18,582.07,345.14z"/>
							</g>
							<g>
								<path class="st17" d="M583.52,345.38c-4.82,3.69-10.93,5.39-16.24,6.47c-7.19,1.48-14.03,3.34-21.24,3.03
									c-0.74-0.03-0.64-0.81,0.09-0.84c6.57-0.21,13.37-1.99,19.81-3.26c6.25-1.23,11.5-3.12,17.21-5.8
									C583.38,344.88,583.71,345.14,583.52,345.38L583.52,345.38z"/>
							</g>
						</g>
						<g>
							<path class="st15" d="M630.95,330.33c0,0-11.43,18.36-38.6,25.67c0,0-6.47,6.42-9.21,6.44c-2.74,0.02-3.88-0.83-3.88-0.83
								s-1.59,0.57-3.08-0.51c-1.48-1.08-2.56-4.33-2.56-4.33s-7.4-3.92-3.7-5.64c1.98-0.93,6.04,2.14,8.61,1.57
								c2.57-0.57,5.81-2.99,5.87-4.36c0.06-1.37-0.29-2.85-0.4-3.42c-0.11-0.57,0.89-1.2,2.62-0.28c1.82,0.96,3.76,3.02,3.71,5.64
								c0,0,13.39-7.92,20.63-14.93c7.24-7.01,13.74-16.93,13.74-16.93L630.95,330.33z"/>
							<path class="st16" d="M617.49,336.02c-3.09,0.69-6.19,1.27-9.31,1.8c0.99-0.83,1.92-1.67,2.77-2.49
								c7.24-7.01,13.74-16.93,13.74-16.93l6.26,11.93c0,0-1.39,2.23-4.35,5.44C623.6,335.34,620.63,335.31,617.49,336.02z"/>
							<g>
								<g>
									<path class="st26" d="M573.81,356.56c3.39,0.42,6.04-0.55,9.15-1.67c0.27-0.1,0.42,0.31,0.19,0.46
										c-2.82,1.74-6.18,2.08-9.35,1.29C573.77,356.62,573.77,356.56,573.81,356.56L573.81,356.56z"/>
								</g>
								<g>
									<path class="st26" d="M579.26,361.41c1.97-0.88,3.74-2.09,5.62-3.12c0.28-0.15,0.6,0.23,0.35,0.45
										c-1.7,1.5-3.7,2.29-5.86,2.93C579.22,361.71,579.11,361.47,579.26,361.41L579.26,361.41z"/>
								</g>
							</g>
						</g>
						<g>
							<path class="st45" d="M615.12,327.48c0,0,8.6,4.8,18.7,4.11c0,0,14.08-23.29,12.89-27.37c-1.18-4.07-8.86-7.49-16.6-3.31
								C622.38,305.1,615.12,327.48,615.12,327.48z"/>
							<path class="st46" d="M633.81,331.6c0,0,14.08-23.29,12.89-27.37c-0.32-1.09-1.1-2.12-2.22-2.98
								c-4.68,7.38-11.2,14.19-16.8,19.7c-3.28,3.09-6.9,5.5-10.75,7.41C619.97,329.71,626.49,332.09,633.81,331.6z"/>
						</g>
					</g>
				</g>
			</g>
			<g>
				<g>
					<path class="st48" d="M462.71,415.29c-4.34,3.29-9.17,1.62-12.69-2.15c-3.81-4.09-4.06-10.3-7.34-14.76
						c-3.08-4.19-7.69-6.3-12.81-6.64c-4.43-0.3-10,3.55-9.48,8.38c0.38,3.49,3.85,4.91,6.58,2.73c1.35-1.08,1.15-2.04,2.9-2.01
						c2.11,0.04,4.45,1.81,6.07,2.99c4.13,3,5.07,8.79,8,12.74c2.77,3.74,7.46,6.85,12.26,6.36c4.05-0.41,6.33-3.4,7.14-7.14
						C463.43,415.45,463.05,415.03,462.71,415.29z"/>
					<g>
						<path class="st49" d="M456.75,416.97c-0.81-0.11-1.61-0.34-2.4-0.67c-0.31,0.97-0.54,1.98-0.65,3.07
							c-0.11,1.14-0.16,2.31-0.11,3.48c0.86,0.13,1.74,0.17,2.62,0.08c0.25-0.02,0.49-0.06,0.73-0.11
							c-0.19-1.12-0.33-2.27-0.36-3.46C456.56,418.56,456.63,417.76,456.75,416.97z"/>
						<path class="st49" d="M451.35,414.39c-0.46-0.39-0.9-0.81-1.32-1.26c-0.14-0.16-0.27-0.32-0.41-0.48
							c-0.92,1.27-1.84,2.51-2.67,3.85c-0.4,0.65-0.82,1.36-1.22,2.1c0.98,0.96,2.08,1.83,3.27,2.53c0.4-2.22,0.98-4.39,2.15-6.4
							C451.21,414.62,451.27,414.51,451.35,414.39z"/>
						<path class="st49" d="M447.02,408.14c-0.35-0.86-0.68-1.74-1-2.62c-1.76,1.84-3.45,3.9-4.79,6.09c0.65,1.4,1.3,2.79,2.1,4.04
							c0.34-1.02,0.72-2.04,1.18-3.02C445.23,411.09,446.09,409.59,447.02,408.14z"/>
						<path class="st49" d="M443.67,399.91c-0.3-0.53-0.62-1.04-0.98-1.53c-0.23-0.31-0.47-0.61-0.72-0.9
							c-1.5,1.25-2.85,2.77-3.65,3.66c-0.78,0.87-1.52,1.82-2.2,2.83c1.21,0.93,2.15,2.09,2.94,3.37c0.42-1.08,0.88-2.14,1.45-3.17
							C441.4,402.57,442.51,401.22,443.67,399.91z"/>
						<path class="st49" d="M431.86,398.07c-0.34,0.94-0.65,1.92-0.93,2.91c1.04,0.26,2.09,0.83,3.06,1.46
							c0.19-1.18,0.45-2.37,0.8-3.56c0.59-1.97,1.34-3.58,2.44-5.17c-0.74-0.38-1.51-0.71-2.3-0.98
							C433.53,394.16,432.51,396.26,431.86,398.07z"/>
						<path class="st49" d="M420.4,400.11c0.38,3.49,3.85,4.91,6.58,2.73c1.35-1.08,1.15-2.04,2.9-2.01c0.08,0,0.16,0.01,0.24,0.02
							c-1.51-2.65-3.82-4.47-6.33-6.13c-0.25-0.17-0.52-0.32-0.79-0.47C421.28,395.76,420.16,397.82,420.4,400.11z"/>
					</g>
				</g>
				<g>
					<path class="st49" d="M481.49,364.31c0,0-3.44-20.46-1.2-20.7c2.24-0.25,14.95,10.97,17.19,18.86L481.49,364.31z"/>
					<path class="st50" d="M492.44,356.66c-1.87,0.44-3.96,1.1-5.83,0.99c-2.27-0.07-4.44-1.26-6.45-2.6
						c0.57,4.79,1.33,9.27,1.33,9.27l15.99-1.85c-0.55-1.92-1.72-4.04-3.21-6.15C493.66,356.43,493.05,356.54,492.44,356.66z"/>
				</g>
				<g>
					<path class="st48" d="M456.53,344.14c-1.35,0.39-2.39,32.88,18.53,39.61c0,0-2.39,3.88,0,4.33c0,0-1.2,2.24,0.6,2.84
						c0,0-1.65,1.94-0.75,3.14c0,0-5.38,11.36-11.51,15.39c-6.13,4.04-6.73,18.98,3.44,19.73c0,0-1.94,1.79,4.78,2.39
						c6.73,0.6,16.88-2.84,16.88-2.84s12.86-0.15,17.64-2.24c4.78-2.09,10.46-5.83,8.52-15.99c-1.94-10.16-7.92-52.91-15.24-51.86
						c-7.33,1.05-14.79,3.29-14.79,3.29S460.11,343.09,456.53,344.14z"/>
					<path class="st51" d="M467.8,422.62c-0.57-3.43-2.86-6.58-2-10.15c1.86-7.44,12.01-9.44,14.59-16.59
						c2.14-5.72-1.57-12.16-1.72-18.02c-0.14-1.57,0.57-4-0.14-5.72c-0.86-2-4.43-3-6.29-3.86c-4.72-2.43-9.3-5.44-12.44-9.72
						c-1.79-2.42-2.99-5.03-3.85-7.77c0.38,9.97,4.07,28.12,19.12,32.96c0,0-2.39,3.88,0,4.33c0,0-1.2,2.24,0.6,2.84
						c0,0-1.65,1.94-0.75,3.14c0,0-5.38,11.36-11.51,15.39c-6.08,4-6.71,18.75,3.22,19.7C467.61,427.17,468.19,425.02,467.8,422.62z
						"/>
					<g>
						<path class="st49" d="M504.71,410.05c-0.4,5.32-0.24,12.56,4.54,15.99c0.54,0.38-0.28-0.43-0.57-0.95
							c-2.76-4.95-3.14-9.29-3.41-15.04C505.25,409.69,504.73,409.7,504.71,410.05L504.71,410.05z"/>
					</g>
					<g>
						<path class="st49" d="M494.17,412.76c-0.58,5.89-0.36,11.57,3.45,16.4c0.46,0.58,1.33,1.14,1.02,0.6
							c-2.97-5.28-4.15-10.95-4.29-17C494.35,412.64,494.18,412.64,494.17,412.76L494.17,412.76z"/>
					</g>
				</g>
				<g>
					<path class="st15" d="M457.42,346.38c-0.62-1.49-1.2,28.84,17.19,35.87c0,0,2.84-3.29,1.49-3.89c-1.34-0.6-3.59-2.39-1.94-3.29
						c0,0-2.84-1.64-1.64-2.99c1.2-1.35,2.69-1.35,2.69-1.35S462.06,357.59,457.42,346.38z"/>
					<path class="st52" d="M476.11,378.36c-1.34-0.6-3.59-2.39-1.94-3.29c0,0-2.84-1.64-1.64-2.99c1.2-1.35,2.69-1.35,2.69-1.35
						s-9.39-9.39-15.1-19.06c2.34,4.92,5.4,9.51,7.34,15.33c1.23,3.56,1.04,7.35,0.58,11.14c1.87,1.72,4.04,3.13,6.58,4.1
						C474.61,382.25,477.45,378.96,476.11,378.36z"/>
				</g>
				<g>
					<path class="st53" d="M497.75,358.89c-1.34,0.56-3.32,6.32,0,13.49c0,0-13.72,9.86-11.63,11.36c2.09,1.49,4.18,0,4.18,0
						s-4.03,7.92-1.04,7.62c2.99-0.3,3.1-1.79,3.1-1.79s1.53,4.18,3.78,4.04c0,0-1.5,7.17,1.35,8.22c0,0-1.23,7.77,1.03,7.62
						c2.26-0.15,2.41,4.93,5.55,3.14c0,0-2.84,6.88,0,6.13c2.84-0.75,7.92-8.22,7.92-8.22s-0.56,5.53,3.08,1.35
						c0,0,0.66,2.24,3.2-0.75c2.54-2.99,2.54-7.32,2.54-7.32s1.95,2.24,2.99,0.15c1.05-2.09,0-5.98,0-5.98s4.93,2.24,4.48-1.49
						c-0.45-3.74-7.78-8.82-10.84-10.76c-3.06-1.94-4.67-4.63-3.64-5.68c1.03-1.04,13.47-19.03-2.11-22.57
						C508.39,356.69,501.75,357.21,497.75,358.89z"/>
					<path class="st54" d="M516.66,369.54c-2.31,3.96-6.5,5.94-9.69,9.03c-7.71,7.71,10.79,10.24,14.86,11.34
						c0.92,0.24,1.73,0.55,2.47,0.92c-2.38-2.15-5.24-4.09-6.88-5.13c-3.06-1.94-4.67-4.63-3.64-5.68
						c0.84-0.86,9.34-13.08,3.82-19.41C518.17,363.67,518.33,366.79,516.66,369.54z"/>
					<g>
						<path class="st1" d="M503.65,390.08c0.95,0.51,1.79,0.01,2.54-0.63c0.33-0.28-0.09-0.78-0.45-0.58
							c-0.54,0.3-1.39,0.8-1.77-0.11c-0.29-0.68-0.02-1.57,0.11-2.27c0.08-0.4-0.27-0.89-0.72-0.73c-0.91,0.33-1.78,0.85-2.75,0.97
							c-1.4,0.17-0.19-2.73,0.11-3.4c0.11-0.25-0.2-0.54-0.4-0.31c-0.87,0.99-2.57,3.42-1.24,4.7c1.06,1.01,2.53,0.37,3.75-0.31
							C502.74,388.43,502.73,389.58,503.65,390.08z"/>
						<path class="st1" d="M498.4,400.2c-1.71,2.13-1.8,5.27-0.74,7.7c0.22,0.51,1.08,0.25,1.04-0.28c-0.18-2.29-0.96-4.94,0.1-7.11
							C498.92,400.26,498.59,399.96,498.4,400.2z"/>
						<path class="st1" d="M506.09,409.8c-1.81,1.99-3.26,4.51-3.41,7.24c-0.02,0.45,0.65,0.52,0.78,0.11
							c0.73-2.52,1.35-4.97,2.89-7.15C506.45,409.85,506.21,409.67,506.09,409.8z"/>
						<path class="st1" d="M513.05,412.14c-0.54-1.3-0.6-2.57-0.05-3.88c0.16-0.38-0.44-0.59-0.64-0.27
							c-0.8,1.28-1.49,3.5-0.17,4.65C512.54,412.94,513.27,412.66,513.05,412.14z"/>
						<path class="st1" d="M512.22,398.07c-0.42,0.08-0.91,0.17-1.34,0.1c-0.39-0.07-0.56-0.36-0.6-0.7
							c0.02-0.06,0.04-0.11,0.06-0.16c0.13-0.42-0.4-0.68-0.7-0.41c-0.24,0.22-0.43,0.49-0.66,0.73c-0.12,0.12-0.25,0.23-0.39,0.32
							c-0.09,0.06-0.21,0-0.14,0.06c-0.63-0.49-0.25-1.94-0.13-2.58c0.09-0.47-0.55-0.65-0.72-0.2c-0.44,1.25-1,2.99,0.26,3.95
							c0.7,0.53,1.41-0.06,1.91-0.76c0.12,0.24,0.3,0.45,0.54,0.64c0.72,0.54,1.72,0.35,2.36-0.21
							C513.05,398.51,512.64,397.98,512.22,398.07z"/>
						<path class="st1" d="M491.88,382.3c-2.56,1.63-4.71,5.39-3.41,8.44c0.16,0.38,0.76,0.25,0.85-0.11
							c0.3-1.3,0.23-2.64,0.57-3.94c0.39-1.5,1.18-2.93,2.28-4.03C492.35,382.48,492.11,382.15,491.88,382.3z"/>
						<path class="st1" d="M497.96,392.91c-1.16-0.16-2.33-0.33-3.21-1.17c-1.17-1.12-1.6-2.92-1.71-4.47
							c-0.03-0.36-0.52-0.35-0.56,0c-0.2,1.89,0.02,3.96,1.28,5.47c1.04,1.25,2.69,1.53,4.2,1.29
							C498.52,393.94,498.53,392.98,497.96,392.91z"/>
					</g>
				</g>
				<g>
					<path class="st53" d="M503.77,421.76c-0.17,0.14-0.34,0.27-0.52,0.39c-0.67,0.42-1.45,0.3-1.94,0.72
						c-0.49,0.42-0.67,1.76-1.57,1.39c-0.48-0.24-0.67-1.21-0.79-1.69c-0.67,0.67-1.27,1.51-2.18,1.82
						c-0.14,0.05-0.27,0.08-0.4,0.09c0.06,1.53,0.21,3.22,0.52,4.45c0.73,2.85,8.84,5.19,9.38,2.71c0.55-2.47-1.75-5.8-2.36-9.37
						C503.88,422.08,503.83,421.91,503.77,421.76z"/>
					<g>
						<g>
							<path class="st54" d="M503.31,432.74c0.66-0.55,0.29-2.05-0.01-2.7c-0.35-0.74-1.1-2.1-2.05-2.11
								c-0.15,0-0.27,0.18-0.18,0.31c0.18,0.26,0.42,0.38,0.66,0.6c0.4,0.36,0.68,0.83,0.92,1.3c0.21,0.4,0.34,0.86,0.44,1.3
								c0.1,0.43-0.05,0.85,0.07,1.26C503.18,432.77,503.26,432.79,503.31,432.74L503.31,432.74z"/>
						</g>
						<g>
							<path class="st54" d="M505.87,432.47c0.67-1.67-0.03-3.59-1.56-4.53c-0.3-0.19-0.58,0.23-0.37,0.48
								c1,1.13,1.86,2.43,1.65,4.02C505.57,432.61,505.81,432.61,505.87,432.47L505.87,432.47z"/>
						</g>
					</g>
				</g>
				<g>
					<path class="st53" d="M514.59,418c0-0.01-0.01-0.02-0.01-0.03c-0.22,0.03-0.46,0.06-0.74,0.13c-1.33,0.36-1.03,2-2.06,2.54
						c-0.48,0.24-0.79-0.3-1.21-0.18c-0.55,0.12-0.61,0.85-0.79,1.27c-0.36,0.83-0.9,1.73-1.67,2.26c0.19,1.14,0.45,2.26,0.76,3.13
						c1,2.76,9.3,4.3,9.6,1.78C518.78,426.38,515.55,421.49,514.59,418z"/>
					<g>
						<g>
							<path class="st54" d="M515.77,430.05c0.69-0.54,0.04-1.99-0.27-2.58c-0.29-0.57-1.25-1.93-2.03-1.68
								c-0.15,0.04-0.21,0.2-0.14,0.34c0.14,0.26,0.42,0.36,0.64,0.55c0.32,0.27,0.56,0.63,0.79,0.98c0.24,0.36,0.41,0.75,0.53,1.17
								c0.11,0.38-0.03,0.75,0.06,1.11C515.42,430.14,515.64,430.16,515.77,430.05L515.77,430.05z"/>
						</g>
						<g>
							<path class="st54" d="M518.04,429.67c0.86-1.52-0.04-3.93-1.86-4.23c-0.37-0.06-0.64,0.44-0.27,0.64
								c1.22,0.65,2.24,2.03,1.83,3.47C517.69,429.73,517.95,429.83,518.04,429.67L518.04,429.67z"/>
						</g>
					</g>
				</g>
				<g>
					<path class="st53" d="M479.95,425.78c5.15-0.24,11.44,2.97,10.53,4.63c-0.91,1.66-6.84,3.16-17.92,1.23
						C472.56,431.64,474.8,426.02,479.95,425.78z"/>
					<g>
						<g>
							<path class="st54" d="M481.4,429.31c2.25,0.29,4.51,0.64,5.91,2.6c0.11,0.15,0.34,0.06,0.3-0.12
								c-0.53-2.59-4.19-2.53-6.21-2.52C481.37,429.26,481.37,429.31,481.4,429.31L481.4,429.31z"/>
						</g>
						<g>
							<path class="st54" d="M484.42,428.23c1.07,0.01,5.49,0.61,5.14,2.26c-0.07,0.33,0.38,0.44,0.49,0.14
								c0.86-2.32-4.3-2.69-5.63-2.58C484.31,428.06,484.3,428.23,484.42,428.23L484.42,428.23z"/>
						</g>
					</g>
				</g>
				<g>
					<path class="st50" d="M471.59,409.24c2.96-0.33,5.82-0.83,8.81-0.57c2.29,0.2,4.35,0.99,6.14,2.45c0.53,0.48,0.99,1,1.4,1.59
						c0.93,1.28,0.32,2.7-1.1,1.76c-0.24-0.16-0.6,0.11-0.5,0.39c0.07,0.2,1.21,3.26-0.81,2.17c-0.15-0.08-0.42,0.02-0.39,0.22
						c0.92,7.03-8.19,8.63-13.1,10.58c-0.38,0.15-0.37,0.83,0.11,0.77c2.57-0.3,4.9-1.5,7.23-2.57c1.95-0.89,4.32-2.02,5.57-3.85
						c0.35-0.51,1.97-4.05,0.97-4.34c1.32,0.39,1.85-0.52,1.49-1.83c-0.35-1.27-0.23-0.34,0.91-0.11c0.32,0.06,0.76-0.2,0.91-0.47
						c0.81-1.38-0.65-3.23-1.5-4.2c-3.88-4.44-11.11-3.86-16.14-2.08C471.53,409.16,471.54,409.24,471.59,409.24L471.59,409.24z"/>
				</g>
				<g>
					<path class="st52" d="M518.19,365.61c-1.09,0.12-1.8,0.37-2.8-0.3c-0.42-0.28-0.66-0.69-0.97-1.08
						c-0.08-0.1-0.15-0.22-0.22-0.34c0-0.01,0-0.01,0-0.02c-0.03-0.11-0.09-0.19-0.17-0.26c-0.59-0.99-0.98-0.27-0.88,0.37
						c0.24,1.61-0.07,2.99-1.37,4.15c-1.27,1.12-3.01,1.23-4.56,0.73c-0.17-0.06-0.3,0.2-0.14,0.29c1.58,0.87,3.7,1.19,5.24,0.02
						c1.09-0.83,1.81-2.1,1.99-3.45c0.18,0.21,0.36,0.4,0.5,0.51c1.02,0.85,2.83,1.42,3.87,0.29
						C519.05,366.11,518.72,365.55,518.19,365.61z"/>
					<g>
						<path class="st54" d="M515.33,360.32c2.95-4.58,8.39-6.57,13.61-7.08c0.42-0.04,0.41-0.7,0-0.65
							c-5.38,0.63-10.94,2.77-13.89,7.57C514.93,360.34,515.21,360.5,515.33,360.32L515.33,360.32z"/>
					</g>
					<g>
						<path class="st54" d="M516.89,360.91c5.42-1.14,10.72-1.21,16.23-1.23c0.64,0,0.62-0.92,0-0.98
							c-5.49-0.51-11.05,0.35-16.35,1.76C516.48,360.54,516.6,360.97,516.89,360.91L516.89,360.91z"/>
					</g>
					<g>
						<path class="st54" d="M503.73,365.4c-5.99,2-12.31,3.83-16.16,9.21c-0.23,0.32,0.3,0.72,0.55,0.42
							c4.17-5.07,9.71-7.14,15.68-9.36C503.97,365.61,503.9,365.34,503.73,365.4L503.73,365.4z"/>
					</g>
					<g>
						<path class="st54" d="M504.33,366.26c-6.22,2.95-11.57,9.41-13.08,16.16c-0.11,0.51,0.59,0.66,0.77,0.19
							c2.42-6.32,6.47-12.63,12.57-15.91C504.88,366.54,504.62,366.12,504.33,366.26L504.33,366.26z"/>
					</g>
					<g>
						<path class="st15" d="M505.21,361.84c-0.52,1.72,6.89,0.59,7.78,0.19c0.89-0.4,2.09-5.02,1.4-5.23
							C513.7,356.58,506.66,357.01,505.21,361.84z"/>
						<path class="st52" d="M506.44,359.67c-0.54,0.6-0.97,1.32-1.23,2.17c-0.52,1.72,6.89,0.59,7.78,0.19
							c0.14-0.06,0.29-0.24,0.43-0.47c-1.39-0.91-3.64-1.37-4.52-1.32C507.99,360.27,506.82,360.74,506.44,359.67z"/>
						<g>
							<path class="st55" d="M510.09,359.29c0.53-0.25,1.07-0.48,1.63-0.61c0.57-0.13,1.15,0.13,1.65-0.23
								c0.26-0.19,0.19-0.58,0-0.8c-0.46-0.51-1.16-0.19-1.67,0.03c-0.66,0.28-1.25,0.77-1.79,1.25
								C509.74,359.08,509.89,359.39,510.09,359.29L510.09,359.29z"/>
						</g>
						<g>
							<path class="st55" d="M508.93,359.9c0.5-0.06,0.4-0.93-0.1-0.87C508.33,359.09,508.43,359.96,508.93,359.9L508.93,359.9z"/>
						</g>
					</g>
					<g>
						<g>
							<path class="st1" d="M498.26,362.43c0.68,2.05,0.07,3.81-1.37,3.92c-1.44,0.11-3.16-1.47-3.84-3.53
								c-0.68-2.06-0.07-3.81,1.37-3.92S497.57,360.37,498.26,362.43z"/>
						</g>
						<path class="st56" d="M494.89,361.46c0.38,0.67,0.98,1.41,1.83,1.49c0.55,0.07,1.07-0.19,1.54-0.5c0-0.01-0.01-0.02-0.01-0.03
							c-0.65-1.94-2.22-3.44-3.6-3.51C494.19,359.59,494.43,360.61,494.89,361.46z"/>
						<g>
							<path class="st57" d="M494.81,359.94c0,0.63,0.07,1.43,0.86,1.42c0.33,0,0.48-0.32,0.43-0.6c-0.08-0.43-0.47-0.65-0.72-1
								C495.2,359.52,494.81,359.63,494.81,359.94L494.81,359.94z"/>
						</g>
						<g>
							<path class="st57" d="M495.98,361.91c0.03,0.29,0.13,0.43,0.38,0.57c0.53,0.29,0.91-0.4,0.56-0.8
								c-0.15-0.17-0.3-0.24-0.53-0.22C496.17,361.5,495.96,361.67,495.98,361.91L495.98,361.91z"/>
						</g>
					</g>
				</g>
			</g>
		</g>
		<g class="st58">
			<text transform="matrix(1 0 0 1 326.3028 140.7598)" class="st59 st60 st61">adopt</text>
			<text transform="matrix(1 0 0 1 328.8614 100.2227)" class="st59 st60 st62">dont shop</text>
		</g>
	</g>
</g>
</svg>
