<?xml version="1.0" encoding="utf-8"?>
<!-- Generator: Adobe Illustrator 23.0.3, SVG Export Plug-In . SVG Version: 6.00 Build 0)  -->
<svg version="1.1" id="BACKGROUND" xmlns="http://www.w3.org/2000/svg" xmlns:xlink="http://www.w3.org/1999/xlink" x="0px" y="0px"
	 viewBox="0 0 750 500" style="enable-background:new 0 0 750 500;" xml:space="preserve">
<style type="text/css">
	.st0{clip-path:url(#SVGID_2_);}
	.st1{fill:#6D573E;}
	.st2{fill:#EFC9A3;}
	.st3{fill:#A68359;}
	.st4{fill:#402C49;}
	.st5{fill:#ECAC64;}
	.st6{fill:#DC9243;}
	.st7{opacity:0.5;}
	.st8{fill:#FFFFFF;}
	.st9{font-family:'FredokaOne-Regular';}
	.st10{font-size:34.6292px;}
	.st11{fill:#984058;}
	.st12{fill:#FFDB8A;}
	.st13{fill:#F4D071;}
	.st14{fill:#ECA85E;}
	.st15{fill:#564B4A;}
	.st16{fill:#C2B7AF;}
	.st17{fill:#847574;}
	.st18{fill:#DDD4BC;}
	.st19{fill:#FBEED1;}
	.st20{fill:#99A3B0;}
	.st21{opacity:0.3;fill:#402C49;}
	.st22{fill:#D4CFBE;}
	.st23{fill:#797C99;}
	.st24{fill:#EBA7AC;}
	.st25{fill:#E68799;}
	.st26{fill:#C7D2D7;}
	.st27{fill:#A64F5A;}
	.st28{opacity:0.5;fill:#402C49;}
	.st29{fill:#F4AF9A;}
	.st30{fill:#E36B85;}
</style>
<g>
	<defs>
		<rect id="SVGID_1_" x="226.01" y="-51.8" width="690.92" height="450.78"/>
	</defs>
	<clipPath id="SVGID_2_">
		<use xlink:href="#SVGID_1_"  style="display:none;overflow:visible;"/>
	</clipPath>
	<g class="st0">
		<g>
			<g>
				<path class="st1" d="M375.72,55.67c0.06-0.09,0.93-2.58,2.05-5.82c3.48-10.07,6.13-20.43,7.92-30.94l1.39-8.18
					c0.58-3.41,5.1-4.08,6.61-0.99l10.34,21.13c2.77,5.66,3.61,12.09,2.39,18.28l-2.88,14.62L375.72,55.67z"/>
				<path class="st2" d="M401.79,50.93c0.75-4.98,0.22-10.23-1.47-14.78l-5.96-16.04l-0.33,2.58c-1.39,10.78-3.48,21.49-6.19,31.82
					c-0.03,0.13-0.64,2.44-0.67,2.57l13.01,3.75L401.79,50.93z"/>
			</g>
			<path class="st1" d="M351.87,59.5c-12.45-11.18-24.29-23.07-35.46-35.58c-3.24-3.63-9.16-1.88-10,2.95l-2.62,15.01
				c-1.45,8.31,0.38,16.87,5.08,23.81l16.02,23.66L351.87,59.5z"/>
			<path class="st2" d="M342.34,63.36c-11.09-10.21-21.77-21.05-31.8-32.3c-0.11-0.13-0.19-0.15-0.3-0.15
				c-0.12,0-0.42,0.04-0.48,0.39l-2.62,15.01c-1.21,6.94,0.29,13.96,4.22,19.76l12.22,18.04L342.34,63.36z"/>
			<g>
				<path class="st1" d="M340.24,165.02V129.3c0-3.25,3.79-4.94,6.14-2.74c5.86,5.5,12.69,9.82,20.13,12.73l42.05,16.45l-0.01,0.05
					l9.82,37.19c2.69,10.18,10.59,18.06,20.63,20.58l37.99,9.55l2.92,46.67l-163.97-2.66l18.62-62.85
					C338.33,191.54,340.24,178.32,340.24,165.02z"/>
				<path class="st3" d="M320.48,185.21V95.93c0-9.46,4.28-18.39,11.61-24.2l19.15-15.18c6.8-5.4,15.76-7.09,24.01-4.54l23.79,7.35
					c5.74,1.77,10.55,5.81,13.35,11.21l10.33,19.91l-14.17,65.26l-43.32-16.95c-7.07-2.77-13.21-7.32-18.96-12.33
					c-2.35-2.05-6.02-0.36-6.02,2.84v35.72c0,13.3-1.91,26.52-5.68,39.25l-18.62,62.85l-33.46-0.54L320.48,185.21z"/>
			</g>
			<path class="st2" d="M422.72,90.48l38.21,16.85c7.41,3.27,10.52,12.27,6.76,19.54l-5.36,10.39
				c-3.87,7.49-11.05,12.61-19.27,13.75l-34.4,4.77c-8.29,1.15-16.62-1.71-22.55-7.73l-23.34-23.71c-2.74-2.78-1.66-7.53,2-8.79l0,0
				c0.98-0.34,2.04-0.37,3.04-0.1l0,0c7.04,1.94,14.53-0.7,18.88-6.66L395,97.4c2.37-3.24,3.21-7.37,2.32-11.3l-4.3-18.93
				c-0.37-1.62,1.82-2.46,2.59-1l8.53,16.18c2.08,3.95,5.93,6.62,10.3,7.14L422.72,90.48z"/>
			<path class="st4" d="M396.86,130.12c0.24-0.55,0.87-0.8,1.41-0.55l12.82,5.82c11.05,5.02,23.8,5.19,34.98,0.48l4.82-2.03
				l1.75-5.06l-0.08-4.05c-0.01-0.6,0.46-1.1,1.05-1.11c0.57,0,1.08,0.47,1.09,1.07l0.09,4.45l-1.82,5.24l0.51,0.52
				c1.37,1.4,3.58,1.46,5.02,0.14l3.09-2.82c0.44-0.4,1.12-0.36,1.51,0.08c0.39,0.45,0.36,1.14-0.08,1.54l-3.09,2.82
				c-1.1,1.01-2.48,1.51-3.86,1.51c-1.49,0-2.97-0.58-4.1-1.73l-0.48-0.49l-4.6,1.94c-5.66,2.39-11.71,3.58-17.76,3.58
				c-6.46,0-12.92-1.36-18.91-4.08l-12.82-5.82C396.86,131.31,396.62,130.67,396.86,130.12z"/>
			<path class="st4" d="M453.72,128.95c5.25-1.64,9.62-6.02,11.48-11.28c0.67-1.9-0.52-3.98-2.47-4.32
				c-7.93-1.38-16.19-0.76-23.84,1.78c-2.27,0.75-2.96,3.71-1.27,5.43C442.87,125.96,449.64,128.44,453.72,128.95z"/>
			<path class="st4" d="M365.8,89.36c0,3.44,2.74,6.24,6.12,6.24s6.12-2.79,6.12-6.24c0-3.44-2.74-6.24-6.12-6.24
				S365.8,85.91,365.8,89.36z"/>
			<path class="st1" d="M359.78,75.71c-1.1,0.25-2.33,0.49-3.3-0.04c-1.45-0.79-1.36-2.74-0.71-4.15c1.21-2.63,3.73-4.74,6.74-5.62
				c3-0.88,6.43-0.52,9.12,0.96c2.63,1.45,4.77,4.9,0.83,5.95C368.28,73.91,363.99,74.74,359.78,75.71z"/>
			<path class="st4" d="M405.7,80.29c0,3.06,1.54,5.53,3.43,5.53c1.9,0,3.43-2.48,3.43-5.53s-1.54-5.53-3.43-5.53
				C407.24,74.76,405.7,77.23,405.7,80.29z"/>
			<path class="st1" d="M398.56,66.91c-0.65-0.07-1.36-0.2-1.65-0.86c-0.43-0.99,0.36-2.53,1.22-3.49c1.61-1.8,3.69-2.85,5.54-2.8
				c1.85,0.05,3.44,1.19,4.24,3.05c0.78,1.81,0.54,5.11-1.85,4.96C403.54,67.61,401.06,67.2,398.56,66.91z"/>
		</g>
		<g>
			<g>
				<path class="st5" d="M587.96,271.53l-403.78-6.54l19.98,118.52l2.14,106.15h373.82l-11.06-90.52l1.84-3.33
					c1.01-1.82,0.96-4.05-0.11-5.82l-3.87-6.39l4.6-2.91c2.77-1.75,3.32-5.63,1.15-8.11l-4.42-5.06L587.96,271.53z"/>
				<path class="st6" d="M204.15,383.5l218.57,67.98l-39.06-1.69c-24.21-1.05-48.02-6.73-70.17-16.77L204.15,383.5z"/>
				<path class="st6" d="M523.57,431.85l-79.72,9.27l32.56,6.62c11.79,2.4,24.04-0.09,34.03-6.91L523.57,431.85z"/>
				<path class="st6" d="M563.52,397.86l-51.01-4.36l21.14,6.48c5.21,1.6,10.72,1.85,16.05,0.75L563.52,397.86z"/>
				<path class="st6" d="M558.89,366.41l-33.49-9.77c-4.64-1.35-9.45-1.97-14.27-1.84l-38.56,1.07l39.52,9.31
					c3.48,0.82,7.04,1.23,10.62,1.23H558.89z"/>
				<g class="st7">
					<polygon class="st8" points="528.28,342.28 531.15,341.96 529.11,337.41 529.11,337.41 532.31,336.87 530,332.15 
						532.94,331.51 530.98,326.36 533.92,325.7 531.97,320.55 531.97,320.55 534.28,319.7 532.86,315.28 532.86,315.28 
						536.42,314.15 533.74,310.11 576.94,325.19 570.05,358.72 527.59,346.37 530.08,345.96 					"/>
				</g>
			</g>
			<g>
				<polygon class="st8" points="486.86,373.26 259.9,376.23 263.83,294.92 490.1,306.3 				"/>
				<text transform="matrix(0.98 0.0493 -0.0483 0.9988 286.8118 345.815)" class="st4 st9 st10">ADOPT US</text>
			</g>
			<polygon class="st6" points="587.96,271.53 631.06,366.41 572.85,345.09 			"/>
			<polygon class="st6" points="184.18,264.98 150.65,360.6 197.42,343.56 			"/>
		</g>
		<g>
			<polygon class="st11" points="543.82,155.19 547.74,172.83 545.78,173.19 538.56,153.74 			"/>
			<polygon class="st11" points="556.54,156.37 555.77,175.2 553.89,175.2 552.02,156.92 			"/>
			<path class="st12" d="M523.32,115.37c-0.51-1.37-1.06-2.76-2.03-3.83c-0.97-1.07-2.47-1.77-3.86-1.39
				c-1.56,0.43-2.54,2.1-2.67,3.74c-0.14,1.64,0.4,3.25,0.96,4.79c2.69,7.39,6.19,14.48,10.41,21.09c0.55,0.86,2.15,4.26,3.22,4.35
				c1.78,0.16,0.67-3.09,0.52-4.06c-0.64-3.95-1.46-7.86-2.46-11.73C526.27,123.95,524.91,119.62,523.32,115.37z"/>
			<path class="st13" d="M514.33,116.5c-0.93-1.23-1.91-2.48-3.22-3.25c-1.31-0.77-3.02-0.97-4.3-0.1c-1.43,0.98-1.9,3.05-1.54,4.79
				c0.37,1.74,1.4,3.22,2.43,4.62c4.97,6.7,10.65,12.81,16.91,18.17c0.82,0.7,3.47,3.65,4.56,3.38c1.84-0.45-0.27-3.42-0.72-4.37
				c-1.85-3.85-3.88-7.61-6.07-11.26C519.91,124.34,517.22,120.34,514.33,116.5z"/>
			<path class="st14" d="M508.93,122.57c-1.13-0.9-2.3-1.81-3.68-2.22c-1.38-0.41-3.01-0.22-4.01,0.83
				c-1.12,1.18-1.11,3.14-0.4,4.61c0.71,1.48,1.98,2.58,3.24,3.61c6.04,4.93,12.62,9.17,19.58,12.62c0.91,0.45,4,2.52,4.96,2.05
				c1.61-0.79-0.99-3-1.61-3.75c-2.54-3.05-5.23-5.97-8.04-8.77C515.78,128.38,512.43,125.38,508.93,122.57z"/>
			<path class="st13" d="M549.73,158.64c10.29,0.76,20.79-4.62,26.34-13.48c5.55-8.86,5.91-20.84,0.91-30.03
				c-2.81-5.16-7.37-9.52-12.95-11.08c-5.58-1.56-12.15,0.1-15.68,4.78c-5.97,7.9-1.72,20.59-7.89,28.33
				c-1.83,2.3-4.51,3.81-7.34,4.36c-1.97,0.38-7.13-1.02-6.35,2.31c0.57,2.47,3.81,5.4,5.57,7.04c2.24,2.08,4.79,3.81,7.53,5.12
				C542.97,157.46,546.32,158.39,549.73,158.64z"/>
			<path class="st14" d="M533.11,141.52c2.49-0.48,4.85-1.71,6.63-3.55c4.54,2.17,9.55,3.32,14.56,3.25
				c6.95-0.1,13.85-2.49,19.41-6.75c2.66-2.03,5.03-4.52,6.68-7.45c0.46,6.31-0.98,12.79-4.33,18.13
				c-5.55,8.86-16.06,14.24-26.34,13.48c-3.41-0.25-6.76-1.18-9.86-2.65c-2.75-1.3-5.3-3.04-7.53-5.12c-1.76-1.64-5-4.57-5.57-7.04
				C525.99,140.5,531.14,141.9,533.11,141.52z"/>
			<path class="st11" d="M550.08,117.26l-8.98,4.51l10.37,0.56c1.66,0.09,2.83-1.65,2.15-3.19l-0.3-0.68
				C552.76,117.19,551.29,116.65,550.08,117.26z"/>
			<path class="st4" d="M554.83,112.41c0,1.47,1.17,2.66,2.61,2.66c1.44,0,2.61-1.19,2.61-2.66c0-1.47-1.17-2.66-2.61-2.66
				C556,109.75,554.83,110.94,554.83,112.41z"/>
		</g>
		<g>
			<g>
				<path class="st15" d="M603.77,172.83c-9.03,4.36-20.45,16.9-20.45,16.9l21.22,39.26c0.36-15.81,10.52-28.08,10.52-28.08
					L603.77,172.83z"/>
				<path class="st4" d="M603.77,172.83l11.3,28.08c0,0-2.8,3.38-5.51,8.87C604.28,202.07,599.38,190.48,603.77,172.83z"/>
				<path class="st15" d="M603.77,172.83c0.3,14.29,5.38,28.43,14.18,39.55c1.65,2.09,3.85,4.25,6.47,4.02
					c3.13-0.28,4.92-3.75,5.69-6.85c1.58-6.44,1.19-13.36-1.1-19.58L603.77,172.83z"/>
			</g>
			<g>
				<path class="st15" d="M495.83,147.15c6.64,7.61,12.33,23.71,12.33,23.71l-34.61,27.66c5.75-14.69,1.1-30.04,1.1-30.04
					L495.83,147.15z"/>
				<path class="st4" d="M495.83,147.15l-21.18,21.33c0,0,1.28,4.23,1.66,10.36C484.14,173.84,493.1,165.14,495.83,147.15z"/>
				<path class="st15" d="M495.83,147.15c-5.77,13.03-15.87,24.02-28.24,30.74c-2.32,1.26-5.17,2.38-7.5,1.12
					c-2.77-1.5-3.09-5.41-2.6-8.57c1.02-6.56,4.04-12.77,8.54-17.57L495.83,147.15z"/>
			</g>
			<g>
				<path class="st16" d="M607.75,228.85l-9.02-25.41c-4.75-13.38-15.88-23.35-29.51-26.42l-41-9.24
					c-12.57-2.83-25.7,0.75-35.19,9.61l-25.89,24.16c-5.54,5.17-7.31,13.32-4.42,20.39l12.48,30.58
					c4.09,10.03,13.08,17.1,23.63,18.61l58.82,8.4c9.75,1.39,19.54-2.16,26.24-9.5l20.03-21.97
					C608.62,242.89,610.1,235.48,607.75,228.85z"/>
				<path class="st17" d="M557.32,197.9c-2.27-0.13-4.69-0.09-6.59,1.18c-2.67,1.78-3.49,5.4-3.47,8.66
					c0.04,7.73,3.67,15.36,9.61,20.18c2.33,1.89,5.05,3.38,7.99,3.87c2.94,0.49,6.13-0.12,8.46-2.01c2.15-1.75,3.39-4.37,4.56-6.91
					c2.51-5.45,3.36-11.56-0.21-16.82c-2.12-3.14-5.47-5.24-9.12-5.98C564.75,199.28,561.29,198.14,557.32,197.9z"/>
				<path class="st4" d="M556.84,214.9c0,3.84,3.05,6.95,6.82,6.95c3.77,0,6.82-3.11,6.82-6.95c0-3.84-3.05-6.95-6.82-6.95
					C559.89,207.95,556.84,211.06,556.84,214.9z"/>
				<path class="st17" d="M561.81,194.94c-1.87-0.4-3.97-0.96-4.88-2.68c-0.85-1.61-0.23-3.72,1.06-4.97
					c1.3-1.26,3.12-1.79,4.9-1.98c3.95-0.43,8.04,0.66,11.28,3c2.52,1.82,5.46,7.57,0.85,8.94c-1.6,0.48-3.67-0.29-5.23-0.61
					C567.13,196.07,564.47,195.51,561.81,194.94z"/>
				<path class="st17" d="M521.34,191.24c2.13,0.81,4.32,1.85,5.56,3.79c1.74,2.73,1.06,6.38-0.25,9.35
					c-3.1,7.06-9.44,12.55-16.78,14.52c-2.88,0.77-5.96,1.02-8.84,0.25c-2.89-0.77-5.56-2.63-6.95-5.32
					c-1.28-2.48-1.37-5.4-1.44-8.2c-0.14-6.02,1.5-11.96,6.84-15.3c3.19-2,7.08-2.54,10.71-1.73
					C514,189.45,517.62,189.82,521.34,191.24z"/>
				<path class="st4" d="M515.06,206.99c-1.52,3.51-5.55,5.11-8.99,3.56c-3.45-1.55-5.01-5.65-3.49-9.17
					c1.52-3.51,5.55-5.11,8.99-3.56C515.02,199.37,516.58,203.48,515.06,206.99z"/>
				<path class="st17" d="M518.41,186.68c1.87,0.41,4.02,0.75,5.53-0.44c1.41-1.12,1.69-3.31,1-4.99c-0.69-1.68-2.15-2.92-3.7-3.83
					c-3.44-2.02-7.62-2.7-11.51-1.89c-3.02,0.63-7.99,4.68-4.32,7.83c1.27,1.09,3.47,1.25,5.03,1.59
					C513.09,185.53,515.75,186.11,518.41,186.68z"/>
				<g>
					<path class="st18" d="M548.47,221.36l4.38,1.63c3.37,1.26,6.34,3.43,8.58,6.29l0,0c2.86,3.64,6.87,6.14,11.34,7.09l9.44,2
						c4.33,0.92,7.66,4.44,8.4,8.88l0,0c0.57,3.43-0.48,6.92-2.85,9.43l-6.03,6.39c-7.36,7.8-17.98,11.45-28.47,9.79l-50.06-7.92
						c-10.97-1.74-20.32-9.05-24.8-19.41l-3.76-8.7c-2.01-4.64-1.08-10.05,2.35-13.73l0,0c3.1-3.32,7.74-4.65,12.09-3.48l3.69,1
						c4.7,1.27,9.71,0.54,13.87-2.04l0,0c2.8-1.73,6.01-2.65,9.28-2.65h7.66L548.47,221.36z"/>
					<path class="st8" d="M559.92,255.05c-3.11,0.5-6.31,0.19-9.3-0.89c2.37-3.92,4.32-8.12,5.73-12.49
						C558.4,245.83,559.61,250.41,559.92,255.05z"/>
					<path class="st8" d="M494.27,241.11c2.67-3.67,6.03-6.81,9.87-9.17c-1.11,4.51-1.65,9.16-1.69,13.81
						c-2.71-0.74-5.26-2.09-7.45-4L494.27,241.11z"/>
					<path class="st4" d="M482.99,231.24c0.38-0.46,1.06-0.51,1.51-0.12l11.2,9.81c4.45,3.9,10.49,5.33,16.17,3.82l9.94-2.63
						c2.33-0.62,4.72-0.77,7.06-0.53l1.4-9.81c0.09-0.6,0.64-1.01,1.21-0.92c0.58,0.09,0.99,0.64,0.9,1.24l-1.41,9.83
						c2.49,0.54,4.89,1.53,7.05,3.02l8.95,6.14c5.63,3.86,13.07,4.13,18.95,0.67l7.4-4.35c0.51-0.3,1.17-0.12,1.46,0.4
						c0.3,0.52,0.12,1.19-0.39,1.49l-7.4,4.35c-3.08,1.81-6.55,2.71-10.01,2.71c-3.93,0-7.85-1.16-11.21-3.46l-8.95-6.14
						c-4.25-2.92-9.54-3.84-14.5-2.53l-9.94,2.63c-6.36,1.68-13.12,0.08-18.1-4.28l-11.2-9.81
						C482.66,232.38,482.61,231.69,482.99,231.24z"/>
					<path class="st4" d="M549.6,222.12l-1.13-0.76c-7.9-5.29-17.38-7.57-26.77-6.46l-1.88,0.22c-3.14,0.37-4.75,4.03-2.93,6.66
						l4.73,6.88c3.86,5.61,11.02,7.75,17.24,5.15l10.05-4.21C552,228.3,552.4,223.99,549.6,222.12z"/>
				</g>
			</g>
		</g>
		<g>
			<g>
				<g>
					<path class="st19" d="M461.77,273.57c0.77-5.48,2.81-11.15,5.99-15.65c2.04,2.46,4.29,4.19,6.34,6.65
						c0.84-3.19,1.43-6.8,1.19-10.09c3.67,1.01,7.05,2.99,9.44,6.01c0.38-2.59,0.22-5.26-0.44-7.79c4.87,4.61,8.41,10.71,9.85,17.32
						c1.06,4.83,1.02,10.01-0.83,14.59c-2.41,5.98-7.99,10.52-14.25,11.6c-6.26,1.08-12.99-1.33-17.2-6.17
						c-4.14-4.75-5.82-14.09-4.18-20.3C458.8,271.23,460.19,272.5,461.77,273.57z"/>
					<path class="st20" d="M430.38,268.97c2.47-9.58,9.32-18.05,18.17-22.14c8.85-4.09,19.51-3.88,28.21,0.54
						c2.74,1.4,5.28,3.21,7.52,5.33c0.66,2.53,0.82,5.2,0.44,7.79c-2.39-3.01-5.77-5-9.44-6.01c0.24,3.29-0.35,6.9-1.19,10.09
						c-2.04-2.46-4.29-4.19-6.34-6.65c-3.18,4.49-5.22,10.16-5.99,15.65c-1.58-1.07-2.97-2.34-4.09-3.82
						c0.03-0.11,0.05-0.23,0.08-0.34l-0.34-0.01L430.38,268.97z"/>
				</g>
				<path class="st21" d="M444.98,262.44c2.54-2.2,6.1-3.75,9.41-3.32c-0.49-1.2-0.87-2.75-1.36-3.95
					c2.59,1.64,6.78,6.63,4.73,14.25l-16.73-0.27C441.61,266.56,443,264.16,444.98,262.44z"/>
			</g>
			<g>
				<g>
					<g>
						<g>
							<path class="st20" d="M389.99,249.76l1.43-1.41h19.8h19.8l1.17,1.16c5.61,5.56,10.36,11.95,14.09,18.96l0.41,0.77
								l-35.46-0.57l-34.97-0.57l0,0C379.92,261.33,384.55,255.16,389.99,249.76z"/>
							<path class="st22" d="M411.21,255.99c8.52,0,15.85,5.33,19.16,12.99l-38.04-0.62C395.77,261.03,402.92,255.99,411.21,255.99z
								"/>
						</g>
						<path class="st21" d="M391.42,248.35h19.8h19.8l1.17,1.16c1.08,1.07,2.12,2.18,3.14,3.32c-6.42,4.94-14.33,7.74-22.62,7.74
							h-2.96c-8.3,0-16.22-2.8-22.64-7.76c0.94-1.04,1.9-2.06,2.9-3.05L391.42,248.35z"/>
					</g>
					<g>
						<g>
							<path class="st23" d="M459.79,157.32L459.79,157.32c1.73,15.67,0.78,31.54-2.81,46.88l-1,4.26l-25.6-26.18l4.4-7.41
								c4.91-8.27,11.72-15.18,19.85-20.15l0,0C456.76,153.41,459.51,154.79,459.79,157.32z"/>
							<g>
								<path class="st24" d="M451,172.55c-4.21,3.63-7.94,8.17-10.96,13.39l-2.27,3.9l-2.09-2.14l5.96-10.01
									c3.91-6.58,9.2-12.27,15.43-16.6c0.96,11.14,0.53,22.29-1.3,33.29c-0.18,1.07-2.35,10.19-2.55,11.26l-2.99-3.06
									c1.97-9.44,3.12-19.07,3.41-28.76C453.68,172.4,452.05,171.64,451,172.55z"/>
								<path class="st25" d="M440.04,185.94c3.02-5.21,6.75-9.76,10.96-13.39c1.05-0.91,2.68-0.15,2.63,1.26
									c-0.29,9.7-1.44,19.32-3.41,28.76l-12.45-12.73L440.04,185.94z"/>
							</g>
						</g>
						<g>
							<path class="st23" d="M362.93,157.32L362.93,157.32c-1.73,15.67-0.78,31.54,2.81,46.88l1,4.26l25.6-26.18l-4.4-7.41
								c-4.91-8.27-11.72-15.18-19.85-20.15l0,0C365.95,153.41,363.2,154.79,362.93,157.32z"/>
							<g>
								<path class="st24" d="M371.71,172.55c4.21,3.63,7.94,8.17,10.96,13.39l2.27,3.9l2.09-2.14l-5.96-10.01
									c-3.91-6.58-9.2-12.27-15.43-16.6c-0.96,11.14-0.53,22.29,1.3,33.29c0.18,1.07,2.35,10.19,2.55,11.26l2.99-3.06
									c-1.97-9.44-3.12-19.07-3.41-28.76C369.04,172.4,370.66,171.64,371.71,172.55z"/>
								<path class="st25" d="M382.67,185.94c-3.02-5.21-6.75-9.76-10.96-13.39c-1.05-0.91-2.68-0.15-2.63,1.26
									c0.29,9.7,1.44,19.32,3.41,28.76l12.45-12.73L382.67,185.94z"/>
							</g>
						</g>
						<g>
							<path class="st20" d="M400.35,177.39h21.72c9.95,0,19.27,4.88,24.95,13.06l11.76,16.95c3.57,5.14,3.57,11.96,0,17.1
								l-11.76,16.95c-5.67,8.18-14.99,13.06-24.95,13.06h-21.72c-9.95,0-19.27-4.88-24.95-13.06l-11.76-16.95
								c-3.57-5.14-3.57-11.96,0-17.1l11.76-16.95C381.08,182.27,390.4,177.39,400.35,177.39z"/>
							<path class="st4" d="M422.72,209.47c0,2.47,1.97,4.48,4.39,4.48s4.39-2,4.39-4.48c0-2.47-1.97-4.48-4.39-4.48
								S422.72,207,422.72,209.47z"/>
							<path class="st23" d="M393.04,229.18c0.42-0.43,1.1-0.43,1.51,0l3.84,3.92c1.32,1.34,3.06,2.08,4.92,2.08
								c3.84,0,6.96-3.18,6.96-7.1v-0.45c0-0.6,0.48-1.09,1.07-1.09c0.59,0,1.07,0.49,1.07,1.09v0.45c0,3.91,3.12,7.1,6.96,7.1
								c1.86,0,3.61-0.74,4.92-2.08l3.84-3.92c0.42-0.43,1.1-0.43,1.51,0c0.42,0.43,0.42,1.12,0,1.54l-3.84,3.92
								c-1.72,1.75-4.01,2.72-6.44,2.72c-3.48,0-6.5-2-8.03-4.92c-1.53,2.93-4.56,4.92-8.03,4.92c-2.43,0-4.72-0.97-6.44-2.72
								l-3.84-3.92C392.62,230.29,392.62,229.6,393.04,229.18z"/>
							<path class="st23" d="M424.16,199.18c-0.94,0.24-1.94,0.65-2.85,0.29c-1.04-0.4-1.53-1.71-1.29-2.81
								c0.24-1.1,1.04-2,1.94-2.65c3-2.18,7.44-2.02,10.28,0.37c0.68,0.57,1.29,1.28,1.59,2.12c0.72,1.98-0.85,4.27-2.96,3.56
								C428.57,199.29,426.65,198.53,424.16,199.18z"/>
							<path class="st4" d="M399.99,209.47c0,2.47-1.97,4.48-4.39,4.48c-2.43,0-4.39-2-4.39-4.48c0-2.47,1.97-4.48,4.39-4.48
								C398.03,205,399.99,207,399.99,209.47z"/>
							<path class="st23" d="M398.55,199.18c0.94,0.24,1.94,0.65,2.85,0.29c1.04-0.4,1.53-1.71,1.29-2.81
								c-0.24-1.1-1.04-2-1.94-2.65c-3-2.18-7.44-2.02-10.28,0.37c-0.68,0.57-1.29,1.28-1.59,2.12c-0.72,1.98,0.85,4.27,2.96,3.56
								C394.14,199.29,396.06,198.53,398.55,199.18z"/>
							<g>
								<g>
									<path class="st26" d="M430.38,224.08c6.8-1.11,17.82-1.11,24.61,0C448.19,225.2,437.17,225.2,430.38,224.08z"/>
								</g>
								<g>
									<path class="st26" d="M430.89,221.29c6.21-3.03,16.77-6.22,23.6-7.12C448.28,217.19,437.71,220.38,430.89,221.29z"/>
								</g>
								<g>
									<path class="st26" d="M430.89,226.88c6.83,0.9,17.39,4.09,23.6,7.12C447.66,233.11,437.09,229.92,430.89,226.88z"/>
								</g>
							</g>
							<g>
								<g>
									<path class="st26" d="M392.33,224.08c-6.8-1.11-17.82-1.11-24.61,0C374.52,225.2,385.54,225.2,392.33,224.08z"/>
								</g>
								<g>
									<path class="st26" d="M391.83,221.29c-6.21-3.03-16.77-6.22-23.6-7.12C374.44,217.19,385,220.38,391.83,221.29z"/>
								</g>
								<g>
									<path class="st26" d="M391.83,226.88c-6.83,0.9-17.39,4.09-23.6,7.12C375.06,233.11,385.62,229.92,391.83,226.88z"/>
								</g>
							</g>
							<path class="st4" d="M405.49,219.72h11.73c2.1,0,3.2,2.19,1.77,3.53l-2.58,2.44c-1.36,1.29-3.21,1.93-5.05,1.93
								c-1.85,0-3.69-0.64-5.05-1.93l-2.58-2.44C402.3,221.91,403.39,219.72,405.49,219.72z"/>
							<path class="st23" d="M427.45,182.89c-0.57,1.01-1.8,1.47-2.95,1.45c-1.14-0.02-2.24-0.43-3.33-0.77
								c-6.38-2.03-13.34-2.07-19.74-0.11c-0.8,0.25-1.61,0.52-2.44,0.56c-0.84,0.03-1.73-0.22-2.27-0.87
								c-0.77-0.94-0.56-2.43,0.18-3.39c0.72-0.94,1.81-1.48,2.9-1.92c1.89-0.28,3.81-0.43,5.75-0.43h11.36
								c1.63,0,3.24,0.1,4.84,0.3c0.88,0.33,1.74,0.7,2.58,1.12C425.78,179.53,428.72,180.66,427.45,182.89z"/>
							<path class="st23" d="M420.85,189.19c-0.33,0.58-1.03,0.84-1.69,0.83c-0.66-0.01-1.28-0.24-1.91-0.44
								c-3.65-1.16-7.64-1.18-11.31-0.06c-0.46,0.14-0.92,0.3-1.4,0.32c-0.48,0.02-0.99-0.13-1.3-0.5c-0.44-0.54-0.32-1.39,0.1-1.94
								c0.42-0.55,1.07-0.87,1.72-1.12c4.47-1.79,9.67-1.55,13.99,0.59C419.89,187.27,421.57,187.91,420.85,189.19z"/>
						</g>
					</g>
				</g>
				<ellipse class="st19" cx="439.08" cy="271.07" rx="10.92" ry="8.91"/>
				<ellipse class="st19" cx="383.35" cy="271.07" rx="10.92" ry="8.91"/>
			</g>
		</g>
		<g>
			<path class="st4" d="M301.08,136.79L301.08,136.79c0-3.01,3.11-4.97,5.75-3.62l19.97,10.17c11.91,6.06,20.27,17.55,22.51,30.92
				l6.65,39.64c0.52,3.13-2.7,5.5-5.45,4.02l-22.68-12.22L301.08,136.79z"/>
			<g>
				<path class="st27" d="M247.97,218.38l2.34,11.35c1.6,7.77-1.67,15.74-8.21,20.03l-7.62,5c-4.07,2.67-7.8,5.85-11.12,9.44
					l-3.04,3.3l130.73-2.12l-16.42-18.07c-3.99-4.39-6.85-9.73-8.31-15.53l-4.51-17.84L247.97,218.38z"/>
				<path class="st28" d="M287.34,246.22l23.41-5.96c6.08-1.55,11.41-5.21,15.1-10.29l-4.05-16.02l-73.84,4.43l1.68,8.15
					l18.73,15.42C273.69,246.32,280.71,247.91,287.34,246.22z"/>
			</g>
			<path class="st27" d="M231.47,148.83c12.3-7.28,37.41-14.11,54.9-16.49c8.47-1.15,16.84,2.75,21.48,10.07l25.78,40.65
				c4.31,6.8,4.65,15.45,0.88,22.58l-3.31,6.26c-4.38,8.27-12.04,14.24-21.02,16.37l-21.24,5.04c-7.06,1.68-14.47,0.87-21.03-2.28
				l-31.34-15.08L231.47,148.83z"/>
			<path class="st29" d="M333.63,183.07l-2.43-3.82c-7.58-0.48-16.26,0.11-25.11,1.58c-6.11,1.01-12.04-2.51-14.27-8.4
				c-5.18-13.68-13.55-28.47-19.61-37.54c-2.8,0.61-5.65,1.28-8.5,2.02c5.36,9.22,11.5,24.89,15.12,39.22
				c1.52,6.01-1.37,12.3-6.94,14.81c-8.24,3.72-15.3,8.16-20.05,13.1c-1.33,1.39-1.77,3.42-1.15,5.26l2.79,8.25
				c1.7,5.02,5.31,9.13,10.02,11.39l4.37,2.1c6.56,3.16,13.97,3.96,21.03,2.28l21.24-5.04c8.99-2.13,16.64-8.09,21.02-16.37
				l3.31-6.26C338.27,198.52,337.94,189.87,333.63,183.07z"/>
			<path class="st4" d="M263.17,174.53c0,2.6-2.07,4.7-4.61,4.7c-2.55,0-4.61-2.11-4.61-4.7c0-2.6,2.07-4.7,4.61-4.7
				C261.1,169.83,263.17,171.93,263.17,174.53z"/>
			<path class="st4" d="M308.65,163.83c0,2.6-2.07,4.7-4.61,4.7c-2.55,0-4.61-2.11-4.61-4.7s2.07-4.7,4.61-4.7
				C306.58,159.12,308.65,161.23,308.65,163.83z"/>
			<path class="st29" d="M256.46,157.64c0.92-0.06,1.85-0.03,2.76-0.22c0.9-0.19,1.81-0.63,2.32-1.41c0.8-1.22,0.4-2.98-0.61-4.03
				c-1.01-1.05-2.47-1.51-3.9-1.7c-3.8-0.51-7.78,0.69-10.7,3.21c-0.89,0.77-1.69,1.67-2.16,2.76c-0.46,1.09-0.54,2.39-0.02,3.45
				c0.45,0.92,1.54,1.73,2.59,1.7c1.03-0.03,1.87-1.02,2.72-1.54C251.57,158.58,253.99,157.8,256.46,157.64z"/>
			<path class="st29" d="M296.21,147.42c-0.7,0.3-1.38,0.68-2.13,0.86c-0.75,0.18-1.61,0.13-2.33-0.37
				c-1.13-0.78-1.62-2.5-1.34-3.82c0.28-1.32,1.15-2.29,2.12-3.01c2.57-1.9,6.03-2.35,9.3-1.21c0.99,0.35,1.99,0.85,2.81,1.64
				c0.82,0.8,1.46,1.92,1.55,3.07c0.08,0.99-0.36,2.13-1.15,2.5c-0.77,0.36-1.83-0.19-2.68-0.33
				C300.23,146.39,298.1,146.62,296.21,147.42z"/>
			<path class="st4" d="M260.63,207.04l13.01,4.03c5.74,1.78,11.97,0.31,16.36-3.86l3.09-2.93c1.89-1.79,2.51-4.58,1.57-7.03
				l-1.92-5l2.27-0.82l2.55,5.89c0.87,2.02,2.7,3.44,4.84,3.76l3.89,0.59c6.7,1.02,13.35-2.17,16.86-8.08l3.57-6.01l-5.16,16.82
				c-2.12,6.9-7.54,12.21-14.39,14.09l-8.92,2.45c-5.07,1.39-10.48,0.77-15.12-1.74L260.63,207.04z"/>
			<path class="st30" d="M320.8,227.17c-0.69-3.54-1.46-7.09-2.95-10.37c-0.53-1.16-1.16-2.28-1.88-3.32
				c-1.32-1.91-2.97-3.57-4.98-4.7c-4.7-2.65-10.64-2.03-15.53,0.24c-3.26,1.51-6.3,3.8-8.06,6.98c-0.76,1.37-1.23,2.92-1.39,4.49
				c2.93,1.04,6.04,1.41,9.12,1.06c0,0,0,0,0,0l0,0c1.08,4.4,1.41,9.42,1.86,13.93s1.7,9.23,4.98,12.3
				c2.24,2.11,5.33,3.24,8.38,3.09c3.05-0.16,6.01-1.6,8.04-3.93c2.25-2.58,3.28-6.07,3.47-9.52
				C322.05,233.99,321.46,230.56,320.8,227.17z"/>
			<path class="st4" d="M297.97,181.17c-6.39,0.79-12.64,2.71-18.4,5.64c-2.12,1.08-1.95,4.22,0.26,5.1
				c2.2,0.87,4.47,1.57,6.74,1.89c2.38,0.34,4.87,0.45,7.12-0.4c2.35-0.89,4.24-2.77,5.61-4.9c0.67-1.04,1.17-2.32,1.62-3.63
				C301.59,182.89,300.01,180.92,297.97,181.17z"/>
			<path class="st4" d="M214.77,156.44l12.08-11.48c2.48-2.36,6.54-0.86,6.96,2.58l5.91,48.55c1.4,11.51-1.42,23.14-7.92,32.66
				l-3.68,5.39c-1.92,2.81-6.16,2.16-7.19-1.1l-14.21-45.17C203.21,176.69,206.35,164.44,214.77,156.44z"/>
		</g>
		<path class="st4" d="M252.79,266.99L252.79,266.99c2.19-4.69,6.76-7.75,11.85-7.93l12.39-0.44c3.18-0.11,6.14,1.62,7.65,4.46
			l3.44,6.46c1.3,2.45,1.17,5.43-0.34,7.75l0,0c-1.12,1.71-2.88,2.88-4.87,3.24l-9.32,1.67c-5.72,1.02-11.5-1.45-14.79-6.32
			L252.79,266.99z"/>
		<path class="st4" d="M332.93,266.99L332.93,266.99c2.19-4.69,6.76-7.75,11.85-7.93l12.39-0.44c3.18-0.11,6.14,1.62,7.65,4.46
			l3.44,6.46c1.3,2.45,1.17,5.43-0.34,7.75l0,0c-1.12,1.71-2.88,2.88-4.87,3.24l-9.32,1.67c-5.72,1.02-11.5-1.45-14.79-6.32
			L332.93,266.99z"/>
	</g>
</g>
</svg>
